<svg id="Layer_1" data-name="Layer 1" xmlns="http://www.w3.org/2000/svg" viewBox="0 0 50 50"><defs><style>.cls-1{fill:#2a3052}</style></defs><title>vk</title><path class="cls-1" d="M25 9a16 16 0 1 0 16 16A16 16 0 0 0 25 9zm9.17 23h-2.81a2 2 0 0 1-1.4-.43c-1-.72-2-2.59-2.81-2.35s-.76 1.93-.76 1.93a.92.92 0 0 1-.17.55 1.06 1.06 0 0 1-.57.25H24.4a7.21 7.21 0 0 1-5.21-2.37c-2.66-2.77-5-8.27-5-8.27s-.14-.36 0-.53.62-.21.62-.21h3a1.31 1.31 0 0 1 .49.2.94.94 0 0 1 .26.35 20.16 20.16 0 0 0 1.13 2.34c1.25 2.17 1.84 2.64 2.26 2.41.62-.34.43-3.06.43-3.06a3 3 0 0 0-.31-1.43 1.42 1.42 0 0 0-.93-.47c-.17 0 .11-.41.47-.59a6.81 6.81 0 0 1 2.62-.27 5.39 5.39 0 0 1 1.47.15c1 .25.68 1.22.68 3.53 0 .74-.13 1.78.4 2.13.23.15.79 0 2.2-2.37a18.3 18.3 0 0 0 1.17-2.46.88.88 0 0 1 .28-.34.72.72 0 0 1 .41-.07H34s.95-.11 1.1.32-.35 1.5-1.65 3.22c-2.12 2.82-2.35 2.56-.6 4.19a9.38 9.38 0 0 1 2.09 2.41c.69 1.17-.77 1.24-.77 1.24z"/></svg>