<svg width="30" height="30" viewBox="0 0 30 30" xmlns="http://www.w3.org/2000/svg" xmlns:xlink="http://www.w3.org/1999/xlink"><title>fb</title><defs><path id="a" d="M1 1h28v28H1z"/></defs><g fill="none" fill-rule="evenodd"><path fill="#263051" d="M0 0h30v30H0z"/><mask id="b" fill="#fff"><use xlink:href="#a"/></mask><use fill="#263051" xlink:href="#a"/><path d="M22 6H8c-1.1 0-2 .9-2 2v14c0 1.101.9 2 2 2h7v-7h-2v-2.475h2v-2.05c0-2.164 1.212-3.684 3.766-3.684l1.803.002v2.605h-1.197c-.994 0-1.372.746-1.372 1.438v1.69h2.568L20 17h-2v7h4c1.1 0 2-.899 2-2V8c0-1.1-.9-2-2-2z" fill="#FFF" mask="url(#b)"/></g></svg>