<svg id="Layer_1" data-name="Layer 1" xmlns="http://www.w3.org/2000/svg" viewBox="0 0 50 50"><defs><style>.cls-1{fill:#2a3052}</style></defs><title>g+</title><path class="cls-1" d="M22.78 27a5.51 5.51 0 0 0-.81 0 9 9 0 0 0-1.32.29l-.45.18a2.77 2.77 0 0 0-.58.37 2.19 2.19 0 0 0-.48.63 1.87 1.87 0 0 0-.23 1 2.14 2.14 0 0 0 1 1.8 4.28 4.28 0 0 0 2.58.73 3.55 3.55 0 0 0 2.24-.65 2 2 0 0 0 .75-1.59 2 2 0 0 0-.48-1.34 12.48 12.48 0 0 0-1.71-1.37zM22.92 18.16a2 2 0 0 0-1.13-.37 1.84 1.84 0 0 0-1.4.68 2.56 2.56 0 0 0-.45 1.53 4.92 4.92 0 0 0 .66 2.34 3.24 3.24 0 0 0 .82 1 1.81 1.81 0 0 0 1.15.4 2 2 0 0 0 1.37-.59 2.09 2.09 0 0 0 .34-.81 6.52 6.52 0 0 0 0-.7 5.48 5.48 0 0 0-.63-2.47 2.74 2.74 0 0 0-.73-1.01z"/><path class="cls-1" d="M25 9a16 16 0 1 0 16 16A16 16 0 0 0 25 9zm.11 9.2a3.84 3.84 0 0 1 .46.6 4.17 4.17 0 0 1 .38.79 3.82 3.82 0 0 1 .14 1.06 3.1 3.1 0 0 1-.49 1.78 5.75 5.75 0 0 1-.49.6l-.61.56a2.66 2.66 0 0 0-.34.44 1 1 0 0 0-.19.59.77.77 0 0 0 .19.54 3.71 3.71 0 0 0 .31.35l.7.58a7.07 7.07 0 0 1 1.15 1.18 3 3 0 0 1 .49 1.73 3.48 3.48 0 0 1-1.33 2.67 6 6 0 0 1-4 1.24 5 5 0 0 1-3.25-.91 2.52 2.52 0 0 1-1.08-2 2.89 2.89 0 0 1 .35-1.28 3 3 0 0 1 1.24-1.24 6.51 6.51 0 0 1 2.12-.77 16.39 16.39 0 0 1 1.83-.18 4.36 4.36 0 0 1-.4-.63 1.43 1.43 0 0 1-.21-.78 1.21 1.21 0 0 1 .08-.46l.13-.36a6.08 6.08 0 0 1-.67 0 3.18 3.18 0 0 1-2.52-1 3.11 3.11 0 0 1-.92-2.3 3.78 3.78 0 0 1 1.29-2.77 4.51 4.51 0 0 1 1.84-1 8.88 8.88 0 0 1 1.77-.19h4.15l-1.28.75h-1.28a2.66 2.66 0 0 1 .44.41zm7.74 2.22h-2.18v2.18h-1.05v-2.18h-2.18v-1.05h2.17v-2.18h1.06v2.18h2.18z"/></svg>