<svg width="15" height="16" viewBox="0 0 15 16" xmlns="http://www.w3.org/2000/svg"><title>indicators</title><g fill="none" fill-rule="evenodd" opacity=".497"><path d="M0 10.048h1.5V16H0v-5.952zm1.5-2.381H3V16H1.5V7.667zm1.5 2.38h1.5V16H3v-5.952zm1.5-4.761H6V16H4.5V5.286zM6 7.666h1.5V16H6V7.667zm1.5 1.191H9V16H7.5V8.857zM9 6.477h1.5V16H9V6.476zm1.5 3.57H12V16h-1.5v-5.952zm1.5 0h1.5V16H12v-5.952zm1.5-1.19H15V16h-1.5V8.857z" fill="#000"/><path stroke="#000" d="M0 6l5.311-5L9.82 4.1l2.7 1.47 1.766-1.384"/></g></svg>