<svg width="21" height="16" viewBox="0 0 21 16" xmlns="http://www.w3.org/2000/svg"><title>load-save icon</title><g fill="none" fill-rule="evenodd"><path d="M15.452 14C17.963 14 20 11.904 20 9.32c0-2.586-2.037-4.681-4.548-4.681-.262 0-.518.025-.768.068C14.06 2.562 12.13 1 9.844 1 7.052 1 4.79 3.328 4.79 6.199c0 .256.019.508.054.756a3.222 3.222 0 0 0-.408-.027C2.538 6.928 1 8.51 1 10.463S2.538 14 4.436 14" stroke="#404448"/><path d="M9 11v5H8v-5H7l1.5-4 1.5 4H9zM12 12V7h-1v5h-1l1.5 4 1.5-4h-1z" fill="#404448"/></g></svg>