<svg xmlns="http://www.w3.org/2000/svg" width="300" height="300" viewBox="0 0 300 300"><path fill="#FFF" d="M254.303 45.672c-57.53-57.56-151.112-57.56-208.659-.021-57.524 57.529-57.524 151.157 0 208.684 57.547 57.56 151.16 57.55 208.654-.01 57.601-57.516 57.601-151.144.005-208.653z"/><g fill="#F2F2F2"><path d="M108.857 188.699s1.698 12.654 12.348 18.515l-2.833-5.284c.005 0 5.421-14.237-9.515-13.231z"/><path d="M246.837 53.137C193.41-.301 106.537-.301 53.12 53.125c-53.413 53.417-53.413 140.341 0 193.767 53.417 53.428 140.319 53.407 193.717-.01 53.481-53.416 53.481-140.34 0-193.745zm-14.159 179.576c-1.498 1.461-2.959 2.887-4.474 4.254-32.909 26.818-58.258 13.478-58.548 13.478-17.182-3.432-25.705-3.483-30.529-6.706-1.21-.811-5.097-2.901-5.988-2.394-3.51 2.091-8.334 3.16-13.295-.789-.445-.357-.858-.76-1.242-1.126-5.469-5.449-3.608-11.067-1.791-13.027 1.257-1.278-.964-4.872-.964-4.872s-6.449-9.581-10.854-15.347c-4.856-6.332-5.517-18.888-5.573-19.056l-.063-.177c-4.909-5.824-5.417-7.616-7.109-10.455-.995-1.68-2.508-3.252-3.798-4.604-.886-.885-1.707-1.724-2.283-2.509-.132-.168-.162-.413-.11-.8.445-2.719 6.291-8.716 7.554-9.55 1.551-1.004 8.209-5.055 8.209-5.055s3.75-5.888 10.132-5.888c5.752.033 9.256-.317 19.184 2.913l4.122 1.31c6.921 2.216 13.014 4.83 17.858 6.921 4.112 1.774 7.398 3.203 9.923 3.865 8.559 2.251 23.65-4.673 26.832-7.596 5.228-4.75 7.479-7.936 7.513-10.545.042-1.466-.608-2.744-2.086-4.294-.771-.705-1.76-2.032-3.007-3.289-.198-.198-.404-.429-.66-.607-14.485-15.384-11.977-25.028-11.96-25.185.618-6.92-3.348-11.362-7.605-15.965l-.704-.864c-.224-.204-.497-.561-.497-.561 6.172 1.011 10.374 3.494 22.422 4.834 6.842.738 4.684.675 10.147.54 7.533-.241 13.498-.901 13.907-2.609-.733-.624-4.064.18-20.059-5.927-7.406-2.84-8.574-3.258-13.283-4.821-6.053-2.041-12.611-4.865-12.611-4.865 26.094 6.846 34.629 9.527 46.567 9.691 4.616.089 7.36-.472 8.975-.802 1.696-.303 6.961-1.499 7.563-3.321.183-.32-5.056.859-14.737-2.336-30.457-10.064-33.05-15.097-49.929-21.665-5.889-2.284-7.807-3.541-25.59-8.13-8.151-2.095-20.473-.89-22.144.156-23.092-5.425-28.336-4.834-35.114-3.372C132.151 22.6 193.16 27.817 232.68 67.333a119.755 119.755 0 0 1 14.261 17.264l.553.836c12.684 18.979 19.451 41.255 19.451 64.581-.007 31.232-12.177 60.581-34.267 82.699zm-76.694-132.027c11.462 4.085 15.146 16.291 15.146 16.291-14.576 3.326-11.504-11.557-11.504-11.557l-3.642-4.734z"/></g></svg>