<?xml version="1.0" ?><svg height="32" width="32" xmlns="http://www.w3.org/2000/svg"><path d="M15.987 9.991c3.314 0 6 2.688 6 6 0 3.315-2.686 6-6 6-3.312 0-6-2.686-6-6 0-3.312 2.688-6 6-6z" fill="#26A6D1"/><path d="M15.987 23.992c-4.048 0-7.385-3.008-7.917-6.912l-5.515-9.563-.006-.014-.617.891c-.152.279-.3.562-.436.851l-.295.69c-.098.238-.195.479-.282.725-.098.273-.183.549-.264.826l-.178.637c-.074.297-.137.594-.194.893l-.108.631c-.044.293-.078.584-.104.875l-.052.697c-.013.266-.018.531-.018.797s.004.532.018.797l.052.697c.027.291.062.584.104.875l.108.631c.058.299.12.596.194.893l.178.637c.082.275.166.553.264.826.087.244.185.484.282.725.096.23.188.461.295.689.136.289.284.57.437.852l.199.391.092.143c.176.301.37.588.566.875l.314.467c.189.258.396.504.603.752l.414.496c.18.197.373.385.563.574.19.191.377.387.575.564l.496.416c.248.205.494.412.752.602l.463.316c.288.197.577.391.875.566l.142.092.39.199c.28.152.562.303.851.438l.083.043.405.166c1.082.461 2.212.787 3.364 1.002l4.565-7.916c-.535.107-1.089.168-1.658.168z" fill="#3DB39E"/><path d="M31.933 14.901l-.021-.264c-.113-1.336-.662-3.27-1.118-4.568h-9.443c1.615 1.463 2.636 3.57 2.636 5.922 0 2.538-1.185 4.795-3.025 6.26l-5.625 9.756c1.978 0 4.641-.357 6.557-1.123l.065-.021.102-.043c.653-.271 1.299-.568 1.928-.932.563-.324 1.09-.688 1.599-1.068l.029-.023c.49-.371.949-.766 1.387-1.182l.068-.059.221-.225c.968-.969 1.799-2.039 2.477-3.193l.077-.113.139-.281c.218-.396.42-.801.604-1.213l.236-.555c.156-.391.292-.787.417-1.188l.165-.516c.153-.557.278-1.119.371-1.688l.039-.324c.069-.488.118-.979.143-1.475l.009-.397c.008-.494-.002-.991-.037-1.487z" fill="#EFC75E"/><path d="M29.838 7.991c-.335-.58-.71-1.121-1.104-1.643l-.129-.16c-.354-.457-.729-.891-1.125-1.299l-.268-.275c-.435-.428-.886-.834-1.359-1.205l-.104-.088c-.527-.406-1.079-.771-1.648-1.105l-.114-.076-.433-.225c-.25-.135-.499-.27-.756-.391-.247-.115-.496-.217-.745-.32l-.627-.25c-.303-.109-.609-.201-.916-.295l-.51-.148c-.334-.086-.671-.154-1.007-.219l-.476-.094c-.328-.053-.656-.086-.985-.117l-.539-.055c-.282-.018-.563-.016-.847-.02l-.694-.004-.54.039c-1.194.08-2.388.293-3.561.648l-.243.066c-.297.096-.59.213-.884.328l-.564.223c-.242.103-.481.224-.721.343-.232.114-.465.229-.693.356l-.26.133-.384.248c-.227.14-.452.283-.673.435-.216.151-.429.305-.637.463l-.55.439c-.227.19-.448.383-.663.583l-.408.398c-.237.238-.469.48-.688.73l-.149.18 4.551 7.895c1.045-3.201 4.052-5.518 7.603-5.518h13.85z" fill="#E2574C"/></svg>
