<?xml version="1.0" encoding="utf-8"?>
<!-- Generator: Adobe Illustrator 19.2.1, SVG Export Plug-In . SVG Version: 6.00 Build 0)  -->
<svg version="1.1" id="Layer_1" xmlns="http://www.w3.org/2000/svg" xmlns:xlink="http://www.w3.org/1999/xlink" x="0px" y="0px"
	 viewBox="0 0 56.7 56.7" style="enable-background:new 0 0 56.7 56.7;" xml:space="preserve">
<style type="text/css">
	.st0{fill:#3578BC;}
</style>
<g>
	<path class="st0" d="M23.9,17c-1.9,2.1-2.9,4.6-3.2,7.4c5.7,0,11.3,0,16.9,0c0-0.4,0-0.8,0-1.3c-0.1-1.8-0.5-3.6-1.5-5.1
		c-1.3-2.1-3.3-3.1-5.7-3.5c-3.5-0.6-6.8,0-10.1,1.2c-4.8,1.7-8.7,4.6-11.9,8.5c-0.5,0.7-1,1.4-1.6,2.2c0-0.4,0.1-0.7,0.1-1
		c0.7-4.6,2.3-8.7,5.3-12.3c3.5-4.2,8-6.7,13.4-7.6c5.2-0.8,10.2,0,14.8,2.7c4.2,2.5,7.2,6.1,8.9,10.6c1,2.6,1.5,5.4,1.5,8.2
		c0,1.8,0,3.5,0,5.3c0,0.2,0,0.4,0,0.6c-10,0-20,0-30,0c0,2.5,0.7,4.6,2.4,6.3c1.9,2,4.4,3,7.1,3.4c5.7,0.8,11-0.2,16-3.1
		c0.1-0.1,0.3-0.1,0.4-0.2c0,0,0,0,0.1,0c0,0.2,0,0.3,0,0.5c0,3,0,6,0,9.1c0,0.3-0.1,0.5-0.4,0.7c-3.6,1.8-7.3,2.8-11.3,3.1
		c-2.5,0.2-5.1,0.2-7.6-0.3c-7.5-1.5-13.5-7-14.9-14.8c-1.6-8.9,2.6-17,11.1-20.6C23.8,17,23.8,17,23.9,17z"/>
</g>
</svg>
