<?xml version="1.0" encoding="utf-8"?>
<!-- Generator: Adobe Illustrator 14.0.0, SVG Export Plug-In . SVG Version: 6.00 Build 43363)  -->
<!DOCTYPE svg PUBLIC "-//W3C//DTD SVG 1.1//EN" "http://www.w3.org/Graphics/SVG/1.1/DTD/svg11.dtd">
<svg version="1.1" id="Layer_1" xmlns="http://www.w3.org/2000/svg" xmlns:xlink="http://www.w3.org/1999/xlink" x="0px" y="0px"
	 width="266px" height="55px" viewBox="0 0 266 55" enable-background="new 0 0 266 55" xml:space="preserve">
<g>
	<path fill="#FFFFFF" d="M44.953,8.177C34.724-2.059,18.084-2.059,7.853,8.174c-10.229,10.229-10.229,26.88,0,37.11
		c10.231,10.235,26.877,10.233,37.1-0.002C55.195,35.054,55.195,18.402,44.953,8.177z"/>
	<g>
		<g>
			<path fill="#FFFFFF" d="M106.473,10.077c-0.841,0-1.615,0.105-2.285,0.316c-0.664,0.205-1.288,0.491-1.851,0.853
				c-0.555,0.36-1.057,0.775-1.476,1.229c-0.112,0.114-0.218,0.238-0.328,0.361v-2.334H94.9v21.395h5.633V19.908
				c0-1.475,0.386-2.627,1.147-3.428c0.762-0.805,1.742-1.194,2.983-1.194c1.263,0,2.205,0.372,2.875,1.144
				c0.677,0.775,1.024,1.92,1.024,3.4v12.067h5.636V18.404c0-2.506-0.68-4.539-2.015-6.039
				C110.841,10.849,108.92,10.077,106.473,10.077z"/>
			<path fill="#FFFFFF" d="M127.236,10.233c-1.717,0-3.203,0.16-4.422,0.478c-1.209,0.318-2.41,0.744-3.563,1.268l-0.373,0.173
				l1.563,4.604l0.446-0.184c0.903-0.378,1.813-0.684,2.691-0.913c0.865-0.224,1.873-0.334,2.996-0.334
				c1.502,0,2.666,0.339,3.447,1.018c0.727,0.628,1.104,1.511,1.143,2.702c-0.641-0.186-1.303-0.34-1.977-0.46
				c-0.885-0.157-1.975-0.238-3.24-0.238c-1.221,0-2.375,0.141-3.429,0.422c-1.075,0.284-2.014,0.729-2.796,1.318
				c-0.79,0.597-1.417,1.354-1.857,2.256c-0.443,0.901-0.667,1.967-0.667,3.168v0.077c0,1.101,0.219,2.093,0.649,2.939
				c0.421,0.844,1,1.563,1.71,2.127c0.7,0.563,1.529,0.995,2.458,1.282c0.917,0.283,1.901,0.429,2.931,0.429
				c1.615,0,3.016-0.303,4.162-0.903c0.76-0.402,1.439-0.864,2.02-1.39v1.864h5.559V19.339c0-2.852-0.787-5.107-2.342-6.699
				C132.795,11.041,130.402,10.233,127.236,10.233z M126.266,27.935c-1.018,0-1.883-0.237-2.568-0.7
				c-0.631-0.433-0.941-1.048-0.941-1.878v-0.079c0-0.836,0.342-1.476,1.043-1.961c0.75-0.513,1.826-0.772,3.203-0.772
				c0.871,0,1.715,0.074,2.494,0.22c0.658,0.13,1.248,0.282,1.75,0.456v0.854c0,0.574-0.119,1.099-0.354,1.56
				c-0.238,0.467-0.588,0.876-1.016,1.209c-0.453,0.341-0.986,0.61-1.596,0.804C127.67,27.838,126.99,27.935,126.266,27.935z"/>
			<path fill="#FFFFFF" d="M165.707,24.862l-5.494-14.359h-5.986l8.727,20.938c-0.336,0.735-0.68,1.247-1.029,1.512
				c-0.365,0.28-0.82,0.414-1.398,0.414c-0.443,0-0.873-0.068-1.281-0.195c-0.43-0.132-0.848-0.313-1.266-0.53l-0.418-0.223
				l-1.963,4.313l0.371,0.196c0.74,0.402,1.523,0.721,2.32,0.952c0.803,0.227,1.727,0.344,2.744,0.344
				c0.865,0,1.656-0.11,2.348-0.33c0.699-0.227,1.35-0.587,1.938-1.072c0.576-0.485,1.107-1.115,1.572-1.879
				c0.449-0.744,0.891-1.668,1.314-2.749l8.385-21.69h-5.863L165.707,24.862z"/>
			<path fill="#E88024" d="M202.475,24.957c-0.719,0.721-1.492,1.317-2.293,1.771c-0.766,0.438-1.678,0.661-2.709,0.661
				c-0.834,0-1.605-0.16-2.297-0.481c-0.689-0.325-1.297-0.766-1.799-1.313c-0.502-0.549-0.895-1.204-1.174-1.951
				c-0.275-0.746-0.412-1.557-0.412-2.404v-0.08c0-0.819,0.137-1.613,0.412-2.365c0.279-0.746,0.662-1.396,1.143-1.933
				c0.477-0.534,1.053-0.969,1.723-1.293c0.658-0.315,1.389-0.478,2.17-0.478c1.105,0,2.039,0.22,2.781,0.655
				c0.779,0.455,1.518,1.053,2.215,1.769l0.334,0.341l3.512-3.791l-0.277-0.306c-0.988-1.098-2.168-1.992-3.488-2.662
				c-1.34-0.676-3.037-1.02-5.035-1.02c-1.586,0-3.068,0.303-4.432,0.892c-1.354,0.59-2.545,1.401-3.533,2.405
				c-0.986,1.008-1.77,2.211-2.324,3.564c-0.551,1.352-0.834,2.802-0.834,4.301v0.079c0,1.502,0.283,2.942,0.834,4.286
				c0.557,1.343,1.338,2.527,2.324,3.522c0.994,0.994,2.174,1.788,3.516,2.364c1.342,0.579,2.828,0.873,4.408,0.873
				c2.059,0,3.795-0.381,5.148-1.123c1.33-0.734,2.537-1.702,3.57-2.873l0.291-0.316l-3.463-3.407L202.475,24.957z"/>
			<path fill="#E88024" d="M227.5,13.336c-1.006-1.01-2.221-1.814-3.602-2.388c-1.375-0.578-2.91-0.871-4.541-0.871
				c-1.633,0-3.156,0.303-4.539,0.89c-1.385,0.592-2.59,1.398-3.596,2.407c-1.01,1.006-1.809,2.194-2.387,3.535
				c-0.576,1.345-0.871,2.801-0.871,4.33v0.079c0,1.502,0.287,2.944,0.846,4.287c0.566,1.342,1.365,2.53,2.377,3.521
				c1.006,0.995,2.215,1.789,3.598,2.369c1.377,0.574,2.893,0.868,4.494,0.868c1.627,0,3.168-0.3,4.566-0.893
				c1.395-0.586,2.605-1.396,3.613-2.401c1.004-1.008,1.811-2.196,2.387-3.539c0.582-1.344,0.869-2.789,0.869-4.292v-0.08
				c0-1.526-0.287-2.978-0.848-4.308C229.303,15.525,228.51,14.34,227.5,13.336z M219.357,27.39c-0.83,0-1.604-0.16-2.299-0.481
				c-0.693-0.325-1.311-0.771-1.826-1.332c-0.506-0.565-0.918-1.222-1.201-1.958c-0.287-0.733-0.436-1.532-0.436-2.379v-0.08
				c0-0.824,0.137-1.621,0.398-2.371c0.262-0.74,0.648-1.386,1.143-1.92c0.496-0.537,1.104-0.973,1.807-1.294
				c0.693-0.321,1.48-0.483,2.336-0.483c0.859,0,1.648,0.162,2.342,0.483c0.705,0.321,1.318,0.764,1.83,1.314
				c0.506,0.549,0.916,1.206,1.199,1.95c0.285,0.751,0.432,1.556,0.432,2.4v0.079c0,0.821-0.131,1.614-0.395,2.353
				c-0.268,0.727-0.648,1.376-1.145,1.927c-0.5,0.545-1.105,0.982-1.801,1.311C221.039,27.229,220.242,27.39,219.357,27.39z"/>
			<path fill="#E88024" d="M263.791,12.256c-1.348-1.444-3.248-2.179-5.625-2.179c-1.627,0-3.055,0.356-4.25,1.062
				c-0.988,0.581-1.871,1.33-2.645,2.229c-0.551-0.893-1.268-1.637-2.168-2.217c-1.082-0.711-2.424-1.074-3.979-1.074
				c-0.809,0-1.566,0.105-2.236,0.316c-0.672,0.205-1.289,0.498-1.822,0.861c-0.527,0.355-1.006,0.759-1.412,1.197
				c-0.109,0.113-0.205,0.229-0.307,0.343v-2.292h-5.633v21.395h5.633V19.944c0-1.477,0.365-2.641,1.088-3.457
				c0.717-0.809,1.643-1.201,2.83-1.201c1.184,0,2.074,0.366,2.707,1.117c0.652,0.763,0.98,1.905,0.98,3.391v12.104h5.633V19.908
				c0-1.526,0.365-2.695,1.096-3.467c0.729-0.78,1.648-1.155,2.824-1.155c1.18,0,2.072,0.366,2.707,1.117
				c0.645,0.763,0.979,1.92,0.979,3.427v12.067h5.627V18.365C265.818,15.75,265.139,13.696,263.791,12.256z"/>
			<g>
				<rect x="86.261" y="10.503" fill="#FFFFFF" width="5.639" height="21.395"/>
				<path fill="#FFFFFF" d="M92.202,5.499c0-1.724-1.399-3.122-3.125-3.122c-1.724,0-3.117,1.398-3.117,3.122
					c0,1.722,1.394,3.119,3.117,3.119C90.803,8.618,92.202,7.221,92.202,5.499z"/>
			</g>
			<path fill="#E88024" d="M183.477,29.244c0-1.727-1.396-3.123-3.117-3.123c-1.725,0-3.125,1.396-3.125,3.123
				c0,1.719,1.4,3.12,3.125,3.12C182.08,32.364,183.477,30.963,183.477,29.244z"/>
			<path fill="#FFFFFF" d="M81.586,18.836c-0.522-0.57-1.16-1.068-1.875-1.484c-0.449-0.256-0.939-0.495-1.452-0.715l-0.315-0.132
				l0.285-0.186c0.243-0.156,0.489-0.328,0.727-0.516c0.528-0.401,0.989-0.875,1.375-1.405c0.386-0.529,0.704-1.154,0.944-1.854
				c0.243-0.702,0.365-1.518,0.365-2.431v-0.082c0-1.974-0.684-3.659-2.034-5.005c-1.748-1.76-4.359-2.65-7.749-2.65H58.605v29.521
				h13.663c1.617,0,3.111-0.177,4.446-0.528c1.351-0.352,2.521-0.873,3.48-1.55c0.97-0.688,1.729-1.558,2.262-2.587
				c0.523-1.028,0.799-2.231,0.799-3.569v-0.08c0-1.022-0.146-1.931-0.436-2.702C82.533,20.102,82.12,19.412,81.586,18.836z
				 M64.243,14.386V7.658V7.48h0.179h6.815c1.566,0,2.775,0.302,3.584,0.909c0.793,0.591,1.176,1.398,1.176,2.468v0.082
				c0,1.229-0.437,2.11-1.344,2.703c-0.934,0.618-2.209,0.925-3.795,0.925h-6.437h-0.179V14.386z M77.616,23.13
				c0,1.225-0.448,2.117-1.359,2.727c-0.932,0.623-2.252,0.94-3.909,0.94h-7.925h-0.179v-0.178v-6.979v-0.184h0.179h7.555
				c1.929,0,3.378,0.327,4.299,0.965c0.896,0.617,1.339,1.479,1.339,2.624V23.13z"/>
			<path fill="#FFFFFF" d="M152.164,10.117c-1.91-0.082-3.527,0.379-4.797,1.379c-0.791,0.614-1.471,1.365-2.029,2.244v-3.237
				h-5.635v21.395h5.635v-8.249c0-1.294,0.16-2.44,0.484-3.415c0.313-0.952,0.762-1.753,1.334-2.378
				c0.576-0.62,1.264-1.09,2.055-1.4c0.795-0.312,1.689-0.473,2.666-0.473h0.693v-5.848L152.164,10.117z"/>
		</g>
		<g>
			<path fill="#FFFFFF" d="M58.885,47.623l1.47-0.136l-0.012,0.389c0,0.435,0.09,0.83,0.293,1.189
				c0.199,0.358,0.528,0.639,0.984,0.833c0.459,0.2,1.008,0.296,1.638,0.296c0.899,0,1.586-0.197,2.056-0.59
				c0.475-0.392,0.707-0.841,0.707-1.347c0-0.352-0.123-0.673-0.372-0.96c-0.258-0.291-0.951-0.677-2.091-1.167
				c-0.886-0.382-1.48-0.674-1.804-0.879c-0.501-0.331-0.878-0.692-1.118-1.082c-0.238-0.39-0.358-0.834-0.358-1.337
				c0-0.576,0.154-1.092,0.472-1.557c0.321-0.465,0.78-0.819,1.39-1.063c0.606-0.244,1.295-0.37,2.061-0.37
				c0.91,0,1.681,0.154,2.308,0.461c0.625,0.307,1.081,0.715,1.364,1.223c0.286,0.512,0.43,0.998,0.43,1.462
				c0,0.047-0.005,0.122-0.012,0.231l-1.443,0.11c0-0.313-0.03-0.561-0.085-0.736c-0.104-0.313-0.265-0.578-0.476-0.794
				c-0.213-0.209-0.512-0.383-0.88-0.512c-0.374-0.129-0.795-0.198-1.263-0.198c-0.816,0-1.448,0.187-1.902,0.554
				c-0.353,0.28-0.518,0.653-0.518,1.115c0,0.276,0.07,0.52,0.211,0.738c0.145,0.218,0.403,0.43,0.774,0.64
				c0.265,0.148,0.899,0.439,1.89,0.877c0.809,0.359,1.364,0.641,1.666,0.844c0.41,0.27,0.717,0.596,0.939,0.981
				c0.221,0.388,0.333,0.821,0.333,1.313c0,0.604-0.187,1.167-0.557,1.679c-0.372,0.512-0.881,0.907-1.526,1.186
				c-0.661,0.286-1.408,0.423-2.248,0.423c-1.271,0-2.305-0.275-3.106-0.829C59.291,50.055,58.89,49.06,58.885,47.623z"/>
			<path fill="#FFFFFF" d="M69.065,51.249l2.341-11.213h1.382l-0.891,4.31c0.512-0.505,0.986-0.86,1.434-1.08
				c0.444-0.215,0.9-0.321,1.372-0.321c0.673,0,1.193,0.176,1.567,0.529c0.374,0.355,0.563,0.823,0.563,1.403
				c0,0.286-0.085,0.811-0.25,1.576l-1.001,4.796h-1.385l1.033-4.919c0.149-0.712,0.219-1.163,0.219-1.345
				c0-0.263-0.088-0.482-0.274-0.65c-0.182-0.17-0.449-0.252-0.791-0.252c-0.504,0-0.979,0.129-1.432,0.394
				c-0.457,0.261-0.813,0.623-1.064,1.076c-0.26,0.458-0.494,1.194-0.71,2.208l-0.729,3.488H69.065z"/>
			<path fill="#FFFFFF" d="M83.572,50.24c-0.486,0.411-0.944,0.716-1.39,0.905c-0.446,0.192-0.916,0.287-1.423,0.287
				c-0.744,0-1.358-0.22-1.812-0.661c-0.459-0.439-0.688-1.007-0.688-1.694c0-0.456,0.104-0.858,0.312-1.206
				c0.208-0.348,0.477-0.626,0.822-0.838c0.341-0.213,0.755-0.364,1.251-0.457c0.312-0.059,0.898-0.111,1.772-0.146
				c0.867-0.034,1.492-0.125,1.873-0.275c0.102-0.375,0.158-0.688,0.158-0.94c0-0.32-0.118-0.572-0.353-0.756
				c-0.325-0.256-0.787-0.384-1.408-0.384c-0.579,0-1.054,0.128-1.425,0.387c-0.374,0.257-0.638,0.623-0.807,1.1l-1.398-0.126
				c0.28-0.805,0.736-1.423,1.356-1.851c0.619-0.428,1.401-0.64,2.34-0.64c1.009,0,1.798,0.238,2.387,0.717
				c0.449,0.358,0.673,0.821,0.673,1.393c0,0.435-0.064,0.935-0.19,1.508l-0.452,2.019c-0.146,0.641-0.213,1.164-0.213,1.568
				c0,0.254,0.054,0.62,0.168,1.101h-1.401C83.649,50.983,83.596,50.649,83.572,50.24z M84.081,47.136
				c-0.198,0.075-0.402,0.135-0.622,0.173c-0.226,0.042-0.598,0.086-1.115,0.131c-0.808,0.069-1.372,0.163-1.711,0.271
				c-0.325,0.112-0.576,0.288-0.749,0.524c-0.163,0.238-0.249,0.505-0.249,0.794c0,0.391,0.13,0.707,0.401,0.958
				c0.271,0.249,0.65,0.373,1.144,0.373c0.459,0,0.896-0.12,1.324-0.36c0.421-0.243,0.758-0.58,1.003-1.018
				C83.752,48.553,83.943,47.934,84.081,47.136z"/>
			<path fill="#FFFFFF" d="M87.113,51.249l1.703-8.126h1.223l-0.345,1.664c0.417-0.629,0.827-1.093,1.228-1.396
				c0.4-0.297,0.806-0.446,1.228-0.446c0.277,0,0.616,0.097,1.017,0.295l-0.569,1.289c-0.24-0.176-0.499-0.263-0.784-0.263
				c-0.485,0-0.985,0.27-1.491,0.812c-0.51,0.541-0.91,1.51-1.204,2.915l-0.683,3.257H87.113z"/>
			<path fill="#FFFFFF" d="M91.966,54.361l2.346-11.238h1.276l-0.235,1.135c0.475-0.493,0.898-0.838,1.271-1.03
				c0.376-0.188,0.771-0.283,1.193-0.283c0.771,0,1.416,0.282,1.926,0.843c0.507,0.565,0.766,1.37,0.766,2.422
				c0,0.845-0.144,1.618-0.422,2.312c-0.281,0.698-0.63,1.26-1.033,1.679c-0.411,0.426-0.825,0.736-1.238,0.937
				c-0.422,0.197-0.852,0.297-1.285,0.297c-0.973,0-1.731-0.495-2.268-1.485l-0.916,4.414H91.966z M94.703,47.93
				c0,0.606,0.045,1.026,0.127,1.261c0.13,0.335,0.341,0.602,0.633,0.807c0.285,0.202,0.622,0.302,1.003,0.302
				c0.798,0,1.444-0.447,1.932-1.34c0.488-0.896,0.731-1.809,0.731-2.74c0-0.692-0.163-1.223-0.491-1.6
				c-0.329-0.376-0.739-0.56-1.229-0.56c-0.352,0-0.681,0.092-0.982,0.279c-0.299,0.186-0.576,0.465-0.835,0.833
				c-0.262,0.371-0.467,0.821-0.641,1.36C94.785,47.063,94.703,47.534,94.703,47.93z"/>
			<path fill="#FFFFFF" d="M106.486,51.249l2.345-11.213h4.684c0.811,0,1.419,0.094,1.827,0.278
				c0.406,0.188,0.741,0.506,1.004,0.956c0.264,0.452,0.397,0.957,0.397,1.518c0,0.467-0.09,0.938-0.282,1.417
				c-0.188,0.48-0.428,0.876-0.713,1.187c-0.289,0.312-0.582,0.545-0.878,0.703c-0.293,0.156-0.608,0.276-0.944,0.351
				c-0.726,0.169-1.449,0.251-2.18,0.251h-2.81l-0.95,4.553H106.486z M109.203,45.428h2.469c0.962,0,1.667-0.103,2.116-0.311
				c0.446-0.206,0.806-0.52,1.075-0.94c0.269-0.426,0.408-0.876,0.408-1.35c0-0.367-0.075-0.668-0.219-0.899
				c-0.142-0.229-0.341-0.401-0.601-0.511c-0.261-0.11-0.76-0.165-1.5-0.165h-2.878L109.203,45.428z"/>
			<path fill="#FFFFFF" d="M117.094,51.249l1.702-8.126h1.222l-0.348,1.664c0.423-0.629,0.831-1.093,1.233-1.396
				c0.396-0.297,0.807-0.446,1.228-0.446c0.271,0,0.613,0.097,1.018,0.295l-0.568,1.289c-0.241-0.176-0.505-0.263-0.788-0.263
				c-0.484,0-0.982,0.27-1.488,0.812c-0.509,0.541-0.91,1.51-1.198,2.915l-0.696,3.257H117.094z"/>
			<path fill="#FFFFFF" d="M122.569,51.249l1.704-8.126h1.375l-1.689,8.126H122.569z M124.59,41.603l0.33-1.566h1.379l-0.328,1.566
				H124.59z"/>
			<path fill="#FFFFFF" d="M132.025,48.289l1.385,0.146c-0.35,1.015-0.844,1.766-1.479,2.261c-0.643,0.492-1.373,0.737-2.186,0.737
				c-0.883,0-1.596-0.285-2.145-0.855c-0.553-0.575-0.824-1.37-0.824-2.396c0-0.884,0.176-1.759,0.523-2.615
				c0.354-0.858,0.863-1.511,1.518-1.956c0.656-0.443,1.398-0.666,2.244-0.666c0.869,0,1.566,0.245,2.07,0.737
				c0.516,0.492,0.766,1.142,0.766,1.954l-1.357,0.089c-0.008-0.516-0.16-0.915-0.451-1.207c-0.295-0.288-0.676-0.435-1.158-0.435
				c-0.555,0-1.037,0.175-1.441,0.53c-0.41,0.347-0.73,0.884-0.965,1.597c-0.236,0.721-0.352,1.409-0.352,2.07
				c0,0.698,0.158,1.213,0.465,1.563c0.303,0.347,0.678,0.518,1.135,0.518c0.443,0,0.873-0.168,1.283-0.512
				C131.469,49.51,131.791,48.986,132.025,48.289z"/>
			<path fill="#FFFFFF" d="M140.533,48.488l1.348,0.137c-0.199,0.668-0.645,1.305-1.338,1.904c-0.695,0.604-1.529,0.903-2.492,0.903
				c-0.6,0-1.152-0.14-1.656-0.417c-0.498-0.278-0.885-0.682-1.143-1.213c-0.266-0.531-0.4-1.13-0.4-1.811
				c0-0.89,0.211-1.75,0.619-2.583c0.41-0.834,0.943-1.452,1.592-1.858c0.654-0.406,1.359-0.606,2.121-0.606
				c0.971,0,1.738,0.298,2.318,0.9c0.582,0.603,0.875,1.423,0.875,2.463c0,0.397-0.041,0.805-0.107,1.227h-5.982
				c-0.023,0.157-0.029,0.297-0.029,0.424c0,0.762,0.17,1.342,0.523,1.742c0.348,0.399,0.771,0.599,1.275,0.599
				c0.48,0,0.943-0.153,1.404-0.464C139.92,49.525,140.273,49.074,140.533,48.488z M136.506,46.478h4.561
				c0.002-0.144,0.008-0.247,0.008-0.304c0-0.698-0.174-1.229-0.52-1.599c-0.352-0.37-0.793-0.553-1.34-0.553
				c-0.59,0-1.129,0.203-1.621,0.609C137.111,45.041,136.746,45.654,136.506,46.478z"/>
			<path fill="#FFFFFF" d="M143.719,48.471l1.385-0.081c0,0.396,0.061,0.735,0.18,1.016c0.127,0.282,0.352,0.511,0.68,0.693
				c0.328,0.173,0.713,0.262,1.148,0.262c0.615,0,1.076-0.12,1.383-0.363c0.307-0.247,0.455-0.536,0.455-0.868
				c0-0.236-0.094-0.464-0.271-0.681c-0.193-0.213-0.652-0.475-1.381-0.789c-0.732-0.314-1.199-0.535-1.408-0.663
				c-0.342-0.208-0.592-0.455-0.771-0.739c-0.172-0.282-0.258-0.608-0.258-0.975c0-0.641,0.252-1.192,0.762-1.65
				c0.514-0.457,1.227-0.688,2.146-0.688c1.016,0,1.793,0.235,2.326,0.706c0.537,0.471,0.813,1.093,0.83,1.865l-1.355,0.09
				c-0.016-0.492-0.191-0.877-0.518-1.162c-0.326-0.287-0.793-0.432-1.385-0.432c-0.48,0-0.855,0.109-1.115,0.334
				c-0.268,0.214-0.398,0.453-0.398,0.708c0,0.256,0.115,0.477,0.344,0.671c0.152,0.135,0.549,0.337,1.186,0.614
				c1.061,0.459,1.727,0.818,2.004,1.085c0.438,0.425,0.656,0.939,0.656,1.548c0,0.4-0.123,0.793-0.371,1.185
				c-0.242,0.387-0.625,0.698-1.133,0.929c-0.506,0.233-1.1,0.348-1.791,0.348c-0.938,0-1.736-0.229-2.395-0.695
				S143.682,49.518,143.719,48.471z"/>
			<path fill="#FFFFFF" d="M152.115,51.249l0.334-1.567h1.568l-0.346,1.567H152.115z"/>
			<path fill="#FFFFFF" d="M161.646,47.623l1.471-0.136l-0.02,0.389c0,0.435,0.1,0.83,0.297,1.189
				c0.201,0.358,0.531,0.639,0.986,0.833c0.461,0.2,1.01,0.296,1.645,0.296c0.893,0,1.578-0.197,2.047-0.59
				c0.475-0.392,0.709-0.841,0.709-1.347c0-0.352-0.123-0.673-0.371-0.96c-0.256-0.291-0.951-0.677-2.086-1.167
				c-0.893-0.382-1.484-0.674-1.809-0.879c-0.502-0.331-0.881-0.692-1.121-1.082c-0.236-0.39-0.355-0.834-0.355-1.337
				c0-0.576,0.158-1.092,0.473-1.557c0.32-0.465,0.779-0.819,1.389-1.063c0.613-0.244,1.297-0.37,2.064-0.37
				c0.906,0,1.68,0.154,2.305,0.461c0.633,0.307,1.088,0.715,1.365,1.223c0.287,0.512,0.428,0.998,0.428,1.462
				c0,0.047-0.004,0.122-0.01,0.231l-1.443,0.11c0-0.313-0.027-0.561-0.086-0.736c-0.102-0.313-0.258-0.578-0.475-0.794
				c-0.213-0.209-0.508-0.383-0.879-0.512c-0.375-0.129-0.797-0.198-1.262-0.198c-0.813,0-1.451,0.187-1.906,0.554
				c-0.346,0.28-0.516,0.653-0.516,1.115c0,0.276,0.072,0.52,0.215,0.738c0.141,0.218,0.4,0.43,0.771,0.64
				c0.26,0.148,0.895,0.439,1.887,0.877c0.809,0.359,1.363,0.641,1.666,0.844c0.41,0.27,0.725,0.596,0.943,0.981
				c0.219,0.388,0.328,0.821,0.328,1.313c0,0.604-0.189,1.167-0.553,1.679c-0.369,0.512-0.881,0.907-1.533,1.186
				c-0.652,0.286-1.4,0.423-2.244,0.423c-1.266,0-2.303-0.275-3.109-0.829C162.057,50.055,161.65,49.06,161.646,47.623z"/>
			<path fill="#FFFFFF" d="M171.818,51.249l1.697-8.126h1.385l-0.285,1.34c0.518-0.575,0.98-0.97,1.385-1.192
				c0.406-0.215,0.846-0.326,1.318-0.326c0.504,0,0.93,0.131,1.266,0.399c0.338,0.267,0.563,0.644,0.672,1.119
				c0.414-0.506,0.846-0.89,1.305-1.14c0.453-0.252,0.938-0.379,1.441-0.379c0.68,0,1.188,0.159,1.523,0.479
				c0.34,0.318,0.508,0.774,0.508,1.354c0,0.252-0.057,0.665-0.174,1.24l-1.098,5.231h-1.381l1.115-5.37
				c0.098-0.437,0.146-0.75,0.146-0.941c0-0.264-0.086-0.475-0.252-0.628c-0.17-0.151-0.406-0.227-0.713-0.227
				c-0.408,0-0.832,0.122-1.26,0.375c-0.438,0.248-0.764,0.579-0.996,0.981c-0.238,0.404-0.451,1.03-0.625,1.869l-0.828,3.94h-1.387
				l1.152-5.485c0.078-0.371,0.117-0.635,0.117-0.794c0-0.267-0.082-0.478-0.248-0.643c-0.168-0.164-0.379-0.244-0.645-0.244
				c-0.393,0-0.805,0.122-1.234,0.375c-0.43,0.248-0.781,0.598-1.051,1.043c-0.271,0.445-0.5,1.083-0.668,1.909l-0.803,3.839
				H171.818z"/>
			<path fill="#FFFFFF" d="M190.666,50.24c-0.48,0.411-0.945,0.716-1.383,0.905c-0.445,0.192-0.92,0.287-1.43,0.287
				c-0.744,0-1.354-0.22-1.809-0.661c-0.463-0.439-0.686-1.007-0.686-1.694c0-0.456,0.102-0.858,0.307-1.206s0.48-0.626,0.826-0.838
				c0.338-0.213,0.76-0.364,1.252-0.457c0.307-0.059,0.898-0.111,1.77-0.146c0.869-0.034,1.494-0.125,1.873-0.275
				c0.107-0.375,0.16-0.688,0.16-0.94c0-0.32-0.121-0.572-0.352-0.756c-0.324-0.256-0.793-0.384-1.408-0.384
				c-0.58,0-1.059,0.128-1.428,0.387c-0.373,0.257-0.639,0.623-0.807,1.1l-1.396-0.126c0.283-0.805,0.732-1.423,1.359-1.851
				c0.615-0.428,1.396-0.64,2.34-0.64c1.006,0,1.799,0.238,2.385,0.717c0.449,0.358,0.672,0.821,0.672,1.393
				c0,0.435-0.063,0.935-0.189,1.508l-0.451,2.019c-0.146,0.641-0.215,1.164-0.215,1.568c0,0.254,0.057,0.62,0.168,1.101h-1.396
				C190.748,50.983,190.695,50.649,190.666,50.24z M191.178,47.136c-0.193,0.075-0.404,0.135-0.627,0.173
				c-0.219,0.042-0.59,0.086-1.104,0.131c-0.809,0.069-1.383,0.163-1.711,0.271c-0.33,0.112-0.58,0.288-0.75,0.524
				c-0.17,0.238-0.252,0.505-0.252,0.794c0,0.391,0.135,0.707,0.402,0.958c0.27,0.249,0.645,0.373,1.146,0.373
				c0.453,0,0.898-0.12,1.318-0.36c0.424-0.243,0.762-0.58,1.002-1.018C190.854,48.553,191.035,47.934,191.178,47.136z"/>
			<path fill="#FFFFFF" d="M194.217,51.249l1.697-8.126h1.221l-0.344,1.664c0.418-0.629,0.83-1.093,1.227-1.396
				c0.398-0.297,0.809-0.446,1.23-0.446c0.271,0,0.609,0.097,1.018,0.295l-0.568,1.289c-0.238-0.176-0.5-0.263-0.785-0.263
				c-0.49,0-0.984,0.27-1.498,0.812c-0.506,0.541-0.904,1.51-1.193,2.915l-0.691,3.257H194.217z"/>
			<path fill="#FFFFFF" d="M202.98,50.126l-0.229,1.132c-0.33,0.085-0.656,0.129-0.969,0.129c-0.547,0-0.984-0.134-1.313-0.407
				c-0.246-0.204-0.365-0.479-0.365-0.831c0-0.179,0.066-0.589,0.195-1.231l0.986-4.719h-1.09l0.219-1.075h1.096l0.418-1.992
				l1.582-0.959l-0.619,2.951h1.365l-0.232,1.075h-1.352l-0.945,4.485c-0.117,0.573-0.17,0.917-0.17,1.027
				c0,0.165,0.047,0.289,0.139,0.376c0.088,0.085,0.248,0.129,0.461,0.129C202.467,50.216,202.736,50.187,202.98,50.126z"/>
			<path fill="#FFFFFF" d="M212.109,51.249l2.076-9.936h-3.678l0.264-1.277h8.826l-0.268,1.277h-3.646l-2.07,9.936H212.109z"/>
			<path fill="#FFFFFF" d="M217.793,51.249l1.697-8.126h1.221l-0.342,1.664c0.422-0.629,0.832-1.093,1.229-1.396
				c0.4-0.297,0.807-0.446,1.232-0.446c0.271,0,0.613,0.097,1.016,0.295l-0.566,1.289c-0.242-0.176-0.506-0.263-0.793-0.263
				c-0.484,0-0.979,0.27-1.486,0.812c-0.51,0.541-0.908,1.51-1.201,2.915l-0.689,3.257H217.793z"/>
			<path fill="#FFFFFF" d="M228.799,50.24c-0.477,0.411-0.943,0.716-1.383,0.905c-0.445,0.192-0.92,0.287-1.418,0.287
				c-0.754,0-1.361-0.22-1.814-0.661c-0.463-0.439-0.689-1.007-0.689-1.694c0-0.456,0.102-0.858,0.307-1.206
				c0.209-0.348,0.479-0.626,0.822-0.838c0.342-0.213,0.762-0.364,1.256-0.457c0.311-0.059,0.902-0.111,1.768-0.146
				c0.875-0.034,1.496-0.125,1.873-0.275c0.107-0.375,0.16-0.688,0.16-0.94c0-0.32-0.119-0.572-0.352-0.756
				c-0.324-0.256-0.793-0.384-1.406-0.384c-0.582,0-1.057,0.128-1.428,0.387c-0.371,0.257-0.635,0.623-0.807,1.1l-1.402-0.126
				c0.287-0.805,0.74-1.423,1.359-1.851s1.4-0.64,2.344-0.64c1.002,0,1.799,0.238,2.385,0.717c0.451,0.358,0.672,0.821,0.672,1.393
				c0,0.435-0.061,0.935-0.188,1.508l-0.453,2.019c-0.139,0.641-0.217,1.164-0.217,1.568c0,0.254,0.059,0.62,0.17,1.101h-1.395
				C228.881,50.983,228.834,50.649,228.799,50.24z M229.311,47.136c-0.191,0.075-0.398,0.135-0.623,0.173
				c-0.219,0.042-0.59,0.086-1.107,0.131c-0.809,0.069-1.381,0.163-1.705,0.271c-0.336,0.112-0.586,0.288-0.756,0.524
				c-0.166,0.238-0.248,0.505-0.248,0.794c0,0.391,0.135,0.707,0.4,0.958c0.268,0.249,0.646,0.373,1.139,0.373
				c0.465,0,0.902-0.12,1.324-0.36c0.428-0.243,0.758-0.58,1.01-1.018C228.98,48.553,229.17,47.934,229.311,47.136z"/>
			<path fill="#FFFFFF" d="M237.826,50.072c-0.791,0.906-1.615,1.36-2.479,1.36c-0.77,0-1.412-0.281-1.924-0.853
				c-0.516-0.569-0.768-1.395-0.768-2.472c0-0.994,0.201-1.898,0.604-2.713c0.41-0.82,0.916-1.432,1.527-1.84
				c0.604-0.41,1.217-0.611,1.826-0.611c1.014,0,1.773,0.483,2.287,1.459l0.92-4.367h1.381l-2.342,11.213h-1.277L237.826,50.072z
				 M234.035,47.847c0,0.566,0.051,1.011,0.166,1.337c0.111,0.327,0.305,0.598,0.572,0.816c0.273,0.215,0.59,0.32,0.975,0.32
				c0.623,0,1.193-0.323,1.703-0.977c0.68-0.867,1.027-1.937,1.027-3.213c0-0.641-0.168-1.143-0.512-1.506
				c-0.338-0.361-0.756-0.542-1.27-0.542c-0.326,0-0.629,0.073-0.906,0.22c-0.27,0.15-0.541,0.397-0.809,0.755
				c-0.268,0.354-0.494,0.805-0.674,1.35C234.123,46.954,234.035,47.434,234.035,47.847z"/>
			<path fill="#FFFFFF" d="M241.32,51.249l1.697-8.126h1.381l-1.693,8.126H241.32z M243.34,41.603l0.328-1.566h1.377l-0.328,1.566
				H243.34z"/>
			<path fill="#FFFFFF" d="M245.168,51.249l1.699-8.126h1.252l-0.297,1.42c0.545-0.556,1.055-0.964,1.529-1.217
				c0.469-0.255,0.959-0.382,1.455-0.382c0.652,0,1.166,0.178,1.549,0.535c0.373,0.357,0.557,0.83,0.557,1.429
				c0,0.301-0.063,0.775-0.193,1.422l-1.037,4.919h-1.383l1.078-5.147c0.105-0.499,0.164-0.87,0.164-1.11
				c0-0.268-0.094-0.488-0.287-0.656c-0.184-0.17-0.447-0.252-0.805-0.252c-0.707,0-1.338,0.256-1.893,0.767
				c-0.549,0.508-0.961,1.381-1.221,2.622l-0.785,3.777H245.168z"/>
			<path fill="#FFFFFF" d="M254.115,51.981l1.404,0.134c-0.018,0.315,0.023,0.552,0.109,0.711c0.088,0.158,0.221,0.279,0.41,0.365
				c0.248,0.114,0.58,0.167,0.975,0.167c0.84,0,1.438-0.215,1.809-0.647c0.238-0.29,0.457-0.927,0.664-1.899l0.137-0.655
				c-0.717,0.729-1.486,1.093-2.293,1.093c-0.824,0-1.51-0.303-2.063-0.906c-0.557-0.604-0.828-1.462-0.828-2.565
				c0-0.913,0.215-1.752,0.652-2.519c0.432-0.762,0.953-1.341,1.553-1.73c0.604-0.39,1.223-0.584,1.857-0.584
				c1.07,0,1.887,0.502,2.465,1.514l0.273-1.335h1.271l-1.637,7.842c-0.18,0.863-0.41,1.532-0.705,2.019
				c-0.287,0.478-0.686,0.854-1.205,1.12c-0.521,0.264-1.121,0.396-1.799,0.396c-0.65,0-1.215-0.082-1.689-0.254
				c-0.467-0.166-0.82-0.412-1.051-0.74c-0.23-0.321-0.348-0.691-0.348-1.109C254.078,52.268,254.092,52.133,254.115,51.981z
				 M255.848,47.653c0,0.557,0.045,0.976,0.16,1.256c0.148,0.391,0.367,0.691,0.648,0.896c0.289,0.21,0.598,0.313,0.947,0.313
				c0.453,0,0.906-0.162,1.355-0.479c0.451-0.32,0.809-0.813,1.09-1.479c0.273-0.669,0.416-1.31,0.416-1.912
				c0-0.67-0.182-1.2-0.559-1.596c-0.365-0.396-0.818-0.593-1.367-0.593c-0.338,0-0.666,0.089-0.984,0.272
				c-0.309,0.178-0.609,0.455-0.883,0.825c-0.27,0.369-0.48,0.812-0.617,1.324C255.914,46.998,255.848,47.389,255.848,47.653z"/>
			<path fill="#FFFFFF" d="M263.602,51.249l0.328-1.567h1.566l-0.336,1.567H263.602z"/>
		</g>
	</g>
	<g>
		<path fill="#2A3052" d="M19.092,33.61c0,0,0.301,2.251,2.196,3.293l-0.504-0.94C20.784,35.963,21.748,33.432,19.092,33.61z"/>
		<path fill="#2A3052" d="M43.626,9.504C34.126,0,18.679,0,9.181,9.501c-9.497,9.5-9.497,24.956,0,34.458
			c9.498,9.5,24.951,9.497,34.445-0.002C53.134,34.457,53.134,19.001,43.626,9.504z M41.108,41.438
			c-0.267,0.261-0.526,0.514-0.796,0.757c-5.852,4.769-10.359,2.396-10.41,2.396c-3.055-0.61-4.571-0.62-5.428-1.193
			c-0.215-0.145-0.907-0.516-1.065-0.426c-0.624,0.372-1.481,0.562-2.364-0.141c-0.08-0.064-0.152-0.135-0.221-0.2
			c-0.971-0.969-0.641-1.969-0.318-2.316c0.224-0.228-0.171-0.866-0.171-0.866s-1.146-1.704-1.931-2.73
			c-0.863-1.125-0.98-3.358-0.991-3.388l-0.01-0.031c-0.873-1.036-0.964-1.354-1.265-1.86c-0.176-0.298-0.446-0.578-0.675-0.818
			c-0.157-0.158-0.304-0.307-0.406-0.446c-0.024-0.03-0.029-0.074-0.02-0.143c0.079-0.483,1.119-1.55,1.343-1.698
			c0.275-0.179,1.46-0.899,1.46-0.899s0.667-1.047,1.801-1.047c1.022,0.005,1.646-0.057,3.41,0.519l0.734,0.232
			c1.23,0.395,2.313,0.859,3.175,1.23c0.731,0.316,1.315,0.569,1.764,0.688c1.521,0.399,4.206-0.831,4.771-1.352
			c0.929-0.845,1.329-1.411,1.335-1.875c0.008-0.261-0.107-0.487-0.371-0.763c-0.136-0.126-0.313-0.361-0.534-0.585
			c-0.035-0.035-0.072-0.076-0.117-0.109c-2.576-2.735-2.13-4.45-2.127-4.479c0.109-1.23-0.595-2.02-1.353-2.838l-0.125-0.154
			c-0.04-0.036-0.088-0.099-0.088-0.099c1.097,0.18,1.844,0.621,3.986,0.859c1.217,0.132,0.833,0.12,1.805,0.096
			c1.339-0.043,2.401-0.16,2.473-0.465c-0.13-0.11-0.723,0.033-3.567-1.054c-1.316-0.506-1.524-0.581-2.362-0.857
			c-1.076-0.363-2.242-0.866-2.242-0.866c4.641,1.218,6.157,1.694,8.28,1.724c0.82,0.015,1.308-0.084,1.596-0.143
			c0.302-0.055,1.239-0.268,1.345-0.592c0.032-0.056-0.898,0.153-2.62-0.414c-5.416-1.79-5.876-2.686-8.878-3.853
			c-1.046-0.406-1.388-0.631-4.55-1.446c-1.45-0.371-3.641-0.158-3.937,0.028c-4.106-0.965-5.039-0.859-6.244-0.6
			c8.032-5.151,18.88-4.223,25.906,2.805c0.952,0.954,1.796,1.981,2.535,3.068l0.099,0.15c2.255,3.375,3.458,7.336,3.458,11.484
			C47.2,32.285,45.036,37.504,41.108,41.438z M27.472,17.958c2.039,0.727,2.692,2.898,2.692,2.898
			c-2.591,0.591-2.044-2.056-2.044-2.056L27.472,17.958z"/>
	</g>
</g>
</svg>
