<?xml version="1.0" encoding="utf-8"?>
<!-- Generator: Adobe Illustrator 14.0.0, SVG Export Plug-In . SVG Version: 6.00 Build 43363)  -->
<!DOCTYPE svg PUBLIC "-//W3C//DTD SVG 1.1//EN" "http://www.w3.org/Graphics/SVG/1.1/DTD/svg11.dtd">
<svg version="1.1" id="Layer_1" xmlns="http://www.w3.org/2000/svg" xmlns:xlink="http://www.w3.org/1999/xlink" x="0px" y="0px"
	 width="300px" height="300px" viewBox="0 0 300 300" enable-background="new 0 0 300 300" xml:space="preserve">
<g>
	<path fill="#FFFFFF" d="M254.303,45.672c-57.53-57.56-151.112-57.56-208.659-0.021c-57.524,57.529-57.524,151.157,0,208.684
		c57.547,57.56,151.16,57.55,208.654-0.01C311.899,196.809,311.899,103.181,254.303,45.672z"/>
	<g>
		<path fill="#F2F2F2" d="M108.857,188.699c0,0,1.698,12.654,12.348,18.515l-2.833-5.284
			C118.377,201.93,123.793,187.693,108.857,188.699z"/>
		<path fill="#F2F2F2" d="M246.837,53.137C193.41-0.301,106.537-0.301,53.12,53.125c-53.413,53.417-53.413,140.341,0,193.767
			c53.417,53.428,140.319,53.407,193.717-0.01C300.318,193.466,300.318,106.542,246.837,53.137z M232.678,232.713
			c-1.498,1.461-2.959,2.887-4.474,4.254c-32.909,26.818-58.258,13.478-58.548,13.478c-17.182-3.432-25.705-3.483-30.529-6.706
			c-1.21-0.811-5.097-2.901-5.988-2.394c-3.51,2.091-8.334,3.16-13.295-0.789c-0.445-0.357-0.858-0.76-1.242-1.126
			c-5.469-5.449-3.608-11.067-1.791-13.027c1.257-1.278-0.964-4.872-0.964-4.872s-6.449-9.581-10.854-15.347
			c-4.856-6.332-5.517-18.888-5.573-19.056l-0.063-0.177c-4.909-5.824-5.417-7.616-7.109-10.455
			c-0.995-1.68-2.508-3.252-3.798-4.604c-0.886-0.885-1.707-1.724-2.283-2.509c-0.132-0.168-0.162-0.413-0.11-0.8
			c0.445-2.719,6.291-8.716,7.554-9.55c1.551-1.004,8.209-5.055,8.209-5.055s3.75-5.888,10.132-5.888
			c5.752,0.033,9.256-0.317,19.184,2.913l4.122,1.31c6.921,2.216,13.014,4.83,17.858,6.921c4.112,1.774,7.398,3.203,9.923,3.865
			c8.559,2.251,23.65-4.673,26.832-7.596c5.228-4.75,7.479-7.936,7.513-10.545c0.042-1.466-0.608-2.744-2.086-4.294
			c-0.771-0.705-1.76-2.032-3.007-3.289c-0.198-0.198-0.404-0.429-0.66-0.607c-14.485-15.384-11.977-25.028-11.96-25.185
			c0.618-6.92-3.348-11.362-7.605-15.965l-0.704-0.864c-0.224-0.204-0.497-0.561-0.497-0.561c6.172,1.011,10.374,3.494,22.422,4.834
			c6.842,0.738,4.684,0.675,10.147,0.54c7.533-0.241,13.498-0.901,13.907-2.609c-0.733-0.624-4.064,0.18-20.059-5.927
			c-7.406-2.84-8.574-3.258-13.283-4.821c-6.053-2.041-12.611-4.865-12.611-4.865c26.094,6.846,34.629,9.527,46.567,9.691
			c4.616,0.089,7.36-0.472,8.975-0.802c1.696-0.303,6.961-1.499,7.563-3.321c0.183-0.32-5.056,0.859-14.737-2.336
			c-30.457-10.064-33.05-15.097-49.929-21.665c-5.889-2.284-7.807-3.541-25.59-8.13c-8.151-2.095-20.473-0.89-22.144,0.156
			c-23.092-5.425-28.336-4.834-35.114-3.372c45.172-28.966,106.181-23.749,145.701,15.767c5.354,5.367,10.1,11.145,14.261,17.264
			l0.553,0.836c12.684,18.979,19.451,41.255,19.451,64.581C266.938,181.246,254.768,210.595,232.678,232.713z M155.984,100.686
			c11.462,4.085,15.146,16.291,15.146,16.291c-14.576,3.326-11.504-11.557-11.504-11.557L155.984,100.686z"/>
	</g>
</g>
</svg>
