<svg xmlns="http://www.w3.org/2000/svg" width="20" height="20" viewBox="0 0 20 20">
  <g fill="none" fill-rule="evenodd">
    <rect width="20" height="20" fill="none"/>
    <g fill="#2A3052" transform="translate(3 3)">
      <path d="M4.05864772,10.5881597 L3.96565789,10.5881597 C1.90358816,10.5916328 0.184234309,8.96390779 0.0137311841,6.84684145 C-0.156771941,4.7297751 1.27867882,2.83239362 3.31310798,2.48571907 C4.29476577,0.740866197 6.20012412,-0.222868908 8.14053573,0.0439938228 C10.0809473,0.310856554 11.6741844,1.75574974 12.1771711,3.70478418 C13.9107218,3.99533956 15.1352245,5.6113735 14.9880145,7.4143868 C14.8408044,9.2174001 13.3714727,10.6000077 11.6151664,10.5881597 L11.5525941,10.5881597 L11.5525941,9.68122738 L11.5964329,9.68109808 C12.4888104,9.71384902 13.3303615,9.25365832 13.8040821,8.47387535 C14.2778026,7.69409239 14.3117231,6.71318475 13.8930661,5.90065085 C13.4744092,5.08811695 12.6667786,4.56740002 11.7744011,4.53464908 L11.4621762,4.51213337 L11.3997313,4.1904803 C11.0706846,2.4807448 9.72928238,1.17160096 8.05430581,0.925506607 C6.37932925,0.679412256 4.7361642,1.55005136 3.95629115,3.09685989 L3.8501347,3.30593438 L3.62221057,3.33166663 C1.99609499,3.53101612 0.800142372,4.99766193 0.890110859,6.68215272 C0.980079347,8.3666435 2.32500627,9.68926151 3.96253565,9.7036138 L4.05864772,9.70333032 L4.05864772,10.5881597 Z"/>
      <path d="M6.8034056 12.0588235L6.8034056 7.94117647 5.54953561 7.94117647 5.54953561 12.0588235 4.85294118 12.0588235 6.17647059 14.7058824 7.5 12.0588235 6.8034056 12.0588235zM8.63777091 8.82352941L9.89164089 8.82352941 9.89164089 13.2352941 8.63777091 13.2352941 8.63777091 8.82352941zM9.26470588 6.17647059L10.5882353 8.82352941 7.94117647 8.82352941 9.26470588 6.17647059z"/>
    </g>
  </g>
</svg>