<svg version="1" xmlns="http://www.w3.org/2000/svg" width="140" height="140" viewBox="0 0 140 140"><path fill="#A7A9AC" d="M138 2v136H2V2h136m2-2H0v140h140V0z"/><path fill="#2A3052" d="M63.3 56.9v13.3c.5-.3 1-.5 1.5-.7V56.9h10.4v12.6c.5.2 1 .4 1.5.7V55.4H63.3v1.5zM70 46.4c3.1 0 5.6-2.5 5.6-5.6 0-3.1-2.5-5.6-5.6-5.6s-5.6 2.5-5.6 5.6c0 3.1 2.5 5.6 5.6 5.6zm0-9.6c2.2 0 4 1.8 4 4s-1.8 4-4 4-4-1.8-4-4 1.8-4 4-4zM116.4 106.5v-6.6h-10.1v-43h10.1v-9.2h-.1L70 25 23.5 47.7h.1v9.2h10.1v43H23.6v6.6h-6.1v8.3h34.1c-.2-.4-.3-.9-.3-1.4v-.1H19V108h6v-6.5h10.1v-46h-10v-6.8l44.9-22 45 22v6.7h-10.1v46H115v6.5h6v5.3H89v.1c0 .5-.1 1-.3 1.4h33.8v-8.3h-6.1zM63.6 86.5h1.2V79c-.7 1-1.2 2.3-1.2 3.6v3.9zM54.2 56.9v29.8c.5-.2 1-.3 1.5-.3v-31H42.3v46h9.1v-1.5h-7.6v-43h10.4zM75.2 86.5h1.5v-3.9c0-1.5-.6-2.9-1.5-3.9v7.8z"/><path fill="#E88024" d="M84.7 113.4c0 .1-.1.1-.1.1H55.7c-.1 0-.1-.1-.1-.1V90.8c0-.1.1-.1.1-.1h28.9c.1 0 .1.1.1.1v2.5c.5-.4 1-.8 1.5-1.1v-1.4c0-.9-.7-1.6-1.6-1.6h-2.9v-6.6c0-6.2-5-11.2-11.2-11.2h-.8c-6.2 0-11.2 5-11.2 11.2v6.6h-2.9c-.9 0-1.6.7-1.6 1.6v22.6c0 .9.7 1.6 1.6 1.6h28.9c.9 0 1.6-.7 1.6-1.6v-2.8c-.5-.3-1.1-.7-1.5-1.1v3.9zM60.9 82.6c0-4.9 4-8.9 8.9-8.9h.8c4.9 0 8.9 4 8.9 8.9v6.6H60.9v-6.6zM67.7 109.1h4.8v-5.7c1.1-.8 1.8-2.1 1.8-3.5 0-2.4-1.9-4.3-4.3-4.3s-4.3 1.9-4.3 4.3c0 1.4.7 2.7 1.8 3.5v5.7zm-.3-9.2c0-1.5 1.2-2.8 2.8-2.8 1.5 0 2.8 1.2 2.8 2.8 0 1.2-.8 2.2-1.8 2.6v5.1h-1.8v-5.1c-1.3-.4-2-1.4-2-2.6z"/><path fill="#2A3052" d="M85.8 55.4h-1.5v25.3c.1.6.1 1.2.1 1.8v3.9h.2c.4 0 .8.1 1.2.2V56.9h10.4v34.9l1.5.9V55.4H85.8z"/><path fill="#E88024" d="M88.9 99.6c-.4-.3-.9-.6-1.5-.6s-1.1.2-1.5.6c-.8.8-.8 2.1 0 2.9l3 3c.4.4.9.6 1.5.6s1.1-.2 1.5-.6l5.4-5.4c.8-.8.8-2.1 0-2.9-.4-.4-.9-.6-1.5-.6s-1.1.2-1.5.6l-3.9 4-1.5-1.6zm6.3-1.5c.2-.2.4-.3.7-.3.2 0 .5.1.7.3.4.4.4 1 0 1.3l-5.4 5.4c-.2.2-.4.3-.7.3-.2 0-.5-.1-.7-.3l-3-3c-.4-.4-.4-1 0-1.3.2-.2.4-.3.7-.3.2 0 .5.1.7.3l2.4 2.4 4.6-4.8zM82.9 101.4c0 4.8 3.9 8.8 8.8 8.8s8.8-3.9 8.8-8.8-3.9-8.8-8.8-8.8-8.8 4-8.8 8.8zm16.4 0c0 4.2-3.4 7.6-7.6 7.6s-7.6-3.4-7.6-7.6 3.4-7.6 7.6-7.6 7.6 3.4 7.6 7.6z"/></svg>