<svg id="Layer_1" data-name="Layer 1" xmlns="http://www.w3.org/2000/svg" viewBox="0 0 50 50"><defs><style>.cls-1{fill:#2a3052}</style></defs><title>blog</title><path class="cls-1" d="M28.6 26.79h-6.1a1 1 0 1 0 0 2.06h6.1a1 1 0 0 0 0-2.06zM22.5 22.67h3a1 1 0 1 0 0-2.07h-3a1 1 0 0 0 0 2.07z"/><path class="cls-1" d="M25 9a16 16 0 1 0 16 16A16 16 0 0 0 25 9zm9.06 18.9a5.44 5.44 0 0 1-5.41 5.41h-6.22A5.42 5.42 0 0 1 17 27.9v-6.31a5.43 5.43 0 0 1 5.41-5.42h3.78a6 6 0 0 1 4.18 3 4.23 4.23 0 0 1 .51 1.83c.09.68.14 1.19.44 1.46s2 .13 2.33.37l.24.19.14.3v.24z"/></svg>