<?xml version="1.0" encoding="utf-8"?>
<!-- Generator: Adobe Illustrator 19.1.0, SVG Export Plug-In . SVG Version: 6.00 Build 0)  -->
<svg version="1.1" id="Layer_1" xmlns="http://www.w3.org/2000/svg" xmlns:xlink="http://www.w3.org/1999/xlink" x="0px" y="0px"
	 viewBox="0 0 14 14" style="enable-background:new 0 0 14 14;" xml:space="preserve">
<style type="text/css">
	.st0{fill:#FFFFFF;}
</style>
<g>
	<polygon class="st0" points="10.6,6.5 11.5,7 9.6,8 8.6,8.5 7,9.4 5.4,8.5 4.4,8 2.5,7 3.4,6.5 2.4,6 0.5,7 3.4,8.5 4.4,9.1 
		7,10.4 9.6,9.1 10.6,8.5 13.5,7 11.6,6 	"/>
	<path class="st0" d="M2.9,5.2l0.5,0.3l1,0.5l0.5,0.3l0.5,0.3L6.3,7L7,7.4L7.7,7l0.9-0.5l0.5-0.3L9.6,6l1-0.5l0.5-0.3l0.5-0.3l1.9-1
		L7,0.5L0.5,3.9l1.9,1L2.9,5.2z M7,1.6l4.5,2.4l-0.9,0.5l-0.5,0.3L9.6,4.9l-1,0.5L8.1,5.7L7.6,6L7,6.3L6.4,6L5.9,5.7L5.4,5.5l-1-0.5
		L3.9,4.7L3.4,4.4L2.5,3.9L7,1.6z"/>
	<polygon class="st0" points="10.6,9.6 11.5,10.1 7,12.4 2.5,10.1 3.4,9.6 2.4,9.1 0.5,10.1 7,13.5 13.5,10.1 11.6,9.1 	"/>
</g>
</svg>
