<?xml version="1.0" encoding="UTF-8" standalone="no"?>
<svg width="30px" height="30px" viewBox="0 0 30 30" version="1.1" xmlns="http://www.w3.org/2000/svg" xmlns:xlink="http://www.w3.org/1999/xlink">
    <!-- Generator: Sketch 3.8.3 (29802) - http://www.bohemiancoding.com/sketch -->
    <title>blogger</title>
    <desc>Created with Sketch.</desc>
    <defs>
        <rect id="path-1" x="1" y="1" width="28" height="28"></rect>
    </defs>
    <g id="Page-1" stroke="none" stroke-width="1" fill="none" fill-rule="evenodd">
        <g id="chart-sharing" transform="translate(-214.000000, -114.000000)">
            <g id="1-copy-2" transform="translate(20.000000, 20.000000)">
                <g id="controls" transform="translate(6.000000, 33.000000)">
                    <g id="export-picker" transform="translate(86.000000, 43.000000)">
                        <g id="drawing-tools-types-2-copy" transform="translate(0.000000, 18.000000)">
                            <g id="blogger" transform="translate(102.000000, 0.000000)">
                                <rect id="Rectangle-131" fill="#263051" x="0" y="0" width="30" height="30"></rect>
                                <mask id="mask-2" fill="white">
                                    <use xlink:href="#path-1"></use>
                                </mask>
                                <use id="Rectangle-131-Copy" fill="#263051" xlink:href="#path-1"></use>
                                <path d="M22.8951158,17.833293 C22.8951158,20.6866069 20.5819811,23 17.7284088,23 L12.166707,23 C9.31339307,23 7,20.6866069 7,17.833293 L7,12.166707 C7,9.31313474 9.31339307,7 12.166707,7 L14.7740857,7 C17.627658,7 19.9407928,9.31313474 19.9407928,12.166707 L19.9420844,12.1780738 C19.9800597,12.714378 20.4269799,13.1375313 20.9728425,13.1375313 L20.991701,13.1364979 L21.8633245,13.1364979 C22.4339872,13.1364979 22.8966659,13.5991766 22.8966659,14.1698393 L22.8951158,17.833293 Z M15.9570033,12.1827238 C15.9570033,12.7314281 15.5124082,13.1760233 14.9639622,13.1760233 L12.0383144,13.1760233 C11.4898684,13.1760233 11.0452733,12.7314281 11.0452733,12.1827238 C11.0452733,11.6342779 11.4898684,11.1896827 12.0383144,11.1896827 L14.9639622,11.1896827 C15.5124082,11.1896827 15.9570033,11.6342779 15.9570033,12.1827238 Z M18.8449342,17.9451522 C18.8449342,18.4638896 18.4243643,18.8847178 17.9056269,18.8847178 L12.0323726,18.8847178 C11.5136353,18.8847178 11.0930653,18.4638896 11.0930653,17.9451522 C11.0930653,17.4264148 11.5136353,17.0055865 12.0323726,17.0055865 L17.9056269,17.0055865 C18.4243643,17.0055865 18.8449342,17.4264148 18.8449342,17.9451522 Z" id="Combined-Shape" fill="#FFFFFF" mask="url(#mask-2)"></path>
                            </g>
                        </g>
                    </g>
                </g>
            </g>
        </g>
    </g>
</svg>