<?xml version="1.0" encoding="utf-8"?>
<!-- Generator: Adobe Illustrator 19.1.0, SVG Export Plug-In . SVG Version: 6.00 Build 0)  -->
<svg version="1.1" id="Layer_1" xmlns="http://www.w3.org/2000/svg" xmlns:xlink="http://www.w3.org/1999/xlink" x="0px" y="0px"
	 viewBox="0 0 14 14" style="enable-background:new 0 0 14 14;" xml:space="preserve">
<style type="text/css">
	.st0{fill:#FFFFFF;}
</style>
<g>
	<path class="st0" d="M2.9,0.5H2v5.9H0.5V10H2v3.5h0.9V10h1.5V6.4H2.9V0.5z M3.5,7.3v1.8H2.9H2H1.4V7.3H2h0.9H3.5z"/>
	<path class="st0" d="M7.5,0.5H6.5v1.2H5v4.6h1.5v7.1h0.9V6.4h1.4V1.7H7.5V0.5z M8,2.7v2.8H7.5H6.5H5.9V2.7h0.6h0.9H8z"/>
	<path class="st0" d="M12,9V0.5h-0.9V9H9.6v4.1h1.5v0.4H12v-0.4h1.5V9H12z M12.6,12.1H12h-0.9h-0.6V9.9h0.6H12h0.6V12.1z"/>
</g>
</svg>
