<svg id="Layer_1" data-name="Layer 1" xmlns="http://www.w3.org/2000/svg" viewBox="0 0 50 50"><defs><style>.cls-1{fill:none;}.cls-1,.cls-2{stroke:#2a3052;stroke-miterlimit:10;stroke-width:2px;}.cls-2{fill:#f2f2f2;}.cls-3{fill:#2a3052;}</style></defs><title>comparison</title><line class="cls-1" x1="8.5" y1="12.65" x2="41.5" y2="12.65"/><line class="cls-1" x1="16.69" y1="39.35" x2="33.31" y2="39.35"/><circle class="cls-2" cx="25" cy="12.65" r="2"/><path class="cls-3" d="M14,17.78l3.43,8.15a3.47,3.47,0,0,1-6.9,0L14,17.78m0-5.13L8.52,25.57A5.47,5.47,0,0,0,14,31h0a5.47,5.47,0,0,0,5.47-5.47L14,12.65Z"/><path class="cls-3" d="M19.46,25.57A5.47,5.47,0,0,1,14,31h0a5.47,5.47,0,0,1-5.47-5.47Z"/><path class="cls-3" d="M36,17.78l3.43,8.15a3.47,3.47,0,0,1-6.9,0L36,17.78m0-5.13-5.5,12.92A5.47,5.47,0,0,0,36,31h0a5.47,5.47,0,0,0,5.47-5.47L36,12.65Z"/><path class="cls-3" d="M41.48,25.57A5.47,5.47,0,0,1,36,31h0a5.47,5.47,0,0,1-5.47-5.47Z"/><line class="cls-1" x1="25" y1="14.65" x2="25" y2="39.35"/></svg>