<?xml version="1.0" encoding="UTF-8"?>
<svg width="20px" height="20px" viewBox="0 0 20 20" version="1.1" xmlns="http://www.w3.org/2000/svg" xmlns:xlink="http://www.w3.org/1999/xlink">
    <!-- Generator: Sketch 46.2 (44496) - http://www.bohemiancoding.com/sketch -->
    <title>Buttons/create</title>
    <desc>Created with Sketch.</desc>
    <defs></defs>
    <g id="Symbols" stroke="none" stroke-width="1" fill="none" fill-rule="evenodd">
        <g id="Buttons/create">
            <rect id="Rectangle-5" fill="#2E8836" x="0" y="0" width="20" height="20" rx="3"></rect>
            <path d="M10.4,9.6 L10.4,6.4 C10.4,6.1790861 10.2209139,6 10,6 C9.7790861,6 9.6,6.1790861 9.6,6.4 L9.6,6.4 L9.6,9.6 L6.4,9.6 L6.4,9.6 C6.1790861,9.6 6,9.7790861 6,10 C6,10.2209139 6.1790861,10.4 6.4,10.4 L9.6,10.4 L9.6,13.6 C9.6,13.8209139 9.7790861,14 10,14 C10.2209139,14 10.4,13.8209139 10.4,13.6 L10.4,10.4 L13.6,10.4 C13.8209139,10.4 14,10.2209139 14,10 C14,9.7790861 13.8209139,9.6 13.6,9.6 L10.4,9.6 Z" id="Combined-Shape" fill="#FFFFFF"></path>
        </g>
    </g>
</svg>