<?xml version="1.0" encoding="iso-8859-1"?>
<!-- Generator: Adobe Illustrator 16.0.0, SVG Export Plug-In . SVG Version: 6.00 Build 0)  -->
<!DOCTYPE svg PUBLIC "-//W3C//DTD SVG 1.1//EN" "http://www.w3.org/Graphics/SVG/1.1/DTD/svg11.dtd">
<svg version="1.1" id="Capa_1" xmlns="http://www.w3.org/2000/svg" xmlns:xlink="http://www.w3.org/1999/xlink" x="0px" y="0px"
	 width="537.794px" height="537.795px" viewBox="0 0 537.794 537.795" style="enable-background:new 0 0 537.794 537.795;"
	 xml:space="preserve" fill="#273051">
<g>
	<path d="M463.091,466.114H74.854c-11.857,0-21.497,9.716-21.497,21.497v28.688c0,11.857,9.716,21.496,21.497,21.496h388.084
		c11.857,0,21.496-9.716,21.496-21.496v-28.688C484.665,475.677,474.949,466.114,463.091,466.114z"/>
	<path d="M253.94,427.635c4.208,4.208,9.716,6.35,15.147,6.35c5.508,0,11.016-2.142,15.147-6.35l147.033-147.033
		c8.339-8.338,8.339-21.955,0-30.447l-20.349-20.349c-8.339-8.339-21.956-8.339-30.447,0l-75.582,75.659V21.497
		C304.889,9.639,295.173,0,283.393,0h-28.688c-11.857,0-21.497,9.562-21.497,21.497v284.044l-75.658-75.659
		c-8.339-8.338-22.032-8.338-30.447,0l-20.349,20.349c-8.338,8.338-8.338,22.032,0,30.447L253.94,427.635z"/>
</g>
</svg>
