<?xml version="1.0" encoding="UTF-8" standalone="no"?>
<svg width="15px" height="13px" viewBox="0 0 15 13" version="1.1" xmlns="http://www.w3.org/2000/svg" xmlns:xlink="http://www.w3.org/1999/xlink">
    <!-- Generator: Sketch 3.7 (28169) - http://www.bohemiancoding.com/sketch -->
    <title>export</title>
    <desc>Created with Sketch.</desc>
    <defs></defs>
    <g id="Page-1" stroke="none" stroke-width="1" fill="none" fill-rule="evenodd" opacity="0.5">
        <g id="chart-controls" transform="translate(-324.000000, -140.000000)" fill="#000000">
            <g id="Group-9" transform="translate(316.000000, 133.000000)">
                <g id="export" transform="translate(8.000000, 7.000000)">
                    <g id="Export">
                        <path d="M11.25,11.375 L1.5,11.375 L1.5,4.0625 L3.44625,4.0625 C3.44625,4.0625 3.963,3.3345 5.07375,2.4375 L0.75,2.4375 C0.33525,2.4375 0,2.8023125 0,3.25 L0,12.1875 C0,12.6368125 0.33525,13 0.75,13 L12,13 C12.41475,13 12.75,12.6368125 12.75,12.1875 L12.75,9.143875 L11.25,10.4804375 L11.25,11.375 L11.25,11.375 Z M10.02075,5.728125 L10.02075,8.6133125 L15,4.3875 L10.02075,0.3258125 L10.02075,2.86975 C3.975,2.86975 3.975,9.34375 3.975,9.34375 C5.6865,6.2985 6.7395,5.728125 10.02075,5.728125 L10.02075,5.728125 Z" id="Shape"></path>
                    </g>
                </g>
            </g>
        </g>
    </g>
</svg>