<?xml version="1.0" encoding="UTF-8" standalone="no"?>
<svg width="30px" height="30px" viewBox="0 0 30 30" version="1.1" xmlns="http://www.w3.org/2000/svg" xmlns:xlink="http://www.w3.org/1999/xlink">
    <!-- Generator: Sketch 3.8.3 (29802) - http://www.bohemiancoding.com/sketch -->
    <title>fb</title>
    <desc>Created with Sketch.</desc>
    <defs>
        <rect id="path-1" x="1" y="1" width="28" height="28"></rect>
    </defs>
    <g id="Page-1" stroke="none" stroke-width="1" fill="none" fill-rule="evenodd">
        <g id="chart-sharing" transform="translate(-112.000000, -114.000000)">
            <g id="1-copy-2" transform="translate(20.000000, 20.000000)">
                <g id="controls" transform="translate(6.000000, 33.000000)">
                    <g id="export-picker" transform="translate(86.000000, 43.000000)">
                        <g id="drawing-tools-types-2-copy" transform="translate(0.000000, 18.000000)">
                            <g id="fb">
                                <rect id="Rectangle-131" fill="#263051" x="0" y="0" width="30" height="30"></rect>
                                <mask id="mask-2" fill="white">
                                    <use xlink:href="#path-1"></use>
                                </mask>
                                <use id="Rectangle-131-Copy" fill="#263051" xlink:href="#path-1"></use>
                                <path d="M22,6 L8,6 C6.9,6 6,6.9 6,8 L6,22 C6,23.101 6.9,24 8,24 L15,24 L15,17 L13,17 L13,14.525 L15,14.525 L15,12.475 C15,10.311 16.212,8.791 18.766,8.791 L20.569,8.793 L20.569,11.398 L19.372,11.398 C18.378,11.398 18,12.144 18,12.836 L18,14.526 L20.568,14.526 L20,17 L18,17 L18,24 L22,24 C23.1,24 24,23.101 24,22 L24,8 C24,6.9 23.1,6 22,6 L22,6 Z" id="Shape" fill="#FFFFFF" mask="url(#mask-2)"></path>
                            </g>
                        </g>
                    </g>
                </g>
            </g>
        </g>
    </g>
</svg>