<?xml version="1.0" encoding="UTF-8" standalone="no"?>
<svg width="30px" height="30px" viewBox="0 0 30 30" version="1.1" xmlns="http://www.w3.org/2000/svg" xmlns:xlink="http://www.w3.org/1999/xlink">
    <!-- Generator: Sketch 3.8.3 (29802) - http://www.bohemiancoding.com/sketch -->
    <title>g-plus</title>
    <desc>Created with Sketch.</desc>
    <defs>
        <rect id="path-1" x="0" y="0" width="30" height="30"></rect>
        <rect id="path-3" x="1" y="1" width="28" height="28"></rect>
    </defs>
    <g id="Page-1" stroke="none" stroke-width="1" fill="none" fill-rule="evenodd">
        <g id="chart-sharing" transform="translate(-180.000000, -114.000000)">
            <g id="1-copy-2" transform="translate(20.000000, 20.000000)">
                <g id="controls" transform="translate(6.000000, 33.000000)">
                    <g id="export-picker" transform="translate(86.000000, 43.000000)">
                        <g id="drawing-tools-types-2-copy" transform="translate(0.000000, 18.000000)">
                            <g id="g-plus" transform="translate(68.000000, 0.000000)">
                                <mask id="mask-2" fill="white">
                                    <use xlink:href="#path-1"></use>
                                </mask>
                                <use id="Rectangle-131" fill="#263051" xlink:href="#path-1"></use>
                                <mask id="mask-4" fill="white">
                                    <use xlink:href="#path-3"></use>
                                </mask>
                                <use id="Rectangle-131-Copy" fill="#263051" xlink:href="#path-3"></use>
                                <path d="M6.95,10.389 C6.95,11.883 7.449,12.961 8.432,13.594 C9.238,14.114 10.172,14.192 10.658,14.192 C10.776,14.192 10.871,14.186 10.937,14.182 C10.937,14.182 10.783,15.186 11.527,16.178 L11.493,16.178 C10.204,16.178 6,16.447 6,19.905 C6,23.421 9.861,23.6 10.636,23.6 C10.697,23.6 10.733,23.598 10.733,23.598 C10.741,23.598 10.796,23.6 10.891,23.6 C11.388,23.6 12.673,23.538 13.866,22.957 C15.414,22.207 16.199,20.898 16.199,19.072 C16.199,17.308 15.003,16.258 14.13,15.49 C13.597,15.021 13.136,14.617 13.136,14.224 C13.136,13.824 13.473,13.523 13.898,13.142 C14.587,12.527 15.237,11.65 15.237,9.992 C15.237,8.535 15.048,7.556 13.883,6.935 C14.004,6.873 14.434,6.828 14.646,6.798 C15.277,6.712 16.2,6.614 16.2,6.099 L16.2,6 L11.601,6 C11.555,6.002 6.95,6.172 6.95,10.389 L6.95,10.389 Z M14.374,19.402 C14.462,20.808 13.259,21.845 11.452,21.976 C9.617,22.111 8.107,21.285 8.019,19.88 C7.976,19.204 8.273,18.544 8.854,18.017 C9.443,17.484 10.252,17.154 11.132,17.089 C11.236,17.083 11.339,17.077 11.442,17.077 C13.141,17.078 14.291,18.076 14.374,19.402 L14.374,19.402 Z M13.173,9.426 C13.624,11.014 12.943,12.672 11.857,12.979 C11.732,13.014 11.604,13.031 11.473,13.031 C10.479,13.031 9.494,12.025 9.128,10.638 C8.924,9.862 8.941,9.18 9.175,8.526 C9.404,7.881 9.818,7.448 10.338,7.301 C10.463,7.266 10.592,7.248 10.723,7.248 C11.923,7.248 12.695,7.746 13.173,9.426 L13.173,9.426 Z M20.961,12.8 L20.961,9.8 L18.961,9.8 L18.961,12.8 L15.961,12.8 L15.961,14.8 L18.961,14.8 L18.961,17.8 L20.961,17.8 L20.961,14.8 L23.961,14.8 L23.961,12.8 L20.961,12.8 L20.961,12.8 Z" id="Shape" fill="#FFFFFF" mask="url(#mask-4)"></path>
                            </g>
                        </g>
                    </g>
                </g>
            </g>
        </g>
    </g>
</svg>