<?xml version="1.0" encoding="UTF-8" standalone="no"?>
<svg width="15px" height="16px" viewBox="0 0 15 16" version="1.1" xmlns="http://www.w3.org/2000/svg" xmlns:xlink="http://www.w3.org/1999/xlink">
    <!-- Generator: Sketch 3.7 (28169) - http://www.bohemiancoding.com/sketch -->
    <title>indicators</title>
    <desc>Created with Sketch.</desc>
    <defs></defs>
    <g id="Page-1" stroke="none" stroke-width="1" fill="none" fill-rule="evenodd" opacity="0.496560168">
        <g id="chart-controls" transform="translate(-130.000000, -139.000000)">
            <g id="Group-6" transform="translate(123.000000, 133.000000)">
                <g id="indicators" transform="translate(7.000000, 7.000000)">
                    <path d="M0,9.04761905 L1.5,9.04761905 L1.5,15 L0,15 L0,9.04761905 Z M1.5,6.66666667 L3,6.66666667 L3,15 L1.5,15 L1.5,6.66666667 Z M3,9.04761905 L4.5,9.04761905 L4.5,15 L3,15 L3,9.04761905 Z M4.5,4.28571429 L6,4.28571429 L6,15 L4.5,15 L4.5,4.28571429 Z M6,6.66666667 L7.5,6.66666667 L7.5,15 L6,15 L6,6.66666667 Z M7.5,7.85714286 L9,7.85714286 L9,15 L7.5,15 L7.5,7.85714286 Z M9,5.47619048 L10.5,5.47619048 L10.5,15 L9,15 L9,5.47619048 Z M10.5,9.04761905 L12,9.04761905 L12,15 L10.5,15 L10.5,9.04761905 Z M12,9.04761905 L13.5,9.04761905 L13.5,15 L12,15 L12,9.04761905 Z M13.5,7.85714286 L15,7.85714286 L15,15 L13.5,15 L13.5,7.85714286 Z" id="Combined-Shape" fill="#000000"></path>
                    <polyline id="Path-34" stroke="#000000" points="0 5 5.31113036 0 9.81993946 3.10084624 12.5198318 4.56954755 14.2857143 3.18608132"></polyline>
                </g>
            </g>
        </g>
    </g>
</svg>