<?xml version="1.0" encoding="UTF-8" standalone="no"?>
<svg width="21px" height="16px" viewBox="0 0 21 16" version="1.1" xmlns="http://www.w3.org/2000/svg" xmlns:xlink="http://www.w3.org/1999/xlink">
    <!-- Generator: Sketch 3.8.3 (29802) - http://www.bohemiancoding.com/sketch -->
    <title>load-save icon</title>
    <desc>Created with Sketch.</desc>
    <defs></defs>
    <g id="Page-1" stroke="none" stroke-width="1" fill="none" fill-rule="evenodd">
        <g id="chart-templates" transform="translate(-228.000000, -55.000000)">
            <g id="1-copy" transform="translate(20.000000, 13.000000)">
                <g id="controls" transform="translate(6.000000, 33.000000)">
                    <g id="export-copy" transform="translate(48.000000, 3.000000)">
                        <g id="load-save-icon" transform="translate(155.000000, 7.000000)">
                            <path d="M14.45235,13 C16.9632,13 19,10.904 19,8.32 C19,5.734 16.9632,3.639 14.45235,3.639 C14.19015,3.639 13.93365,3.664 13.6838,3.707 L13.6838,3.707 C13.0606,1.562 11.1302,0 8.84355,0 C6.0515,0 3.78955,2.328 3.78955,5.199 C3.78955,5.455 3.80855,5.707 3.8437,5.955 C3.70975,5.938 3.57485,5.928 3.43615,5.928 C1.53805,5.928 0,7.51 0,9.463 C0,11.416 1.53805,13 3.43615,13" id="Combined-Shape" stroke="#404448"></path>
                            <path d="M8,10 L8,15 L7,15 L7,10 L6,10 L7.5,6 L9,10 L8,10 Z" id="Combined-Shape-Copy-2" fill="#404448"></path>
                            <path d="M11,10 L11,15 L10,15 L10,10 L9,10 L10.5,6 L12,10 L11,10 Z" id="Combined-Shape-Copy-3" fill="#404448" transform="translate(10.500000, 10.500000) scale(1, -1) translate(-10.500000, -10.500000) "></path>
                        </g>
                    </g>
                </g>
            </g>
        </g>
    </g>
</svg>