<?xml version="1.0" encoding="UTF-8"?>
<svg width="16px" height="16px" viewBox="0 0 16 16" version="1.1" xmlns="http://www.w3.org/2000/svg" xmlns:xlink="http://www.w3.org/1999/xlink">
    <!-- Generator: Sketch 46 (44423) - http://www.bohemiancoding.com/sketch -->
    <title>load</title>
    <desc>Created with Sketch.</desc>
    <defs></defs>
    <g id="2nd-Submenu" stroke="none" stroke-width="1" fill="none" fill-rule="evenodd">
        <g id="load" fill-rule="nonzero" fill="#FFFFFF">
            <path d="M5.78982739,7.37561383 C5.3993031,6.98508954 4.76613812,6.98508954 4.37561383,7.37561383 C3.98508954,7.76613812 3.98508954,8.3993031 4.37561383,8.78982739 L7.29289322,11.7071068 C7.92285808,12.3370716 9,11.8909049 9,11 L9,1 C9,0.44771525 8.55228475,0 8,0 C7.44771525,0 7,0.44771525 7,1 L7,8.58578644 L5.78982739,7.37561383 Z" id="Path-4"></path>
            <path d="M8.78982678,7.37561383 C8.39930249,6.98508954 7.76613751,6.98508954 7.37561322,7.37561383 C6.98508893,7.76613812 6.98508893,8.3993031 7.37561322,8.78982739 L10.2928926,11.7071068 C10.9228575,12.3370716 11.9999994,11.8909049 11.9999994,11 L11.9999994,1 C11.9999994,0.44771525 11.5522841,0 10.9999994,0 C10.4477146,0 9.99999939,0.44771525 9.99999939,1 L9.99999939,8.58578644 L8.78982678,7.37561383 Z" id="Path-4-Copy" transform="translate(9.541360, 6.001002) scale(-1, 1) translate(-9.541360, -6.001002) "></path>
            <rect id="Rectangle-2" x="0" y="14" width="16" height="2" rx="1"></rect>
        </g>
    </g>
</svg>