<svg xmlns="http://www.w3.org/2000/svg" viewBox="0 0 406.429 406.429" width="512" height="512"><g fill="#FFF"><path d="M81.139 58.249h.813c4.487 0 8.129-3.642 8.129-8.129s-3.642-8.129-8.129-8.129h-.813c-4.487 0-8.129 3.642-8.129 8.129s3.642 8.129 8.129 8.129zM48.373 58.249h.813c4.487 0 8.129-3.642 8.129-8.129s-3.642-8.129-8.129-8.129h-.813c-4.487 0-8.129 3.642-8.129 8.129s3.642 8.129 8.129 8.129z"/><path d="M398.3 0H8.129A8.132 8.132 0 0 0 0 8.129V398.3a8.127 8.127 0 0 0 8.129 8.129H398.3a8.121 8.121 0 0 0 8.129-8.129V8.129A8.127 8.127 0 0 0 398.3 0zm-8.128 16.257v67.532H16.257V16.257h373.915zM16.265 390.172V100.047H390.18v290.125H16.265z"/><path d="M116.856 69.743h229.632a8.127 8.127 0 0 0 8.129-8.129V38.619a8.126 8.126 0 0 0-8.129-8.129H116.856a8.132 8.132 0 0 0-8.129 8.129v22.996a8.127 8.127 0 0 0 8.129 8.128zm221.496-22.996v6.739H124.977v-6.739h213.375z"/></g></svg>