<?xml version="1.0" encoding="UTF-8" standalone="no"?>
<svg width="19px" height="15px" viewBox="0 0 19 15" version="1.1" xmlns="http://www.w3.org/2000/svg" xmlns:xlink="http://www.w3.org/1999/xlink">
    <!-- Generator: Sketch 3.7 (28169) - http://www.bohemiancoding.com/sketch -->
    <title>overlays</title>
    <desc>Created with Sketch.</desc>
    <defs></defs>
    <g id="Page-1" stroke="none" stroke-width="1" fill="none" fill-rule="evenodd" opacity="0.496560168">
        <g id="chart-controls" transform="translate(-161.000000, -140.000000)">
            <g id="Group-3" transform="translate(156.000000, 133.000000)">
                <g id="overlays" transform="translate(5.000000, 7.000000)">
                    <path d="M3.5625,2.76315789 L14.6458333,2.76315789" id="Line" stroke="#000000" stroke-linecap="square"></path>
                    <polygon id="Triangle-1" fill="#000000" points="9.10416667 0 10.2916667 2.36842105 7.91666667 2.36842105"></polygon>
                    <path d="M0,11.8421053 L7.47174072,11.8421053 C7.47174072,11.8421053 6.27514836,14.9944105 3.8284273,14.9944105 C1.38170624,14.9944105 0,11.8421053 0,11.8421053 Z" id="Path-6" fill="#000000"></path>
                    <path d="M11.0833333,11.8421053 L18.5550741,11.8421053 C18.5550741,11.8421053 17.3584817,14.9944105 14.9117606,14.9944105 C12.4650396,14.9944105 11.0833333,11.8421053 11.0833333,11.8421053 Z" id="Path-6-Copy" fill="#000000"></path>
                    <path d="M1.1875,11.4473684 L3.5625,2.76315789" id="Line" stroke="#000000" stroke-linecap="square"></path>
                    <path d="M12.2708333,11.4473684 L14.6458333,2.76315789" id="Line-Copy-3" stroke="#000000" stroke-linecap="square"></path>
                    <path d="M6.72916667,12.2368421 L3.5625,2.76315789" id="Line" stroke="#000000" stroke-linecap="square"></path>
                    <path d="M17.8125,12.2368421 L14.6458333,2.76315789" id="Line-Copy-4" stroke="#000000" stroke-linecap="square"></path>
                </g>
            </g>
        </g>
    </g>
</svg>