<?xml version="1.0" encoding="utf-8"?>
<!-- Generator: Adobe Illustrator 19.1.0, SVG Export Plug-In . SVG Version: 6.00 Build 0)  -->
<svg version="1.1" id="Layer_1" xmlns="http://www.w3.org/2000/svg" xmlns:xlink="http://www.w3.org/1999/xlink" x="0px" y="0px"
	 viewBox="0 0 14 14" style="enable-background:new 0 0 14 14;" xml:space="preserve">
<style type="text/css">
	.st0{fill:#FFFFFF;}
</style>
<g>
	<path class="st0" d="M7,0.5c-2,0-3.6,1.6-3.6,3.6c0,1.5,1,2.8,2.4,3.3V10H3.4v2.4h2.4v1.2h2.4V7.4c1.4-0.5,2.4-1.8,2.4-3.3
		C10.6,2.1,9,0.5,7,0.5z M7.7,6.8L7.5,6.9v5.9h-1v-1.2H4.1v-1h2.4V6.9L6.3,6.8C5,6.5,4.1,5.3,4.1,4.1c0-1.6,1.3-2.9,2.9-2.9
		s2.9,1.3,2.9,2.9C9.9,5.3,9,6.5,7.7,6.8z"/>
	<path class="st0" d="M7,3C6.4,3,5.9,3.5,5.9,4.1S6.4,5.2,7,5.2s1.1-0.5,1.1-1.1S7.6,3,7,3z M7,4.5c-0.2,0-0.4-0.2-0.4-0.4
		c0-0.2,0.2-0.4,0.4-0.4s0.4,0.2,0.4,0.4C7.4,4.3,7.2,4.5,7,4.5z"/>
</g>
</svg>
