<?xml version="1.0" encoding="utf-8"?>
<!-- Generator: Adobe Illustrator 19.1.0, SVG Export Plug-In . SVG Version: 6.00 Build 0)  -->
<svg version="1.1" id="Layer_1" xmlns="http://www.w3.org/2000/svg" xmlns:xlink="http://www.w3.org/1999/xlink" x="0px" y="0px"
	 viewBox="0 0 14 14" style="enable-background:new 0 0 14 14;" xml:space="preserve">
<style type="text/css">
	.st0{fill:#FFFFFF;}
</style>
<g>
	<rect x="2.4" y="2" class="st0" width="3.8" height="0.8"/>
	<rect x="8.5" y="2" class="st0" width="3.1" height="0.8"/>
	<rect x="2.4" y="6.6" class="st0" width="3.8" height="0.8"/>
	<rect x="8.5" y="6.6" class="st0" width="3.1" height="0.8"/>
	<rect x="2.4" y="8.9" class="st0" width="3.8" height="0.8"/>
	<rect x="8.5" y="8.9" class="st0" width="3.1" height="0.8"/>
	<rect x="2.4" y="11.2" class="st0" width="3.8" height="0.8"/>
	<rect x="8.5" y="11.2" class="st0" width="3.1" height="0.8"/>
	<path class="st0" d="M12.7,0.5H1.3H0.5v0.8v3.1v0.8v7.6v0.8h0.8h11.5h0.8v-0.8V5.1V4.3V1.3V0.5H12.7z M12.7,12.7H1.3V5.1h11.5V12.7
		z M1.3,4.3V1.3h11.5v3.1H1.3z"/>
</g>
</svg>
