<?xml version="1.0" encoding="utf-8"?>
<!-- Generator: Adobe Illustrator 19.1.0, SVG Export Plug-In . SVG Version: 6.00 Build 0)  -->
<svg version="1.1" id="Layer_1" xmlns="http://www.w3.org/2000/svg" xmlns:xlink="http://www.w3.org/1999/xlink" x="0px" y="0px"
	 viewBox="0 0 14 14" style="enable-background:new 0 0 14 14;" xml:space="preserve">
<style type="text/css">
	.st0{fill:#FFFFFF;}
</style>
<g>
	<path class="st0" d="M12.3,6.4c0.2,0.2,0.3,0.4,0.3,0.6c0,0.4-0.5,0.9-1.2,1.2c-0.4,0.2-0.9,0.4-1.5,0.5C9,8.9,8,9.1,7,9.1
		S5,8.9,4.2,8.8C3.6,8.6,3.1,8.4,2.7,8.2C1.9,7.9,1.4,7.4,1.4,7c0-0.2,0.1-0.4,0.3-0.6C1.5,6.2,1.2,6.1,0.9,5.9
		C0.7,6.2,0.5,6.6,0.5,7c0,0.7,0.4,1.3,1.2,1.8c0.3,0.2,0.6,0.4,1,0.5C3.8,9.7,5.3,10,7,10s3.2-0.3,4.3-0.7c0.4-0.2,0.7-0.3,1-0.5
		c0.7-0.5,1.2-1.1,1.2-1.8c0-0.4-0.2-0.8-0.4-1.1C12.8,6.1,12.5,6.2,12.3,6.4z"/>
	<path class="st0" d="M1.3,5c0.1,0.1,0.3,0.2,0.4,0.3c0.3,0.2,0.6,0.4,1,0.5C2.9,5.8,3.1,5.9,3.3,6c0.3,0.1,0.6,0.2,0.9,0.2
		C5,6.4,6,6.5,7,6.5s2-0.1,2.8-0.3c0.3-0.1,0.6-0.1,0.9-0.2c0.2-0.1,0.4-0.1,0.7-0.2c0.4-0.2,0.7-0.3,1-0.5c0.1-0.1,0.3-0.2,0.4-0.3
		c0.1-0.1,0.2-0.2,0.3-0.3c0.3-0.3,0.4-0.7,0.4-1.1c0-1.7-2.8-3-6.5-3s-6.5,1.3-6.5,3c0,0.4,0.2,0.8,0.4,1.1C1,4.7,1.2,4.8,1.3,5z
		 M7,1.4c3.2,0,5.6,1.1,5.6,2.1c0,0.2-0.1,0.4-0.3,0.6c-0.1,0.1-0.2,0.2-0.4,0.3c-0.2,0.1-0.3,0.2-0.5,0.3c-0.4,0.2-0.9,0.4-1.5,0.5
		C9.4,5.3,8.9,5.4,8.4,5.5C8,5.5,7.5,5.6,7,5.6s-1,0-1.4-0.1c-0.5-0.1-1-0.1-1.4-0.2C3.6,5.1,3.1,4.9,2.7,4.7
		C2.5,4.6,2.3,4.6,2.2,4.5C2,4.3,1.9,4.2,1.7,4.1C1.5,3.9,1.4,3.7,1.4,3.5C1.4,2.5,3.8,1.4,7,1.4z"/>
	<path class="st0" d="M12.3,9.9c0.2,0.2,0.3,0.4,0.3,0.6c0,1-2.4,2.1-5.6,2.1s-5.6-1.1-5.6-2.1c0-0.2,0.1-0.4,0.3-0.6
		C1.5,9.7,1.2,9.6,0.9,9.4c-0.3,0.3-0.4,0.7-0.4,1.1c0,1.7,2.8,3,6.5,3s6.5-1.3,6.5-3c0-0.4-0.2-0.8-0.4-1.1
		C12.8,9.6,12.5,9.7,12.3,9.9z"/>
	<path class="st0" d="M5.4,3.9L4.7,4.3c0.5,0.2,1.2,0.3,2,0.3v0.3h0.8V4.6c0.6,0,1-0.1,1.4-0.2s0.5-0.3,0.5-0.5
		c0-0.1-0.1-0.2-0.2-0.3C9,3.6,8.9,3.5,8.7,3.4c-0.2,0-0.4-0.1-0.6-0.1c-0.2,0-0.4-0.1-0.7-0.1V2.8c0.4,0,0.8,0.1,1,0.2l0.7-0.4
		c-0.4-0.2-1-0.3-1.7-0.3V2H6.7v0.3c-0.5,0-1,0.1-1.3,0.2C5.1,2.7,4.9,2.9,4.9,3c0,0.1,0,0.2,0.1,0.3c0.1,0.1,0.2,0.1,0.4,0.2
		c0.2,0,0.4,0.1,0.6,0.1c0.2,0,0.4,0.1,0.6,0.1v0.5C6.2,4.2,5.7,4.1,5.4,3.9z M7.5,3.8c0.2,0,0.4,0.1,0.5,0.1C8,3.9,8.1,3.9,8.1,4
		C8.1,4,8,4.1,7.9,4.1c-0.1,0-0.3,0.1-0.5,0.1V3.8z M6.1,3c0-0.1,0.1-0.1,0.2-0.1c0.1,0,0.2-0.1,0.4-0.1v0.4C6.3,3.1,6.1,3.1,6.1,3z
		"/>
</g>
</svg>
