<?xml version="1.0" encoding="utf-8"?>
<!-- Generator: Adobe Illustrator 19.1.0, SVG Export Plug-In . SVG Version: 6.00 Build 0)  -->
<svg version="1.1" id="Layer_1" xmlns="http://www.w3.org/2000/svg" xmlns:xlink="http://www.w3.org/1999/xlink" x="0px" y="0px"
	 viewBox="0 0 14 14" style="enable-background:new 0 0 14 14;" xml:space="preserve">
<style type="text/css">
	.st0{fill:#FFFFFF;}
</style>
<g>
	<path class="st0" d="M7.3,7.6V6.5c0.2,0,0.3,0.1,0.5,0.2c0.2,0.1,0.3,0.2,0.4,0.3l0.5-0.9C8.5,5.9,8.3,5.8,8.1,5.7
		C7.9,5.6,7.6,5.6,7.4,5.5V5.1H6.6v0.4C6.4,5.5,6.2,5.6,6,5.7C5.8,5.7,5.6,5.8,5.5,6C5.3,6.1,5.2,6.2,5.2,6.4C5.1,6.6,5.1,6.7,5.1,7
		v0c0,0.2,0,0.4,0.1,0.6S5.3,7.8,5.4,8c0.1,0.1,0.3,0.2,0.5,0.3c0.2,0.1,0.4,0.2,0.7,0.2v1.2C6.4,9.7,6.2,9.6,6,9.5
		C5.8,9.4,5.6,9.3,5.4,9.1L4.9,9.9c0.2,0.2,0.5,0.3,0.8,0.5c0.3,0.1,0.6,0.2,0.9,0.2v0.7h0.8v-0.7c0.2,0,0.4-0.1,0.6-0.2
		c0.2-0.1,0.4-0.2,0.5-0.3c0.1-0.1,0.2-0.3,0.3-0.4c0.1-0.2,0.1-0.4,0.1-0.6v0c0-0.4-0.1-0.7-0.4-1C8.3,8,7.9,7.8,7.3,7.6z M6.6,7.4
		C6.4,7.3,6.3,7.3,6.2,7.2C6.2,7.1,6.1,7,6.1,6.9v0c0-0.1,0-0.2,0.1-0.3c0.1-0.1,0.2-0.1,0.4-0.2V7.4z M7.9,9.3
		c0,0.3-0.2,0.4-0.5,0.5v-1c0.2,0.1,0.3,0.2,0.4,0.2C7.8,9,7.9,9.1,7.9,9.3L7.9,9.3z"/>
	<path class="st0" d="M9,3.3l0.7-1.5L9.5,1.5c-0.7-0.7-1.5-1-2.5-1s-1.8,0.4-2.5,1L4.3,1.7L5,3.3C3.1,4,1.7,6,1.7,8.2
		c0,2.9,2.4,5.3,5.3,5.3s5.3-2.4,5.3-5.3C12.3,6,10.9,4,9,3.3z M8.6,1.9L8.2,3C7.9,2.9,7.7,2.9,7.4,2.9V2H6.6v0.9
		C6.3,2.9,6.1,2.9,5.8,3L5.4,1.9C6.3,1.2,7.7,1.2,8.6,1.9z M7,12.7c-2.5,0-4.5-2-4.5-4.5s2-4.5,4.5-4.5s4.5,2,4.5,4.5
		S9.5,12.7,7,12.7z"/>
</g>
</svg>
