<?xml version="1.0" encoding="UTF-8"?>
<svg width="16px" height="16px" viewBox="0 0 16 16" version="1.1" xmlns="http://www.w3.org/2000/svg" xmlns:xlink="http://www.w3.org/1999/xlink">
    <!-- Generator: Sketch 46 (44423) - http://www.bohemiancoding.com/sketch -->
    <title>icons/save</title>
    <desc>Created with Sketch.</desc>
    <defs></defs>
    <g id="Symbols" stroke="none" stroke-width="1" fill="none" fill-rule="evenodd">
        <g id="icons/save" fill="#FFFFFF">
            <path d="M1,3.86991137e-16 L10.5857864,0 L10.5857864,1.99840144e-15 C10.8510029,1.94968197e-15 11.1053568,0.10535684 11.2928932,0.292893219 L15.7071068,4.70710678 C15.8946432,4.89464316 16,5.14899707 16,5.41421356 L16,15 C16,15.5522847 15.5522847,16 15,16 L1,16 C0.44771525,16 6.76353751e-17,15.5522847 0,15 L0,1 L0,1 C-6.76353751e-17,0.44771525 0.44771525,1.01453063e-16 1,0 L1,3.86991137e-16 Z M8,13 C9.65685425,13 11,11.6568542 11,10 C11,8.34314575 9.65685425,7 8,7 C6.34314575,7 5,8.34314575 5,10 C5,11.6568542 6.34314575,13 8,13 Z M2,0 L2,4 L4,4 L4,0 L2,0 Z M4,2 L4,4 L7,4 L7,2 L4,2 Z M7,0 L7,4 L9,4 L9,0 L7,0 Z" id="Combined-Shape"></path>
        </g>
    </g>
</svg>