<?xml version="1.0" encoding="UTF-8"?>
<svg width="16px" height="16px" viewBox="0 0 16 16" version="1.1" xmlns="http://www.w3.org/2000/svg" xmlns:xlink="http://www.w3.org/1999/xlink">
    <g id="Symbols" stroke="none" stroke-width="1" fill="transparent" fill-rule="evenodd">
        <g id="icons/saved-2">
            <rect id="Rectangle-9" stroke="#FFFFFF" x="0.5" y="0.5" width="15" height="15" rx="1"></rect>
            <rect id="Rectangle" fill="#FFFFFF" x="0" y="3" width="16" height="1"></rect>
            <rect id="Rectangle-Copy" fill="#FFFFFF" x="0" y="6" width="16" height="1"></rect>
            <path d="M1,9 L3.99918257,9 L3.99918257,9 C4.55145979,9 4.99916893,9.44770914 4.99916893,9.99998636 L4.99916893,9.99998636 L4.99916893,9.99998636 C4.99916893,10.5522636 5.44687807,10.9999727 5.99915529,10.9999727 L10.0000136,10.9999727 L10.0000136,10.9999727 C10.5522909,10.9999727 11,10.5522636 11,9.99998636 L11,9.99998636 L11,9.99998636 C11,9.44770914 11.4477091,9 11.9999864,9 L15,9 L15,9 C15.5522847,9 16,9.44771525 16,10 L16,15 L16,15 C16,15.5522847 15.5522847,16 15,16 L1,16 L1,16 C0.44771525,16 6.76353751e-17,15.5522847 0,15 L0,10 L0,10 C-6.76353751e-17,9.44771525 0.44771525,9 1,9 Z" id="Combined-Shape" fill="#FFFFFF"></path>
        </g>
    </g>
</svg>
