<?xml version="1.0" encoding="UTF-8"?>
<svg width="16px" height="16px" viewBox="0 0 16 16" version="1.1" xmlns="http://www.w3.org/2000/svg" xmlns:xlink="http://www.w3.org/1999/xlink">
    <!-- Generator: Sketch 46.2 (44496) - http://www.bohemiancoding.com/sketch -->
    <title>icons/black/save-as</title>
    <desc>Created with Sketch.</desc>
    <defs></defs>
    <g id="Symbols" stroke="none" stroke-width="1" fill="none" fill-rule="evenodd">
        <g id="icons/black/save-as">
            <path d="M8.91666667,13.5 L3.1875,13.5 L3.1875,13.5 C2.80780423,13.5 2.5,13.1921958 2.5,12.8125 L2.5,3.1875 L2.5,3.1875 C2.5,2.80780423 2.80780423,2.5 3.1875,2.5 L3.1875,2.5 L9.77772818,2.5 L9.77772818,2.5 C9.96006451,2.5 10.1349328,2.57243283 10.2638641,2.70136409 L13.2986359,5.73613591 L13.2986359,5.73613591 C13.4275672,5.86506717 13.5,6.03993549 13.5,6.22227182 L13.5,8.91666667" id="Combined-Shape-Copy-2" stroke="#293055" stroke-linecap="round" stroke-linejoin="round"></path>
            <rect id="Rectangle" stroke="#293055" x="4.5" y="2.5" width="4" height="3" rx="1"></rect>
            <path d="M8,8 L9,8 L15.5,14.5 L15.5,14.5 C15.7761424,14.7761424 15.7761424,15.2238576 15.5,15.5 C15.2238576,15.7761424 14.7761424,15.7761424 14.5,15.5 L8,9 L8,8 Z M13.8535534,14.8535534 L14.8535534,13.8535534 L14.1464466,13.1464466 L13.1464466,14.1464466 L13.8535534,14.8535534 Z" id="Combined-Shape" fill="#293055"></path>
        </g>
    </g>
</svg>