<?xml version="1.0" encoding="UTF-8"?>
<svg width="16px" height="16px" viewBox="0 0 16 16" version="1.1" xmlns="http://www.w3.org/2000/svg" xmlns:xlink="http://www.w3.org/1999/xlink">
    <g id="icons" stroke="none" stroke-width="1" fill="none" fill-rule="evenodd">
        <g id="Artboard" transform="translate(-131.000000, -121.000000)" fill="#2A3052">
            <g id="icons/save-as" transform="translate(131.000000, 121.000000)">
                <path d="M4,2 L4,0 L2,0 L2,3 L2,4 L7,4 L7,2 L4,2 Z M14,9 L10,5 L5,5 L5,10 L9,14 L1,14 L1,14 C0.44771525,14 9.37667865e-16,13.5522847 -1.11022302e-16,13 L0,1 L0,1 C-6.76353751e-17,0.44771525 0.44771525,1.01453063e-16 1,0 L1,3.86991137e-16 L10.5857864,0 L10.5857864,1.33226763e-15 C10.8510029,1.75466728e-15 11.1053568,0.10535684 11.2928932,0.292893219 L13.7071068,2.70710678 L13.7071068,2.70710678 C13.8946432,2.89464316 14,3.14899707 14,3.41421356 L14,9 Z M7,0 L7,4 L9,4 L9,0 L7,0 Z" id="Combined-Shape"></path>
                <path d="M13.5428932,11.5428932 L11.5428932,13.5428932 L7,9 L7,7 L9,7 L13.5428932,11.5428932 Z M14.9571068,12.9571068 L15.5,13.5 C16.0522847,14.0522847 16.0522847,14.9477153 15.5,15.5 L15.5,15.5 C14.9477153,16.0522847 14.0522847,16.0522847 13.5,15.5 L13.5,15.5 L12.9571068,14.9571068 L14.9571068,12.9571068 Z" id="Combined-Shape"></path>
            </g>
        </g>
    </g>
</svg>
