<?xml version="1.0" encoding="utf-8"?>
<!-- Generator: Adobe Illustrator 19.1.0, SVG Export Plug-In . SVG Version: 6.00 Build 0)  -->
<svg version="1.1" id="Layer_1" xmlns="http://www.w3.org/2000/svg" xmlns:xlink="http://www.w3.org/1999/xlink" x="0px" y="0px"
	 viewBox="0 0 14 14" style="enable-background:new 0 0 14 14;" xml:space="preserve">
<style type="text/css">
	.st0{fill:#FFFFFF;}
</style>
<g>
	<g>
		<path class="st0" d="M6,13.5L4,12.8L3.9,12c0-0.2-0.1-0.3-0.2-0.4c-0.1-0.1-0.3-0.1-0.5-0.1l-0.8,0.2L1.1,9.9l0.4-0.7
			c0.1-0.1,0.1-0.3,0.1-0.5C1.5,8.6,1.4,8.5,1.3,8.4L0.5,8.1V5.9l0.8-0.3c0.2-0.1,0.3-0.2,0.3-0.4c0.1-0.2,0-0.3-0.1-0.5L1.1,4.1
			l1.3-1.7l0.8,0.2c0.2,0,0.3,0,0.5-0.1C3.8,2.3,3.9,2.2,3.9,2L4,1.2L6,0.5l0.5,0.6c0.2,0.3,0.6,0.3,0.9,0L8,0.5L10,1.2L10.1,2
			c0,0.2,0.1,0.3,0.2,0.4c0.1,0.1,0.3,0.1,0.5,0.1l0.8-0.2l1.3,1.7l-0.4,0.7c-0.1,0.1-0.1,0.3-0.1,0.5c0.1,0.2,0.2,0.3,0.3,0.4
			l0.8,0.3v2.2l-0.8,0.3c-0.2,0.1-0.3,0.2-0.3,0.4c-0.1,0.2,0,0.3,0.1,0.5l0.4,0.7l-1.3,1.7l-0.8-0.2c-0.2,0-0.3,0-0.5,0.1
			c-0.1,0.1-0.2,0.2-0.2,0.4L10,12.8L8,13.5l-0.5-0.6c-0.1-0.1-0.3-0.2-0.4-0.2l0,0c-0.2,0-0.3,0.1-0.4,0.2L6,13.5z M7,12L7,12
			c0.4,0,0.7,0.2,1,0.4l0.2,0.3l1.2-0.4l0-0.4c0-0.4,0.2-0.7,0.5-0.9c0.3-0.2,0.7-0.3,1-0.2l0.4,0.1l0.7-1l-0.2-0.3
			c-0.2-0.3-0.2-0.7-0.1-1c0.1-0.3,0.4-0.6,0.7-0.8l0.3-0.1V6.4l-0.3-0.1c-0.3-0.1-0.6-0.4-0.7-0.8c-0.1-0.3-0.1-0.7,0.1-1l0.2-0.3
			l-0.7-1L11,3.2c-0.4,0.1-0.7,0-1-0.2C9.6,2.7,9.5,2.4,9.4,2l0-0.4L8.2,1.3L8,1.6C7.7,1.9,7.4,2,7,2h0C6.6,2,6.3,1.9,6,1.6L5.8,1.3
			L4.6,1.7l0,0.4c0,0.4-0.2,0.7-0.5,0.9C3.8,3.2,3.4,3.3,3,3.2L2.7,3.1l-0.7,1l0.2,0.3c0.2,0.3,0.2,0.7,0.1,1
			C2.1,5.8,1.9,6.1,1.5,6.2L1.2,6.4v1.2l0.3,0.1c0.3,0.1,0.6,0.4,0.7,0.8c0.1,0.3,0.1,0.7-0.1,1L1.9,9.9l0.7,1L3,10.8
			c0.4-0.1,0.7,0,1,0.2c0.3,0.2,0.5,0.5,0.5,0.9l0,0.4l1.2,0.4L6,12.4C6.3,12.1,6.6,12,7,12z"/>
	</g>
	<g>
		<path class="st0" d="M7,11.3c-2.4,0-4.3-1.9-4.3-4.3S4.6,2.7,7,2.7c2.4,0,4.3,1.9,4.3,4.3S9.4,11.3,7,11.3z M7,3.4
			C5,3.4,3.4,5,3.4,7S5,10.6,7,10.6c2,0,3.6-1.6,3.6-3.6S9,3.4,7,3.4z"/>
	</g>
	<g>
		<path class="st0" d="M7,9.3c-1.2,0-2.3-1-2.3-2.3s1-2.3,2.3-2.3s2.3,1,2.3,2.3S8.2,9.3,7,9.3z M7,5.4C6.1,5.4,5.4,6.1,5.4,7
			S6.1,8.6,7,8.6S8.6,7.9,8.6,7S7.9,5.4,7,5.4z"/>
	</g>
</g>
</svg>
