<?xml version="1.0" encoding="utf-8"?>
<!-- Generator: Adobe Illustrator 19.1.0, SVG Export Plug-In . SVG Version: 6.00 Build 0)  -->
<svg version="1.1" id="Layer_1" xmlns="http://www.w3.org/2000/svg" xmlns:xlink="http://www.w3.org/1999/xlink" x="0px" y="0px"
	 viewBox="0 0 14 14" style="enable-background:new 0 0 14 14;" xml:space="preserve">
<style type="text/css">
	.st0{fill:#FFFFFF;}
</style>
<g>
	<g>
		<g>
			<path class="st0" d="M5.8,8.9H4.8V4.1c0-0.3,0.2-0.5,0.5-0.5h0.8l-2-2l-2,2h0.8c0.3,0,0.5,0.2,0.5,0.5v4.8H2.5V4.6H1
				c-0.2,0-0.4-0.1-0.4-0.3c-0.1-0.2,0-0.4,0.1-0.5l3.2-3.2c0.2-0.2,0.5-0.2,0.7,0l3.2,3.2c0.1,0.1,0.2,0.3,0.1,0.5
				C7.6,4.5,7.5,4.6,7.3,4.6H5.8V8.9z"/>
		</g>
	</g>
	<g>
		<g>
			<path class="st0" d="M9.9,13.5c-0.1,0-0.2,0-0.3-0.1l-3.2-3.2c-0.1-0.1-0.2-0.3-0.1-0.5c0.1-0.2,0.2-0.3,0.4-0.3h1.5V5.1h0.9v4.8
				c0,0.3-0.2,0.5-0.5,0.5H7.8l2,2l2-2h-0.8c-0.3,0-0.5-0.2-0.5-0.5V5.1h0.9v4.3H13c0.2,0,0.4,0.1,0.4,0.3c0.1,0.2,0,0.4-0.1,0.5
				l-3.2,3.2C10.1,13.5,10,13.5,9.9,13.5z"/>
		</g>
	</g>
</g>
</svg>
