<svg xmlns="http://www.w3.org/2000/svg" width="18" height="17" viewBox="0 0 18 17">
  <g fill="none" fill-rule="evenodd" transform="translate(-1 -2)">
    <rect width="20" height="20" fill="none"/>
    <g fill="#ffffff" transform="translate(1.5 2)">
      <path d="M4.59980074,11.9999143 L4.49441228,11.9999143 C2.15739991,12.0038505 0.208798884,10.1590955 0.0155620086,7.75975364 C-0.177674866,5.36041178 1.44916933,3.21004611 3.75485572,2.81714828 C4.86740121,0.839648357 7.02680733,-0.252584762 9.22594049,0.0498596659 C11.4250737,0.352304094 13.2307423,1.98984971 13.8007939,4.1987554 C15.7654847,4.5280515 17.1532544,6.35955664 16.9864164,8.40297171 C16.8195784,10.4463868 15.1543357,12.0133421 13.1638552,11.9999143 L13.09294,11.9999143 L13.09294,10.9720577 L13.142624,10.9719112 C14.1539852,11.0090289 15.1077431,10.4874794 15.6446263,9.6037254 C16.1815096,8.71997138 16.2199529,7.60827605 15.745475,6.6874043 C15.270997,5.76653255 14.3556824,5.17638669 13.3443212,5.13926896 L12.9904664,5.11375115 L12.9196954,4.74921101 C12.5467759,2.81151077 11.02652,1.32781442 9.12821325,1.04890749 C7.22990648,0.770000557 5.36765276,1.75672488 4.48379663,3.50977454 L4.363486,3.74672563 L4.10517198,3.77588884 C2.26224099,4.00181827 0.906828022,5.66401686 1.00879231,7.57310641 C1.11075659,9.48219597 2.63500711,10.981163 4.49087373,10.997429 L4.59980074,10.9971077 L4.59980074,11.9999143 Z"/>
      <path d="M7.71052634 13.6666667L7.71052634 9 6.28947369 9 6.28947369 13.6666667 5.5 13.6666667 7 16.6666667 8.5 13.6666667 7.71052634 13.6666667zM9.78947369 10L11.2105263 10 11.2105263 15 9.78947369 15 9.78947369 10zM10.5 7L12 10 9 10 10.5 7z"/>
    </g>
  </g>
</svg>