<?xml version="1.0" encoding="UTF-8" standalone="no"?>
<svg width="30px" height="30px" viewBox="0 0 30 30" version="1.1" xmlns="http://www.w3.org/2000/svg" xmlns:xlink="http://www.w3.org/1999/xlink">
    <!-- Generator: Sketch 3.8.3 (29802) - http://www.bohemiancoding.com/sketch -->
    <title>twitter</title>
    <desc>Created with Sketch.</desc>
    <defs></defs>
    <g id="Page-1" stroke="none" stroke-width="1" fill="none" fill-rule="evenodd">
        <g id="chart-sharing" transform="translate(-146.000000, -114.000000)">
            <g id="1-copy-2" transform="translate(20.000000, 20.000000)">
                <g id="controls" transform="translate(6.000000, 33.000000)">
                    <g id="export-picker" transform="translate(86.000000, 43.000000)">
                        <g id="drawing-tools-types-2-copy" transform="translate(0.000000, 18.000000)">
                            <g id="twitter" transform="translate(34.000000, 0.000000)">
                                <rect id="Rectangle-131" fill="#263051" x="0" y="0" width="30" height="30"></rect>
                                <path d="M22.516,11.722 C22.524,11.884 22.527,12.048 22.527,12.21 C22.527,17.2 18.73,22.952 11.787,22.952 C9.654,22.952 7.671,22.327 6,21.255 C6.296,21.29 6.596,21.308 6.9,21.308 C8.67,21.308 10.297,20.704 11.588,19.693 C9.937,19.662 8.542,18.572 8.062,17.072 C8.292,17.115 8.529,17.138 8.772,17.138 C9.117,17.138 9.451,17.093 9.767,17.007 C8.04,16.659 6.739,15.134 6.739,13.304 L6.739,13.257 C7.248,13.54 7.831,13.71 8.449,13.73 C7.436,13.052 6.769,11.898 6.769,10.587 C6.769,9.896 6.955,9.247 7.281,8.689 C9.142,10.974 11.925,12.476 15.062,12.634 C14.998,12.357 14.965,12.07 14.965,11.773 C14.965,9.689 16.654,8 18.739,8 C19.825,8 20.806,8.457 21.495,9.191 C22.354,9.021 23.162,8.707 23.892,8.275 C23.61,9.156 23.011,9.896 22.232,10.363 C22.996,10.271 23.722,10.07 24.4,9.769 C23.894,10.527 23.254,11.191 22.516,11.722 L22.516,11.722 Z" id="Shape" fill="#FFFFFF"></path>
                            </g>
                        </g>
                    </g>
                </g>
            </g>
        </g>
    </g>
</svg>