<svg id="Layer_1" data-name="Layer 1" xmlns="http://www.w3.org/2000/svg" viewBox="0 0 50 50"><defs><style>.cls-1{fill:#2a3052;}</style></defs><title>twitter</title><path class="cls-1" d="M25,9A16,16,0,1,0,41,25,16,16,0,0,0,25,9Zm7.73,12c0,.17,0,.34,0,.52a11.35,11.35,0,0,1-17.47,9.56,8.36,8.36,0,0,0,.95.06,8,8,0,0,0,5-1.71,4,4,0,0,1-3.73-2.77,4,4,0,0,0,.75.07,4.09,4.09,0,0,0,1.05-.14,4,4,0,0,1-3.2-3.91v0a4,4,0,0,0,1.81.5,4,4,0,0,1-1.23-5.33A11.33,11.33,0,0,0,24.85,22a4,4,0,0,1,3.89-4.9,4,4,0,0,1,2.91,1.26,8,8,0,0,0,2.53-1,4,4,0,0,1-1.76,2.21A8,8,0,0,0,34.72,19,8.14,8.14,0,0,1,32.73,21Z"/></svg>