<?xml version="1.0" encoding="UTF-8" standalone="no"?>
<svg width="30px" height="30px" viewBox="0 0 30 30" version="1.1" xmlns="http://www.w3.org/2000/svg" xmlns:xlink="http://www.w3.org/1999/xlink">
    <!-- Generator: Sketch 3.8.3 (29802) - http://www.bohemiancoding.com/sketch -->
    <title>vk</title>
    <desc>Created with Sketch.</desc>
    <defs>
        <rect id="path-1" x="1" y="1" width="28" height="28"></rect>
    </defs>
    <g id="Page-1" stroke="none" stroke-width="1" fill="none" fill-rule="evenodd">
        <g id="chart-sharing" transform="translate(-248.000000, -114.000000)">
            <g id="1-copy-2" transform="translate(20.000000, 20.000000)">
                <g id="controls" transform="translate(6.000000, 33.000000)">
                    <g id="export-picker" transform="translate(86.000000, 43.000000)">
                        <g id="drawing-tools-types-2-copy" transform="translate(0.000000, 18.000000)">
                            <g id="vk" transform="translate(136.000000, 0.000000)">
                                <rect id="Rectangle-131" fill="#263051" x="0" y="0" width="30" height="30"></rect>
                                <mask id="mask-2" fill="white">
                                    <use xlink:href="#path-1"></use>
                                </mask>
                                <use id="Rectangle-131-Copy" fill="#263051" xlink:href="#path-1"></use>
                                <path d="M22.80209,17.015 C22.80209,17.015 24.41909,18.612 24.81909,19.351 C24.83009,19.367 24.83509,19.379 24.83709,19.386 C25.00009,19.659 25.04009,19.873 24.96009,20.031 C24.82509,20.292 24.36809,20.423 24.21309,20.434 L21.35509,20.434 C21.15609,20.434 20.74209,20.382 20.23809,20.034 C19.85309,19.765 19.47009,19.322 19.09909,18.889 C18.54509,18.246 18.06609,17.688 17.58109,17.688 C17.51909,17.688 17.45909,17.698 17.40109,17.718 C17.03409,17.834 16.56809,18.357 16.56809,19.75 C16.56809,20.186 16.22409,20.434 15.98309,20.434 L14.67409,20.434 C14.22809,20.434 11.90609,20.278 9.84709005,18.107 C7.32409005,15.449 5.05809005,10.117 5.03609005,10.07 C4.89509005,9.725 5.19109005,9.537 5.51109005,9.537 L8.39709005,9.537 C8.78409005,9.537 8.91009005,9.771 8.99809005,9.981 C9.10009005,10.222 9.47809005,11.186 10.09809,12.269 C11.10209,14.031 11.71909,14.748 12.21209,14.748 C12.30509,14.748 12.39309,14.725 12.47609,14.678 C13.12009,14.324 13.00009,12.024 12.97009,11.55 C12.97009,11.458 12.96909,10.523 12.63909,10.071 C12.40309,9.747 12.00109,9.621 11.75809,9.575 C11.82309,9.481 11.96109,9.337 12.13809,9.252 C12.57909,9.032 13.37609,9 14.16709,9 L14.60609,9 C15.46409,9.012 15.68609,9.067 15.99809,9.146 C16.62609,9.296 16.63809,9.703 16.58309,11.089 C16.56709,11.485 16.55009,11.931 16.55009,12.456 C16.55009,12.568 16.54509,12.693 16.54509,12.82 C16.52609,13.531 16.50109,14.332 17.00309,14.661 C17.06709,14.701 17.14209,14.723 17.22009,14.723 C17.39409,14.723 17.91509,14.723 19.32809,12.298 C19.94809,11.227 20.42809,9.964 20.46109,9.869 C20.48909,9.816 20.57309,9.667 20.67509,9.607 C20.75309,9.559 20.85709,9.551 20.91109,9.551 L24.30609,9.551 C24.67609,9.551 24.92709,9.607 24.97609,9.747 C25.05809,9.974 24.96009,10.667 23.41009,12.763 C23.14909,13.112 22.92009,13.414 22.71909,13.678 C21.31409,15.522 21.31409,15.615 22.80209,17.015 L22.80209,17.015 Z" id="Shape" fill="#FFFFFF" mask="url(#mask-2)"></path>
                            </g>
                        </g>
                    </g>
                </g>
            </g>
        </g>
    </g>
</svg>