<?xml version="1.0" encoding="UTF-8"?>
<svg width="16px" height="16px" viewBox="0 0 16 16" version="1.1" xmlns="http://www.w3.org/2000/svg" xmlns:xlink="http://www.w3.org/1999/xlink">
    <!-- Generator: Sketch 46.2 (44496) - http://www.bohemiancoding.com/sketch -->
    <title>icons/workspace</title>
    <desc>Created with Sketch.</desc>
    <defs></defs>
    <g id="Symbols" stroke="none" stroke-width="1" fill="none" fill-rule="evenodd">
        <g id="icons/workspace">
            <rect id="Rectangle-6" stroke="#FFFFFF" x="0.5" y="0.5" width="15" height="15" rx="1"></rect>
            <path d="M1,0 L15,0 C15.5522847,-1.01453063e-16 16,0.44771525 16,1 L16,3 C16,3.55228475 15.5522847,4 15,4 L1,4 C0.44771525,4 6.76353751e-17,3.55228475 0,3 L0,1 L0,1 C-6.76353751e-17,0.44771525 0.44771525,1.01453063e-16 1,0 L1,0 Z M14,3 C14.5522847,3 15,2.55228475 15,2 C15,1.44771525 14.5522847,1 14,1 C13.4477153,1 13,1.44771525 13,2 C13,2.55228475 13.4477153,3 14,3 Z M11,3 C11.5522847,3 12,2.55228475 12,2 C12,1.44771525 11.5522847,1 11,1 C10.4477153,1 10,1.44771525 10,2 C10,2.55228475 10.4477153,3 11,3 Z M8,3 C8.55228475,3 9,2.55228475 9,2 C9,1.44771525 8.55228475,1 8,1 C7.44771525,1 7,1.44771525 7,2 C7,2.55228475 7.44771525,3 8,3 Z" id="Combined-Shape" fill="#FFFFFF"></path>
            <polyline id="Path-5" stroke="#FFFFFF" points="2.49672417 11.5 5.5 8.5 7.5 10.5 10.5 7.5 11.5 8.5 13.5 6.5"></polyline>
        </g>
    </g>
</svg>