<svg width="16" height="16" xmlns="http://www.w3.org/2000/svg"><g fill="none" fill-rule="evenodd"><path d="M5.5 10.5h-4a1 1 0 0 1-1-1v-8a1 1 0 0 1 1-1h13a1 1 0 0 1 1 1v8a1 1 0 0 1-1 1h-4" stroke="#293055" stroke-linecap="round" stroke-linejoin="round"/><path d="M1 0h14a1 1 0 0 1 1 1v2a1 1 0 0 1-1 1H1a1 1 0 0 1-1-1V1a1 1 0 0 1 1-1zm13 3a1 1 0 1 0 0-2 1 1 0 0 0 0 2zm-3 0a1 1 0 1 0 0-2 1 1 0 0 0 0 2zM8 3a1 1 0 1 0 0-2 1 1 0 0 0 0 2z" fill="#293055"/><path stroke="#293055" stroke-linecap="round" stroke-linejoin="round" d="M8 6.5v9l2.5-2.5M8 6.5v9L5.5 13"/></g></svg>