<svg width="16" height="16" xmlns="http://www.w3.org/2000/svg"><g fill="none" fill-rule="evenodd"><path d="M8.917 13.5h-5.73 0a.687.687 0 0 1-.687-.688V3.188h0c0-.38.308-.688.688-.688h6.59c.182 0 .357.072.486.201l3.035 3.035h0a.687.687 0 0 1 .201.486v2.695" stroke="#293055" stroke-linecap="round" stroke-linejoin="round"/><rect stroke="#293055" x="4.5" y="2.5" width="4" height="3" rx="1"/><path d="M8 8h1l6.5 6.5a.707.707 0 1 1-1 1L8 9V8zm5.854 6.854l1-1-.708-.708-1 1 .708.708z" fill="#293055"/></g></svg>