<svg xmlns="http://www.w3.org/2000/svg" width="20" height="20" viewBox="0 0 20 20"><g fill="none" fill-rule="evenodd"><path d="M0 0h20v20H0z"/><g fill="#fff"><path d="M7.059 13.588h-.093c-2.062.004-3.782-1.624-3.952-3.741-.17-2.117 1.265-4.015 3.3-4.361.98-1.745 2.886-2.709 4.827-2.442 1.94.267 3.533 1.712 4.036 3.66 1.734.291 2.958 1.907 2.811 3.71-.147 1.803-1.617 3.186-3.373 3.174h-.062v-.907h.043a2.48 2.48 0 0 0 2.208-1.207c.474-.78.508-1.76.09-2.573a2.493 2.493 0 0 0-2.12-1.366l-.312-.023-.062-.322c-.33-1.71-1.67-3.018-3.346-3.264-1.675-.247-3.318.624-4.098 2.17l-.106.21-.228.026C4.996 6.53 3.8 7.998 3.89 9.682c.09 1.685 1.435 3.007 3.073 3.022h.096v.884z"/><path d="M9.803 15.059V10.94H8.55v4.118h-.697l1.323 2.647 1.324-2.647h-.697zm1.835-3.235h1.254v4.411h-1.254v-4.411zm.627-2.648l1.323 2.648h-2.647l1.324-2.648z"/></g></g></svg>