<svg xmlns="http://www.w3.org/2000/svg" width="537.794" height="537.795" viewBox="0 0 537.794 537.795" fill="#273051"><path d="M463.09 466.114H74.855c-11.857 0-21.497 9.716-21.497 21.497v28.69c0 11.856 9.716 21.495 21.497 21.495h388.084c11.857 0 21.496-9.716 21.496-21.496v-28.69c.23-11.933-9.485-21.496-21.343-21.496zM253.94 427.635c4.208 4.208 9.716 6.35 15.147 6.35a21.197 21.197 0 0 0 15.147-6.35l147.033-147.033c8.34-8.338 8.34-21.955 0-30.447l-20.35-20.35c-8.338-8.338-21.955-8.338-30.446 0l-75.58 75.66V21.497C304.89 9.64 295.172 0 283.392 0h-28.688c-11.857 0-21.497 9.562-21.497 21.497V305.54l-75.658-75.658c-8.34-8.338-22.032-8.338-30.447 0l-20.35 20.35c-8.337 8.337-8.337 22.03 0 30.446L253.94 427.635z"/></svg>