<svg xmlns="http://www.w3.org/2000/svg" width="266" height="55" viewBox="0 0 266 55"><path fill="#FFF" d="M44.953 8.177C34.723-2.06 18.083-2.06 7.853 8.174c-10.23 10.23-10.23 26.88 0 37.11 10.23 10.235 26.877 10.233 37.1-.002 10.242-10.228 10.242-26.88 0-37.105zM106.473 10.077c-.84 0-1.615.105-2.285.316a7.524 7.524 0 0 0-1.85.853 7.75 7.75 0 0 0-1.477 1.23c-.11.113-.217.237-.327.36v-2.334H94.9v21.395h5.633v-11.99c0-1.474.386-2.626 1.147-3.427.762-.805 1.742-1.194 2.983-1.194 1.263 0 2.205.372 2.875 1.144.677.775 1.024 1.92 1.024 3.4v12.067h5.636V18.404c0-2.506-.68-4.54-2.015-6.04-1.342-1.515-3.263-2.287-5.71-2.287zM127.236 10.233c-1.717 0-3.203.16-4.422.478-1.21.32-2.41.745-3.563 1.27l-.372.172 1.563 4.604.447-.184a20.246 20.246 0 0 1 2.69-.913c.866-.225 1.874-.335 2.997-.335 1.502 0 2.666.34 3.447 1.018.728.628 1.105 1.51 1.144 2.702a19.15 19.15 0 0 0-1.977-.46c-.885-.157-1.975-.238-3.24-.238-1.22 0-2.375.14-3.43.422-1.074.283-2.013.728-2.795 1.317a6.22 6.22 0 0 0-1.857 2.256c-.443.9-.667 1.967-.667 3.168v.078c0 1.1.22 2.093.65 2.94.42.843 1 1.562 1.71 2.126.7.563 1.528.995 2.457 1.282.917.283 1.9.43 2.93.43 1.616 0 3.017-.304 4.163-.904a9.875 9.875 0 0 0 2.02-1.39v1.864h5.56V19.34c0-2.853-.788-5.108-2.343-6.7-1.55-1.6-3.943-2.407-7.11-2.407zm-.97 17.702c-1.018 0-1.883-.237-2.568-.7-.63-.433-.94-1.048-.94-1.878v-.08c0-.835.34-1.475 1.042-1.96.75-.513 1.826-.772 3.203-.772.87 0 1.715.074 2.494.22.658.13 1.248.282 1.75.456v.855a3.4 3.4 0 0 1-.354 1.56 3.632 3.632 0 0 1-1.016 1.21c-.453.34-.986.61-1.596.803a6.8 6.8 0 0 1-2.014.287zM165.707 24.862l-5.494-14.36h-5.986l8.727 20.94c-.336.734-.68 1.246-1.03 1.51-.364.28-.82.415-1.397.415-.443 0-.873-.068-1.28-.195a7.576 7.576 0 0 1-1.267-.53l-.418-.223-1.963 4.312.37.196c.74.402 1.523.72 2.32.952.803.227 1.727.344 2.744.344.865 0 1.656-.11 2.348-.33.7-.227 1.35-.587 1.938-1.072.576-.485 1.107-1.115 1.572-1.88.45-.743.89-1.667 1.314-2.748l8.385-21.69h-5.862l-5.02 14.358z"/><path fill="#E88024" d="M202.475 24.957c-.72.72-1.492 1.317-2.293 1.77-.766.44-1.678.662-2.71.662-.833 0-1.604-.16-2.296-.482a5.764 5.764 0 0 1-1.8-1.313 5.948 5.948 0 0 1-1.173-1.95 6.935 6.935 0 0 1-.412-2.405v-.08c0-.82.138-1.613.413-2.365a6.047 6.047 0 0 1 1.143-1.933 5.503 5.503 0 0 1 1.723-1.293 4.987 4.987 0 0 1 2.17-.48c1.104 0 2.038.22 2.78.656.78.455 1.518 1.053 2.215 1.77l.334.34 3.51-3.79-.276-.307a11.95 11.95 0 0 0-3.488-2.663c-1.34-.676-3.037-1.02-5.035-1.02-1.585 0-3.067.303-4.43.892-1.355.59-2.546 1.4-3.534 2.404a11.068 11.068 0 0 0-2.324 3.564 11.352 11.352 0 0 0-.834 4.3v.08c0 1.502.283 2.942.834 4.286a10.898 10.898 0 0 0 2.324 3.522 11.16 11.16 0 0 0 3.516 2.364c1.342.58 2.828.873 4.408.873 2.06 0 3.795-.38 5.148-1.123a13.39 13.39 0 0 0 3.57-2.873l.29-.316-3.462-3.406-.31.313zM227.5 13.336a11.016 11.016 0 0 0-3.602-2.388c-1.375-.578-2.91-.87-4.54-.87-1.634 0-3.157.302-4.54.89-1.385.59-2.59 1.397-3.596 2.406a11.22 11.22 0 0 0-2.387 3.535 10.93 10.93 0 0 0-.87 4.33v.078c0 1.502.286 2.944.845 4.287a10.733 10.733 0 0 0 2.377 3.52c1.006.996 2.215 1.79 3.598 2.37 1.377.574 2.893.868 4.494.868 1.626 0 3.167-.3 4.565-.893a11.24 11.24 0 0 0 3.613-2.4 11.305 11.305 0 0 0 2.387-3.54c.582-1.344.87-2.79.87-4.292v-.08a11.03 11.03 0 0 0-.85-4.308 10.978 10.978 0 0 0-2.365-3.514zm-8.143 14.054a5.44 5.44 0 0 1-2.3-.48 5.817 5.817 0 0 1-1.825-1.333 6.344 6.344 0 0 1-1.2-1.958 6.493 6.493 0 0 1-.437-2.38v-.08c0-.824.137-1.62.398-2.37a5.502 5.502 0 0 1 1.143-1.92 5.615 5.615 0 0 1 1.807-1.295c.693-.32 1.48-.483 2.336-.483.858 0 1.647.162 2.34.483.706.32 1.32.764 1.83 1.314.507.548.917 1.205 1.2 1.95a6.73 6.73 0 0 1 .432 2.4v.078c0 .82-.13 1.614-.395 2.353a5.893 5.893 0 0 1-1.145 1.928c-.5.545-1.105.982-1.8 1.31-.703.32-1.5.482-2.385.482zM263.79 12.256c-1.347-1.444-3.247-2.18-5.624-2.18-1.627 0-3.055.357-4.25 1.063-.988.58-1.87 1.33-2.645 2.228a6.93 6.93 0 0 0-2.167-2.217c-1.082-.71-2.424-1.073-3.98-1.073-.808 0-1.565.105-2.235.316a6.728 6.728 0 0 0-1.822.86 8.093 8.093 0 0 0-1.412 1.198c-.11.114-.205.23-.307.344v-2.292h-5.633v21.395h5.633V19.944c0-1.477.365-2.64 1.088-3.457.717-.81 1.643-1.2 2.83-1.2 1.184 0 2.074.365 2.707 1.116.652.763.98 1.905.98 3.39V31.9h5.633v-11.99c0-1.526.365-2.695 1.096-3.467.73-.78 1.65-1.154 2.825-1.154 1.18 0 2.072.366 2.707 1.117.645.763.98 1.92.98 3.427v12.067h5.626V18.365c0-2.615-.68-4.67-2.027-6.11z"/><g fill="#FFF"><path d="M86.26 10.503h5.64v21.395h-5.64zM92.202 5.5c0-1.725-1.4-3.123-3.125-3.123A3.118 3.118 0 0 0 85.96 5.5a3.117 3.117 0 0 0 3.117 3.118 3.122 3.122 0 0 0 3.125-3.12z"/></g><path fill="#E88024" d="M183.477 29.244a3.12 3.12 0 0 0-3.117-3.123 3.123 3.123 0 0 0-3.125 3.124c0 1.72 1.4 3.12 3.125 3.12 1.72 0 3.117-1.4 3.117-3.12z"/><path fill="#FFF" d="M81.586 18.836a7.967 7.967 0 0 0-1.875-1.484c-.448-.256-.938-.495-1.45-.715l-.316-.132.285-.186c.242-.157.488-.33.726-.517.528-.4.99-.875 1.375-1.405a6.98 6.98 0 0 0 .945-1.854c.243-.702.365-1.518.365-2.43v-.083c0-1.973-.684-3.658-2.034-5.004-1.748-1.76-4.36-2.65-7.75-2.65h-13.25v29.52h13.662c1.617 0 3.11-.176 4.446-.527 1.35-.353 2.52-.874 3.48-1.55a7.216 7.216 0 0 0 2.262-2.588c.523-1.028.8-2.23.8-3.57v-.08c0-1.02-.147-1.93-.437-2.7a6.05 6.05 0 0 0-1.234-2.046zm-17.343-4.45V7.48h6.994c1.566 0 2.775.302 3.584.91.794.59 1.177 1.397 1.177 2.467v.082c0 1.228-.437 2.11-1.344 2.702-.934.618-2.21.925-3.795.925h-6.615v-.18zm13.373 8.744c0 1.225-.448 2.117-1.36 2.727-.93.623-2.25.94-3.908.94h-8.105V19.455H71.98c1.93 0 3.378.327 4.3.965.895.618 1.338 1.48 1.338 2.625v.085zM152.164 10.117c-1.91-.082-3.527.38-4.797 1.38a8.768 8.768 0 0 0-2.03 2.243v-3.237h-5.634v21.395h5.635v-8.25c0-1.293.16-2.44.484-3.414.313-.952.762-1.753 1.334-2.378a5.534 5.534 0 0 1 2.055-1.4c.796-.312 1.69-.473 2.667-.473h.693v-5.848l-.406-.018z"/><g fill="#FFF"><path d="M58.885 47.623l1.47-.136-.012.39c0 .434.09.83.293 1.188.2.358.528.64.984.833.46.2 1.008.296 1.638.296.9 0 1.586-.197 2.056-.59.475-.392.707-.84.707-1.347a1.43 1.43 0 0 0-.37-.96c-.26-.29-.952-.677-2.092-1.167-.886-.382-1.48-.674-1.804-.88-.5-.33-.878-.69-1.118-1.08a2.51 2.51 0 0 1-.358-1.338c0-.576.154-1.092.472-1.557.32-.465.78-.82 1.39-1.063.606-.244 1.295-.37 2.06-.37.91 0 1.682.154 2.31.46.624.308 1.08.716 1.363 1.224.286.512.43.998.43 1.462 0 .047-.005.122-.012.23l-1.442.11c0-.312-.03-.56-.085-.735a2.042 2.042 0 0 0-.476-.794c-.213-.21-.512-.384-.88-.513a3.856 3.856 0 0 0-1.263-.198c-.816 0-1.448.186-1.902.553-.353.28-.518.653-.518 1.115 0 .276.07.52.21.738.146.218.404.43.775.64.264.148.898.44 1.89.877.808.36 1.363.64 1.665.844.41.27.717.596.94.98.22.39.332.822.332 1.314 0 .605-.187 1.168-.557 1.68-.372.512-.88.907-1.526 1.186-.66.286-1.408.423-2.248.423-1.27 0-2.305-.276-3.106-.83-.81-.555-1.21-1.55-1.215-2.987zM69.065 51.25l2.34-11.214h1.383l-.89 4.31c.51-.505.985-.86 1.433-1.08.445-.215.9-.32 1.373-.32.673 0 1.193.175 1.567.528.374.355.563.823.563 1.403 0 .286-.085.81-.25 1.576l-1 4.796h-1.386l1.033-4.92c.15-.712.22-1.163.22-1.345a.835.835 0 0 0-.275-.65c-.182-.17-.45-.252-.79-.252-.505 0-.98.13-1.433.394-.457.26-.813.623-1.064 1.076-.26.458-.494 1.194-.71 2.208l-.73 3.49h-1.383zM83.572 50.24c-.486.41-.944.716-1.39.905a3.545 3.545 0 0 1-1.423.287c-.745 0-1.36-.22-1.813-.66-.46-.44-.688-1.008-.688-1.695 0-.456.103-.858.31-1.206.21-.347.478-.625.823-.837.34-.213.755-.364 1.25-.457.313-.06.9-.11 1.773-.146.867-.034 1.492-.125 1.873-.275.1-.375.157-.688.157-.94 0-.32-.118-.572-.353-.756-.325-.257-.787-.385-1.408-.385-.58 0-1.054.128-1.425.387-.373.257-.637.623-.806 1.1l-1.398-.126c.28-.805.736-1.423 1.356-1.85.62-.43 1.4-.64 2.34-.64 1.01 0 1.798.237 2.387.716.448.358.672.82.672 1.393 0 .435-.064.935-.19 1.508l-.452 2.02c-.146.64-.213 1.163-.213 1.567 0 .254.054.62.168 1.1h-1.4a4.848 4.848 0 0 1-.153-1.01zm.51-3.104a3.352 3.352 0 0 1-.623.173c-.227.04-.6.085-1.116.13-.808.07-1.372.163-1.71.27-.326.113-.577.29-.75.525-.163.238-.25.505-.25.794 0 .39.13.706.402.957.27.25.65.373 1.144.373.46 0 .896-.12 1.324-.36.42-.243.758-.58 1.003-1.018.245-.43.436-1.048.574-1.846zM87.113 51.25l1.703-8.127h1.223l-.346 1.664c.417-.63.827-1.093 1.228-1.396.4-.296.806-.445 1.228-.445.277 0 .616.097 1.017.295l-.57 1.29c-.24-.177-.498-.264-.783-.264-.485 0-.985.27-1.49.812-.51.54-.91 1.51-1.205 2.915l-.684 3.257h-1.323zM91.966 54.36l2.346-11.237h1.276l-.235 1.135c.475-.493.898-.838 1.27-1.03.377-.188.772-.283 1.194-.283.77 0 1.416.282 1.926.843.507.565.766 1.37.766 2.422 0 .845-.145 1.618-.423 2.312-.28.698-.63 1.26-1.033 1.68-.41.425-.825.735-1.238.936a3.018 3.018 0 0 1-1.285.297c-.972 0-1.73-.495-2.267-1.485l-.916 4.414h-1.38zm2.737-6.43c0 .606.045 1.026.127 1.26.13.336.34.603.633.808.285.202.622.302 1.003.302.798 0 1.444-.447 1.932-1.34.488-.896.73-1.81.73-2.74 0-.692-.162-1.223-.49-1.6-.33-.376-.74-.56-1.23-.56-.35 0-.68.092-.98.28-.3.185-.577.464-.836.832-.262.37-.467.82-.64 1.36-.167.53-.25 1.002-.25 1.398zM106.486 51.25l2.345-11.214h4.685c.81 0 1.42.094 1.827.278.406.188.74.506 1.004.956.264.452.397.957.397 1.518 0 .467-.09.938-.282 1.417-.187.48-.427.876-.712 1.187-.29.312-.582.545-.878.703a3.736 3.736 0 0 1-.944.35 9.56 9.56 0 0 1-2.18.252h-2.81l-.95 4.553h-1.5zm2.717-5.822h2.47c.96 0 1.666-.103 2.115-.31a2.5 2.5 0 0 0 1.075-.94c.27-.427.408-.877.408-1.35 0-.368-.074-.67-.218-.9-.142-.23-.34-.4-.6-.51-.262-.11-.76-.166-1.5-.166h-2.88l-.87 4.176zM117.094 51.25l1.702-8.127h1.222l-.348 1.664c.423-.63.83-1.093 1.233-1.396.396-.296.807-.445 1.228-.445.272 0 .614.097 1.02.295l-.57 1.29a1.31 1.31 0 0 0-.787-.264c-.484 0-.982.27-1.488.812-.51.54-.91 1.51-1.198 2.915l-.696 3.257h-1.316zM122.57 51.25l1.703-8.127h1.375l-1.69 8.126h-1.39zm2.02-9.647l.33-1.566h1.38l-.33 1.566h-1.38zM132.025 48.29l1.385.145c-.35 1.015-.844 1.766-1.48 2.26a3.506 3.506 0 0 1-2.185.738c-.883 0-1.596-.285-2.145-.855-.553-.575-.824-1.37-.824-2.396 0-.884.176-1.76.523-2.615.353-.858.862-1.51 1.517-1.956.656-.442 1.398-.665 2.244-.665.87 0 1.567.245 2.07.737.517.492.767 1.142.767 1.954l-1.357.09c-.008-.517-.16-.916-.45-1.208-.296-.288-.677-.435-1.16-.435a2.11 2.11 0 0 0-1.44.53c-.41.347-.73.884-.965 1.597a6.636 6.636 0 0 0-.352 2.07c0 .698.158 1.213.465 1.563.303.347.678.518 1.135.518.443 0 .873-.167 1.283-.51.413-.34.735-.864.97-1.56zM140.533 48.488l1.348.137c-.198.668-.644 1.305-1.337 1.904-.695.603-1.53.902-2.492.902-.6 0-1.15-.14-1.655-.417a2.724 2.724 0 0 1-1.143-1.213c-.266-.53-.4-1.13-.4-1.81 0-.89.21-1.75.62-2.584.41-.834.942-1.452 1.59-1.858a3.94 3.94 0 0 1 2.122-.606c.97 0 1.738.298 2.318.9.582.603.875 1.423.875 2.463 0 .397-.04.805-.107 1.227h-5.982c-.023.157-.03.297-.03.424 0 .762.17 1.342.524 1.742.348.4.77.6 1.275.6.48 0 .943-.154 1.404-.465.46-.31.813-.76 1.073-1.347zm-4.027-2.01h4.56c.003-.144.01-.247.01-.304 0-.698-.175-1.23-.52-1.6-.353-.37-.794-.552-1.34-.552-.59 0-1.13.203-1.622.61-.483.41-.848 1.022-1.088 1.846zM143.72 48.47l1.384-.08c0 .396.06.735.18 1.016.127.282.352.51.68.693.328.172.713.26 1.148.26.615 0 1.076-.12 1.383-.362.307-.247.455-.536.455-.868 0-.236-.094-.464-.27-.68-.194-.214-.653-.476-1.382-.79-.732-.314-1.2-.535-1.408-.663a2.294 2.294 0 0 1-.77-.74 1.837 1.837 0 0 1-.26-.974c0-.64.253-1.192.763-1.65.514-.457 1.227-.688 2.146-.688 1.015 0 1.792.235 2.325.706.537.472.813 1.094.83 1.866l-1.355.09c-.016-.492-.19-.877-.518-1.162-.326-.287-.793-.432-1.385-.432-.48 0-.855.11-1.115.334-.268.214-.398.453-.398.708 0 .256.115.477.344.67.152.136.55.338 1.186.615 1.06.458 1.727.817 2.004 1.084.438.425.656.94.656 1.548 0 .4-.123.793-.37 1.185-.243.387-.626.698-1.134.93-.506.232-1.1.347-1.79.347-.94 0-1.737-.23-2.396-.695s-.972-1.222-.935-2.27zM152.115 51.25l.334-1.568h1.567l-.346 1.567h-1.555zM161.646 47.623l1.47-.136-.02.39c0 .434.1.83.298 1.188.2.358.53.64.986.833.46.2 1.01.296 1.645.296.893 0 1.578-.197 2.047-.59.475-.392.71-.84.71-1.347 0-.352-.124-.673-.372-.96-.256-.29-.95-.677-2.086-1.167-.893-.382-1.484-.674-1.81-.88-.5-.33-.88-.69-1.12-1.08a2.528 2.528 0 0 1-.355-1.338c0-.576.157-1.092.472-1.557.32-.465.78-.82 1.39-1.063.612-.244 1.296-.37 2.063-.37.906 0 1.68.154 2.305.46.633.308 1.088.716 1.365 1.224.287.512.428.998.428 1.462 0 .047-.004.122-.01.23l-1.443.11c0-.312-.027-.56-.086-.735a1.95 1.95 0 0 0-.475-.794c-.214-.21-.51-.384-.88-.513a3.867 3.867 0 0 0-1.262-.198c-.813 0-1.45.186-1.906.553-.346.28-.516.653-.516 1.115 0 .276.072.52.215.738.142.218.4.43.772.64.26.148.895.44 1.887.877.808.36 1.362.64 1.665.844.41.27.725.596.943.98.22.39.328.822.328 1.314a2.85 2.85 0 0 1-.553 1.68c-.37.512-.88.907-1.533 1.186-.652.286-1.4.423-2.244.423-1.266 0-2.303-.276-3.11-.83-.8-.555-1.206-1.55-1.21-2.987zM171.818 51.25l1.697-8.127h1.385l-.285 1.34c.518-.575.98-.97 1.385-1.192a2.778 2.778 0 0 1 1.318-.325c.504 0 .93.13 1.266.4.338.266.563.643.672 1.118.414-.506.846-.89 1.305-1.14.454-.252.94-.38 1.442-.38.68 0 1.188.16 1.523.48.34.318.508.774.508 1.354 0 .252-.057.665-.174 1.24l-1.1 5.23h-1.38l1.115-5.37c.098-.436.146-.75.146-.94 0-.264-.085-.475-.25-.628-.17-.152-.407-.228-.714-.228-.408 0-.832.122-1.26.375a2.61 2.61 0 0 0-.996.98c-.238.405-.45 1.03-.625 1.87l-.828 3.94h-1.387l1.152-5.485c.078-.37.117-.635.117-.794 0-.267-.083-.478-.25-.643a.877.877 0 0 0-.644-.244c-.393 0-.805.123-1.234.376a2.94 2.94 0 0 0-1.05 1.043c-.272.444-.5 1.082-.67 1.908l-.802 3.84h-1.382zM190.666 50.24c-.48.41-.945.716-1.383.905-.445.192-.92.287-1.43.287-.744 0-1.354-.22-1.81-.66-.462-.44-.685-1.008-.685-1.695 0-.456.102-.858.307-1.206s.48-.625.826-.837c.34-.213.76-.364 1.253-.457.307-.06.898-.11 1.77-.146.87-.034 1.494-.125 1.873-.275.107-.375.16-.688.16-.94 0-.32-.12-.572-.352-.756-.324-.257-.793-.385-1.408-.385-.58 0-1.06.128-1.428.387-.373.257-.64.623-.807 1.1l-1.395-.126c.283-.805.732-1.423 1.36-1.85.614-.43 1.395-.64 2.34-.64 1.005 0 1.798.237 2.384.716.448.358.67.82.67 1.393 0 .435-.062.935-.188 1.508l-.45 2.02c-.147.64-.216 1.163-.216 1.567 0 .254.057.62.168 1.1h-1.396a4.78 4.78 0 0 1-.162-1.01zm.512-3.104a3.238 3.238 0 0 1-.627.173c-.218.04-.59.085-1.103.13-.81.07-1.383.163-1.71.27-.33.113-.58.29-.75.525-.17.238-.253.505-.253.794 0 .39.135.706.402.957.27.25.645.373 1.146.373.453 0 .898-.12 1.318-.36a2.59 2.59 0 0 0 1.002-1.018c.252-.43.433-1.048.576-1.846zM194.217 51.25l1.697-8.127h1.22l-.343 1.664c.42-.63.83-1.093 1.228-1.396.398-.296.81-.445 1.23-.445.27 0 .61.097 1.018.295l-.568 1.29a1.29 1.29 0 0 0-.785-.264c-.49 0-.984.27-1.498.812-.506.54-.904 1.51-1.193 2.915l-.69 3.257h-1.315zM202.98 50.126l-.23 1.132c-.33.085-.655.13-.968.13-.547 0-.984-.135-1.313-.408-.247-.204-.366-.48-.366-.83 0-.18.066-.59.195-1.232l.985-4.72h-1.09l.22-1.074h1.095l.418-1.992 1.582-.96-.62 2.952h1.366l-.232 1.075h-1.352l-.945 4.484c-.117.573-.17.917-.17 1.027 0 .166.047.29.14.377.087.085.247.13.46.13.31 0 .58-.03.823-.09zM212.11 51.25l2.075-9.937h-3.678l.264-1.277h8.827l-.268 1.277h-3.647l-2.07 9.936h-1.504zM217.793 51.25l1.697-8.127h1.22l-.34 1.664c.42-.63.83-1.093 1.228-1.396.4-.296.807-.445 1.232-.445.27 0 .613.097 1.016.295l-.566 1.29a1.318 1.318 0 0 0-.793-.264c-.484 0-.98.27-1.486.812-.51.54-.907 1.51-1.2 2.915l-.69 3.257h-1.317zM228.8 50.24c-.478.41-.944.716-1.384.905-.445.192-.92.287-1.418.287-.754 0-1.36-.22-1.814-.66-.463-.44-.69-1.008-.69-1.695 0-.456.103-.858.308-1.206.21-.347.48-.625.822-.837.342-.213.762-.364 1.256-.457.31-.06.902-.11 1.768-.146.875-.034 1.496-.125 1.873-.275.108-.375.16-.688.16-.94 0-.32-.118-.572-.35-.756-.325-.257-.794-.385-1.407-.385-.582 0-1.057.128-1.428.387-.37.257-.635.623-.807 1.1l-1.402-.126c.287-.805.74-1.423 1.36-1.85s1.4-.64 2.343-.64c1 0 1.798.237 2.384.716.45.358.672.82.672 1.393 0 .435-.06.935-.188 1.508l-.453 2.02c-.14.64-.217 1.163-.217 1.567 0 .254.06.62.17 1.1h-1.395c-.082-.267-.13-.6-.164-1.01zm.51-3.104a3.12 3.12 0 0 1-.622.173c-.22.04-.59.085-1.107.13-.808.07-1.38.163-1.704.27-.336.113-.586.29-.756.525a1.36 1.36 0 0 0-.248.794c0 .39.135.706.4.957.268.25.646.373 1.14.373.464 0 .9-.12 1.323-.36.428-.243.758-.58 1.01-1.018.235-.43.425-1.048.566-1.846zM237.826 50.072c-.79.906-1.615 1.36-2.48 1.36-.77 0-1.41-.28-1.923-.853-.516-.57-.768-1.396-.768-2.473 0-.994.2-1.898.604-2.713.41-.82.915-1.432 1.526-1.84.604-.41 1.217-.61 1.826-.61 1.014 0 1.773.482 2.287 1.458l.92-4.367h1.38l-2.342 11.213h-1.277l.246-1.176zm-3.79-2.225c0 .566.05 1.01.165 1.337.112.327.306.598.573.816.273.215.59.32.975.32.623 0 1.193-.323 1.703-.977.68-.867 1.028-1.937 1.028-3.213 0-.64-.168-1.143-.512-1.506a1.66 1.66 0 0 0-1.27-.542c-.326 0-.63.073-.906.22-.27.15-.54.397-.81.755-.267.354-.493.805-.673 1.35-.184.547-.272 1.027-.272 1.44zM241.32 51.25l1.697-8.127h1.38l-1.692 8.126h-1.385zm2.02-9.647l.328-1.566h1.377l-.328 1.566h-1.377zM245.168 51.25l1.7-8.127h1.25l-.296 1.42c.545-.556 1.055-.964 1.53-1.217.468-.255.958-.382 1.454-.382.652 0 1.166.178 1.55.535.372.356.556.83.556 1.428 0 .3-.063.775-.193 1.422l-1.038 4.92H250.3l1.077-5.148c.105-.5.164-.87.164-1.11a.828.828 0 0 0-.286-.656c-.184-.17-.447-.252-.805-.252-.708 0-1.34.256-1.894.767-.55.51-.96 1.382-1.22 2.623l-.786 3.777h-1.382zM254.115 51.98l1.404.135c-.02.315.022.552.108.71.088.16.22.28.41.366.248.115.58.168.975.168.84 0 1.438-.215 1.81-.647.237-.29.456-.926.663-1.898l.137-.655c-.717.73-1.486 1.093-2.293 1.093-.824 0-1.51-.303-2.063-.906-.557-.604-.828-1.462-.828-2.565 0-.914.214-1.753.65-2.52.433-.762.954-1.34 1.554-1.73.604-.39 1.223-.584 1.857-.584 1.07 0 1.888.502 2.466 1.514l.273-1.335h1.27l-1.637 7.842c-.18.863-.41 1.532-.705 2.02a2.938 2.938 0 0 1-1.205 1.12c-.52.263-1.12.395-1.8.395-.65 0-1.214-.082-1.688-.254-.467-.166-.82-.412-1.05-.74-.23-.32-.35-.69-.35-1.11.003-.13.017-.265.04-.417zm1.733-4.327c0 .557.045.976.16 1.256.148.39.367.69.648.895.29.21.598.313.947.313.453 0 .906-.162 1.355-.48.45-.32.81-.812 1.09-1.478.273-.67.416-1.31.416-1.912 0-.67-.182-1.2-.56-1.596a1.777 1.777 0 0 0-1.366-.593c-.338 0-.666.088-.984.27-.31.18-.61.456-.883.826-.27.37-.48.812-.616 1.324-.14.518-.206.91-.206 1.173zM263.602 51.25l.328-1.568h1.566l-.336 1.567h-1.558z"/></g><g fill="#2A3052"><path d="M19.092 33.61s.3 2.25 2.196 3.293l-.504-.94s.964-2.53-1.692-2.353z"/><path d="M43.626 9.504C34.126 0 18.68 0 9.18 9.5c-9.496 9.5-9.496 24.957 0 34.46 9.5 9.5 24.952 9.496 34.446-.003 9.508-9.5 9.508-24.956 0-34.453zm-2.518 31.934c-.267.26-.526.514-.796.757-5.852 4.77-10.36 2.396-10.41 2.396-3.055-.61-4.57-.62-5.428-1.192-.215-.145-.907-.516-1.065-.426-.625.372-1.482.562-2.365-.14-.08-.065-.152-.136-.22-.2-.972-.97-.642-1.97-.32-2.317.225-.228-.17-.866-.17-.866s-1.146-1.705-1.93-2.73c-.864-1.126-.98-3.36-.992-3.39l-.01-.03c-.873-1.036-.964-1.354-1.265-1.86-.176-.298-.446-.578-.675-.818a4.336 4.336 0 0 1-.406-.446c-.024-.03-.03-.074-.02-.143.08-.483 1.12-1.55 1.343-1.698.275-.18 1.46-.9 1.46-.9s.667-1.046 1.8-1.046c1.023.004 1.647-.058 3.41.518l.735.232c1.23.395 2.313.86 3.175 1.23.73.316 1.315.57 1.764.688 1.52.4 4.206-.83 4.77-1.352.93-.845 1.33-1.41 1.336-1.875.008-.26-.107-.486-.37-.762-.137-.126-.314-.36-.535-.585-.035-.035-.072-.076-.117-.11-2.576-2.734-2.13-4.45-2.127-4.478.11-1.23-.594-2.02-1.352-2.838l-.125-.154c-.04-.036-.088-.1-.088-.1 1.097.18 1.844.622 3.986.86 1.218.132.834.12 1.806.096 1.34-.044 2.4-.16 2.473-.466-.13-.11-.724.033-3.568-1.054-1.316-.506-1.524-.58-2.362-.857-1.076-.363-2.242-.866-2.242-.866 4.64 1.218 6.157 1.694 8.28 1.724a6.665 6.665 0 0 0 1.596-.142c.302-.055 1.24-.268 1.345-.592.03-.056-.9.153-2.62-.414-5.417-1.79-5.877-2.686-8.88-3.853-1.045-.407-1.387-.632-4.55-1.447-1.45-.37-3.64-.158-3.936.028-4.106-.964-5.04-.858-6.244-.6C23.232 4.07 34.08 5 41.106 12.027c.952.954 1.796 1.98 2.535 3.068l.1.15c2.255 3.375 3.458 7.336 3.458 11.484.002 5.557-2.162 10.776-6.09 14.71zm-13.636-23.48c2.04.727 2.692 2.898 2.692 2.898-2.59.59-2.044-2.056-2.044-2.056l-.648-.842z"/></g></svg>