<svg xmlns="http://www.w3.org/2000/svg" width="300" height="300" viewBox="0 0 300 300"><path fill="#FFF" d="M254.303 45.672c-57.53-57.56-151.112-57.56-208.66-.02-57.523 57.528-57.523 151.156 0 208.683 57.548 57.56 151.16 57.55 208.655-.01 57.6-57.516 57.6-151.144.005-208.653z"/><g fill="#F2F2F2"><path d="M108.857 188.7s1.698 12.653 12.348 18.514l-2.833-5.284c.005 0 5.42-14.237-9.515-13.23z"/><path d="M246.837 53.137C193.41-.3 106.537-.3 53.12 53.125c-53.413 53.417-53.413 140.34 0 193.767 53.417 53.428 140.32 53.407 193.717-.01 53.48-53.416 53.48-140.34 0-193.745zm-14.16 179.576c-1.497 1.46-2.958 2.887-4.473 4.254-32.91 26.818-58.258 13.478-58.548 13.478-17.182-3.432-25.705-3.483-30.53-6.706-1.21-.812-5.096-2.902-5.987-2.395-3.51 2.09-8.335 3.16-13.296-.79-.445-.356-.858-.76-1.242-1.125-5.47-5.45-3.608-11.067-1.79-13.027 1.256-1.278-.965-4.872-.965-4.872s-6.45-9.58-10.854-15.346c-4.856-6.332-5.517-18.888-5.573-19.056l-.063-.177c-4.91-5.823-5.417-7.615-7.11-10.454-.994-1.68-2.507-3.252-3.797-4.604-.886-.885-1.707-1.724-2.283-2.51-.132-.167-.162-.412-.11-.8.445-2.718 6.29-8.715 7.554-9.55 1.552-1.003 8.21-5.054 8.21-5.054s3.75-5.888 10.132-5.888c5.752.033 9.256-.317 19.184 2.913l4.122 1.31c6.92 2.216 13.014 4.83 17.858 6.92 4.112 1.775 7.398 3.204 9.923 3.866 8.558 2.25 23.65-4.674 26.83-7.597 5.23-4.75 7.48-7.936 7.514-10.545.042-1.466-.608-2.744-2.086-4.294-.77-.705-1.76-2.032-3.007-3.29-.197-.197-.403-.428-.66-.606-14.484-15.384-11.976-25.028-11.96-25.185.62-6.92-3.347-11.362-7.604-15.965l-.704-.864c-.224-.204-.497-.56-.497-.56 6.172 1.01 10.374 3.493 22.422 4.833 6.842.738 4.684.675 10.147.54 7.533-.24 13.498-.9 13.907-2.61-.732-.623-4.063.18-20.058-5.926-7.406-2.84-8.574-3.257-13.283-4.82-6.054-2.04-12.612-4.865-12.612-4.865 26.094 6.846 34.63 9.527 46.567 9.69 4.616.09 7.36-.47 8.975-.8 1.696-.304 6.96-1.5 7.563-3.322.183-.32-5.056.86-14.737-2.336-30.457-10.064-33.05-15.097-49.93-21.665-5.888-2.284-7.806-3.54-25.59-8.13-8.15-2.095-20.472-.89-22.143.156C99 49.513 93.757 50.104 86.98 51.566c45.17-28.966 106.18-23.75 145.7 15.767a119.755 119.755 0 0 1 14.26 17.264l.554.836c12.684 18.98 19.45 41.255 19.45 64.58-.006 31.233-12.176 60.582-34.266 82.7zm-76.693-132.027c11.462 4.085 15.146 16.29 15.146 16.29-14.576 3.327-11.504-11.556-11.504-11.556l-3.642-4.734z"/></g></svg>