<svg xmlns="http://www.w3.org/2000/svg" width="76" height="76"><path d="M25.333 42.75c1.186 0 2.31.26 3.32.728l6.293-6.293-2.363-2.363-2.24 2.24-2.24-2.24.93-.93c-1.89-.74-3.31-2.243-5.56-4.493-4.637-4.638-7.288-9.505-5.433-11.36 1.855-1.855 5.93.004 10.568 4.642 2.25 2.25 4.544 4.46 5.284 6.352l.93-.93 2.24 2.24-2.24 2.24 2.363 2.362 6.293-6.293a7.917 7.917 0 0 1 10.082-10.69l-6.06 6.06 4.478 4.477 6.06-6.06a7.917 7.917 0 0 1-9.816 10.425l-6.56 6.56 9.217 9.215.558-.56 5.446 5.445-3.36 3.36-5.444-5.447.56-.56-9.216-9.215-6.56 6.56a7.917 7.917 0 0 1-10.425 9.816l6.06-6.06-4.478-4.48-6.06 6.06a7.917 7.917 0 0 1 7.37-10.81z"/></svg>