<svg xmlns="http://www.w3.org/2000/svg" width="18" height="17" viewBox="0 0 18 17"><g fill="none" fill-rule="evenodd"><path d="M-1-2h20v20H-1z"/><g fill="#fff"><path d="M5.1 12h-.106C2.657 12.004.71 10.16.516 7.76c-.194-2.4 1.433-4.55 3.739-4.943C5.367.84 7.527-.253 9.725.05c2.2.302 4.006 1.94 4.576 4.149 1.964.33 3.352 2.16 3.185 4.204-.166 2.043-1.832 3.61-3.822 3.597h-.071v-1.028h.05a2.812 2.812 0 0 0 2.502-1.368 2.994 2.994 0 0 0 .1-2.917 2.826 2.826 0 0 0-2.4-1.548l-.355-.025-.07-.365c-.373-1.937-1.893-3.421-3.792-3.7-1.898-.279-3.76.708-4.644 2.46l-.12.238-.259.029c-1.843.226-3.198 1.888-3.096 3.797.102 1.91 1.626 3.408 3.482 3.424H5.1V12z"/><path d="M8.21 13.667V9H6.79v4.667H6l1.5 3 1.5-3h-.79zM10.29 10h1.42v5h-1.42v-5zM11 7l1.5 3h-3L11 7z"/></g></g></svg>