<svg width="30" height="30" viewBox="0 0 30 30" xmlns="http://www.w3.org/2000/svg" xmlns:xlink="http://www.w3.org/1999/xlink"><title>vk</title><defs><path id="a" d="M1 1h28v28H1z"/></defs><g fill="none" fill-rule="evenodd"><path fill="#263051" d="M0 0h30v30H0z"/><mask id="b" fill="#fff"><use xlink:href="#a"/></mask><use fill="#263051" xlink:href="#a"/><path d="M22.802 17.015s1.617 1.597 2.017 2.336a.127.127 0 0 1 .018.035c.163.273.203.487.123.645-.135.261-.592.392-.747.403h-2.858c-.199 0-.613-.052-1.117-.4-.385-.269-.768-.712-1.139-1.145-.554-.643-1.033-1.201-1.518-1.201a.548.548 0 0 0-.18.03c-.367.116-.833.639-.833 2.032 0 .436-.344.684-.585.684h-1.309c-.446 0-2.768-.156-4.827-2.327-2.523-2.658-4.789-7.99-4.81-8.037-.142-.345.154-.533.474-.533h2.886c.387 0 .513.234.601.444.102.241.48 1.205 1.1 2.288 1.004 1.762 1.621 2.479 2.114 2.479a.527.527 0 0 0 .264-.07c.644-.354.524-2.654.494-3.128 0-.092 0-1.027-.33-1.479-.237-.324-.639-.45-.882-.496.065-.094.203-.238.38-.323.441-.22 1.238-.252 2.03-.252h.438c.858.012 1.08.067 1.392.146.628.15.64.557.585 1.943-.016.396-.033.842-.033 1.367 0 .112-.005.237-.005.364-.019.711-.044 1.512.458 1.841a.41.41 0 0 0 .217.062c.174 0 .695 0 2.108-2.425.62-1.071 1.1-2.334 1.133-2.429.028-.053.112-.202.214-.262a.479.479 0 0 1 .236-.056h3.395c.37 0 .621.056.67.196.082.227-.016.92-1.566 3.016-.26.349-.49.651-.69.915-1.406 1.844-1.406 1.937.082 3.337z" fill="#FFF" mask="url(#b)"/></g></svg>