<svg width="30" height="30" viewBox="0 0 30 30" xmlns="http://www.w3.org/2000/svg" xmlns:xlink="http://www.w3.org/1999/xlink"><title>blogger</title><defs><path id="a" d="M1 1h28v28H1z"/></defs><g fill="none" fill-rule="evenodd"><path fill="#263051" d="M0 0h30v30H0z"/><mask id="b" fill="#fff"><use xlink:href="#a"/></mask><use fill="#263051" xlink:href="#a"/><path d="M22.895 17.833A5.167 5.167 0 0 1 17.728 23h-5.561A5.167 5.167 0 0 1 7 17.833v-5.666A5.167 5.167 0 0 1 12.167 7h2.607a5.167 5.167 0 0 1 5.167 5.167l.001.011c.038.536.485.96 1.03.96l.02-.002h.871c.571 0 1.034.463 1.034 1.034l-.002 3.663zm-6.938-5.65a.993.993 0 0 1-.993.993h-2.926a.993.993 0 0 1 0-1.986h2.926c.548 0 .993.444.993.993zm2.888 5.762a.94.94 0 0 1-.94.94h-5.873a.94.94 0 0 1 0-1.88h5.874c.518 0 .939.421.939.94z" fill="#FFF" mask="url(#b)"/></g></svg>