<svg id="Layer_1" data-name="Layer 1" xmlns="http://www.w3.org/2000/svg" viewBox="0 0 50 50"><defs><style>.cls-1,.cls-2{fill:none;stroke:#2a3052;stroke-miterlimit:10;stroke-width:2px}.cls-2{fill:#f2f2f2}.cls-3{fill:#2a3052}</style></defs><title>comparison</title><path class="cls-1" d="M8.5 12.65h33M16.69 39.35h16.62"/><circle class="cls-2" cx="25" cy="12.65" r="2"/><path class="cls-3" d="M14 17.78l3.43 8.15a3.47 3.47 0 0 1-6.9 0L14 17.78m0-5.13L8.52 25.57A5.47 5.47 0 0 0 14 31a5.47 5.47 0 0 0 5.47-5.47L14 12.65z"/><path class="cls-3" d="M19.46 25.57A5.47 5.47 0 0 1 14 31a5.47 5.47 0 0 1-5.47-5.47zM36 17.78l3.43 8.15a3.47 3.47 0 0 1-6.9 0L36 17.78m0-5.13l-5.5 12.92A5.47 5.47 0 0 0 36 31a5.47 5.47 0 0 0 5.47-5.47L36 12.65z"/><path class="cls-3" d="M41.48 25.57A5.47 5.47 0 0 1 36 31a5.47 5.47 0 0 1-5.47-5.47z"/><path class="cls-1" d="M25 14.65v24.7"/></svg>