<svg xmlns="http://www.w3.org/2000/svg" width="512" height="512" viewBox="0 0 284.929 284.929"><g fill="#FFF"><path d="M135.899 167.877c1.902 1.902 4.093 2.851 6.567 2.851s4.661-.948 6.562-2.851L282.082 34.829c1.902-1.903 2.847-4.093 2.847-6.567s-.951-4.665-2.847-6.567L267.808 7.417c-1.902-1.903-4.093-2.853-6.57-2.853-2.471 0-4.661.95-6.563 2.853L142.466 119.622 30.262 7.417c-1.903-1.903-4.093-2.853-6.567-2.853-2.475 0-4.665.95-6.567 2.853L2.856 21.695C.95 23.597 0 25.784 0 28.262c0 2.478.953 4.665 2.856 6.567l133.043 133.048z"/><path d="M267.808 117.053c-1.902-1.903-4.093-2.853-6.57-2.853-2.471 0-4.661.95-6.563 2.853L142.466 229.257 30.262 117.05c-1.903-1.903-4.093-2.853-6.567-2.853-2.475 0-4.665.95-6.567 2.853L2.856 131.327C.95 133.23 0 135.42 0 137.893c0 2.474.953 4.665 2.856 6.57l133.043 133.046c1.902 1.903 4.093 2.854 6.567 2.854s4.661-.951 6.562-2.854l133.054-133.046c1.902-1.903 2.847-4.093 2.847-6.565 0-2.474-.951-4.661-2.847-6.567l-14.274-14.278z"/></g></svg>