<svg xmlns="http://www.w3.org/2000/svg" width="266" height="55" viewBox="0 0 266 55"><path fill="#FFF" d="M44.953 8.177C34.724-2.059 18.084-2.059 7.853 8.174c-10.229 10.229-10.229 26.88 0 37.11 10.231 10.235 26.877 10.233 37.1-.002 10.242-10.228 10.242-26.88 0-37.105zM106.473 10.077c-.841 0-1.615.105-2.285.316a7.524 7.524 0 0 0-1.851.853 7.749 7.749 0 0 0-1.476 1.229c-.112.114-.218.238-.328.361v-2.334H94.9v21.395h5.633V19.908c0-1.475.386-2.627 1.147-3.428.762-.805 1.742-1.194 2.983-1.194 1.263 0 2.205.372 2.875 1.144.677.775 1.024 1.92 1.024 3.4v12.067h5.636V18.404c0-2.506-.68-4.539-2.015-6.039-1.342-1.516-3.263-2.288-5.71-2.288zM127.236 10.233c-1.717 0-3.203.16-4.422.478-1.209.318-2.41.744-3.563 1.268l-.373.173 1.563 4.604.446-.184a20.246 20.246 0 0 1 2.691-.913c.865-.224 1.873-.334 2.996-.334 1.502 0 2.666.339 3.447 1.018.727.628 1.104 1.511 1.143 2.702a19.15 19.15 0 0 0-1.977-.46c-.885-.157-1.975-.238-3.24-.238-1.221 0-2.375.141-3.429.422-1.075.284-2.014.729-2.796 1.318a6.22 6.22 0 0 0-1.857 2.256c-.443.901-.667 1.967-.667 3.168v.077c0 1.101.219 2.093.649 2.939a6.27 6.27 0 0 0 1.71 2.127 7.37 7.37 0 0 0 2.458 1.282 9.921 9.921 0 0 0 2.931.429c1.615 0 3.016-.303 4.162-.903a9.875 9.875 0 0 0 2.02-1.39v1.864h5.559V19.339c0-2.852-.787-5.107-2.342-6.699-1.55-1.599-3.943-2.407-7.109-2.407zm-.97 17.702c-1.018 0-1.883-.237-2.568-.7-.631-.433-.941-1.048-.941-1.878v-.079c0-.836.342-1.476 1.043-1.961.75-.513 1.826-.772 3.203-.772.871 0 1.715.074 2.494.22.658.13 1.248.282 1.75.456v.854c0 .574-.119 1.099-.354 1.56a3.632 3.632 0 0 1-1.016 1.209c-.453.341-.986.61-1.596.804a6.8 6.8 0 0 1-2.015.287zM165.707 24.862l-5.494-14.359h-5.986l8.727 20.938c-.336.735-.68 1.247-1.029 1.512-.365.28-.82.414-1.398.414-.443 0-.873-.068-1.281-.195a7.576 7.576 0 0 1-1.266-.53l-.418-.223-1.963 4.313.371.196c.74.402 1.523.721 2.32.952.803.227 1.727.344 2.744.344.865 0 1.656-.11 2.348-.33a5.902 5.902 0 0 0 1.938-1.072c.576-.485 1.107-1.115 1.572-1.879.449-.744.891-1.668 1.314-2.749l8.385-21.69h-5.863l-5.021 14.358z"/><path fill="#E88024" d="M202.475 24.957a10.745 10.745 0 0 1-2.293 1.771c-.766.438-1.678.661-2.709.661-.834 0-1.605-.16-2.297-.481a5.764 5.764 0 0 1-1.799-1.313 5.948 5.948 0 0 1-1.174-1.951 6.935 6.935 0 0 1-.412-2.404v-.08c0-.819.137-1.613.412-2.365a6.047 6.047 0 0 1 1.143-1.933 5.503 5.503 0 0 1 1.723-1.293 4.987 4.987 0 0 1 2.17-.478c1.105 0 2.039.22 2.781.655.779.455 1.518 1.053 2.215 1.769l.334.341 3.512-3.791-.277-.306a11.95 11.95 0 0 0-3.488-2.662c-1.34-.676-3.037-1.02-5.035-1.02-1.586 0-3.068.303-4.432.892a11.208 11.208 0 0 0-3.533 2.405 11.068 11.068 0 0 0-2.324 3.564 11.352 11.352 0 0 0-.834 4.301v.079c0 1.502.283 2.942.834 4.286a10.898 10.898 0 0 0 2.324 3.522 11.16 11.16 0 0 0 3.516 2.364c1.342.579 2.828.873 4.408.873 2.059 0 3.795-.381 5.148-1.123a13.389 13.389 0 0 0 3.57-2.873l.291-.316-3.463-3.407-.311.313zM227.5 13.336a11.016 11.016 0 0 0-3.602-2.388c-1.375-.578-2.91-.871-4.541-.871-1.633 0-3.156.303-4.539.89-1.385.592-2.59 1.398-3.596 2.407a11.22 11.22 0 0 0-2.387 3.535 10.931 10.931 0 0 0-.871 4.33v.079c0 1.502.287 2.944.846 4.287a10.733 10.733 0 0 0 2.377 3.521c1.006.995 2.215 1.789 3.598 2.369 1.377.574 2.893.868 4.494.868 1.627 0 3.168-.3 4.566-.893a11.241 11.241 0 0 0 3.613-2.401 11.305 11.305 0 0 0 2.387-3.539 10.73 10.73 0 0 0 .869-4.292v-.08c0-1.526-.287-2.978-.848-4.308a10.978 10.978 0 0 0-2.366-3.514zm-8.143 14.054c-.83 0-1.604-.16-2.299-.481a5.817 5.817 0 0 1-1.826-1.332 6.344 6.344 0 0 1-1.201-1.958 6.493 6.493 0 0 1-.436-2.379v-.08c0-.824.137-1.621.398-2.371a5.502 5.502 0 0 1 1.143-1.92 5.615 5.615 0 0 1 1.807-1.294c.693-.321 1.48-.483 2.336-.483.859 0 1.648.162 2.342.483a5.722 5.722 0 0 1 1.83 1.314 6.033 6.033 0 0 1 1.199 1.95 6.73 6.73 0 0 1 .432 2.4v.079c0 .821-.131 1.614-.395 2.353a5.893 5.893 0 0 1-1.145 1.927c-.5.545-1.105.982-1.801 1.311-.702.32-1.499.481-2.384.481zM263.791 12.256c-1.348-1.444-3.248-2.179-5.625-2.179-1.627 0-3.055.356-4.25 1.062a10.536 10.536 0 0 0-2.645 2.229 6.93 6.93 0 0 0-2.168-2.217c-1.082-.711-2.424-1.074-3.979-1.074-.809 0-1.566.105-2.236.316a6.728 6.728 0 0 0-1.822.861 8.093 8.093 0 0 0-1.412 1.197c-.109.113-.205.229-.307.343v-2.292h-5.633v21.395h5.633V19.944c0-1.477.365-2.641 1.088-3.457.717-.809 1.643-1.201 2.83-1.201 1.184 0 2.074.366 2.707 1.117.652.763.98 1.905.98 3.391v12.104h5.633v-11.99c0-1.526.365-2.695 1.096-3.467.729-.78 1.648-1.155 2.824-1.155 1.18 0 2.072.366 2.707 1.117.645.763.979 1.92.979 3.427v12.067h5.627V18.365c0-2.615-.679-4.669-2.027-6.109z"/><g fill="#FFF"><path d="M86.261 10.503H91.9v21.395h-5.639zM92.202 5.499a3.124 3.124 0 0 0-3.125-3.122 3.118 3.118 0 0 0-3.117 3.122 3.117 3.117 0 0 0 3.117 3.119 3.122 3.122 0 0 0 3.125-3.119z"/></g><path fill="#E88024" d="M183.477 29.244a3.119 3.119 0 0 0-3.117-3.123 3.123 3.123 0 0 0-3.125 3.123c0 1.719 1.4 3.12 3.125 3.12a3.122 3.122 0 0 0 3.117-3.12z"/><path fill="#FFF" d="M81.586 18.836a7.967 7.967 0 0 0-1.875-1.484 14.422 14.422 0 0 0-1.452-.715l-.315-.132.285-.186c.243-.156.489-.328.727-.516a6.755 6.755 0 0 0 1.375-1.405 6.98 6.98 0 0 0 .944-1.854c.243-.702.365-1.518.365-2.431v-.082c0-1.974-.684-3.659-2.034-5.005-1.748-1.76-4.359-2.65-7.749-2.65H58.605v29.521h13.663c1.617 0 3.111-.177 4.446-.528 1.351-.352 2.521-.873 3.48-1.55a7.216 7.216 0 0 0 2.262-2.587c.523-1.028.799-2.231.799-3.569v-.08c0-1.022-.146-1.931-.436-2.702a6.05 6.05 0 0 0-1.233-2.045zm-17.343-4.45V7.48H71.237c1.566 0 2.775.302 3.584.909.793.591 1.176 1.398 1.176 2.468v.082c0 1.229-.437 2.11-1.344 2.703-.934.618-2.209.925-3.795.925H64.242v-.181zm13.373 8.744c0 1.225-.448 2.117-1.359 2.727-.932.623-2.252.94-3.909.94h-8.104v-7.341h7.734c1.929 0 3.378.327 4.299.965.896.617 1.339 1.479 1.339 2.624v.085zM152.164 10.117c-1.91-.082-3.527.379-4.797 1.379a8.768 8.768 0 0 0-2.029 2.244v-3.237h-5.635v21.395h5.635v-8.249c0-1.294.16-2.44.484-3.415.313-.952.762-1.753 1.334-2.378a5.534 5.534 0 0 1 2.055-1.4c.795-.312 1.689-.473 2.666-.473h.693v-5.848l-.406-.018z"/><g fill="#FFF"><path d="M58.885 47.623l1.47-.136-.012.389c0 .435.09.83.293 1.189.199.358.528.639.984.833.459.2 1.008.296 1.638.296.899 0 1.586-.197 2.056-.59.475-.392.707-.841.707-1.347a1.43 1.43 0 0 0-.372-.96c-.258-.291-.951-.677-2.091-1.167-.886-.382-1.48-.674-1.804-.879-.501-.331-.878-.692-1.118-1.082a2.511 2.511 0 0 1-.358-1.337c0-.576.154-1.092.472-1.557.321-.465.78-.819 1.39-1.063.606-.244 1.295-.37 2.061-.37.91 0 1.681.154 2.308.461.625.307 1.081.715 1.364 1.223.286.512.43.998.43 1.462 0 .047-.005.122-.012.231l-1.443.11c0-.313-.03-.561-.085-.736a2.042 2.042 0 0 0-.476-.794c-.213-.209-.512-.383-.88-.512a3.856 3.856 0 0 0-1.263-.198c-.816 0-1.448.187-1.902.554-.353.28-.518.653-.518 1.115 0 .276.07.52.211.738.145.218.403.43.774.64.265.148.899.439 1.89.877.809.359 1.364.641 1.666.844.41.27.717.596.939.981.221.388.333.821.333 1.313 0 .604-.187 1.167-.557 1.679-.372.512-.881.907-1.526 1.186-.661.286-1.408.423-2.248.423-1.271 0-2.305-.275-3.106-.829-.809-.555-1.21-1.55-1.215-2.987zM69.065 51.249l2.341-11.213h1.382l-.891 4.31c.512-.505.986-.86 1.434-1.08.444-.215.9-.321 1.372-.321.673 0 1.193.176 1.567.529.374.355.563.823.563 1.403 0 .286-.085.811-.25 1.576l-1.001 4.796h-1.385l1.033-4.919c.149-.712.219-1.163.219-1.345a.835.835 0 0 0-.274-.65c-.182-.17-.449-.252-.791-.252-.504 0-.979.129-1.432.394a2.764 2.764 0 0 0-1.064 1.076c-.26.458-.494 1.194-.71 2.208l-.729 3.488h-1.384zM83.572 50.24c-.486.411-.944.716-1.39.905a3.545 3.545 0 0 1-1.423.287c-.744 0-1.358-.22-1.812-.661-.459-.439-.688-1.007-.688-1.694 0-.456.104-.858.312-1.206.208-.348.477-.626.822-.838.341-.213.755-.364 1.251-.457.312-.059.898-.111 1.772-.146.867-.034 1.492-.125 1.873-.275.102-.375.158-.688.158-.94 0-.32-.118-.572-.353-.756-.325-.256-.787-.384-1.408-.384-.579 0-1.054.128-1.425.387-.374.257-.638.623-.807 1.1l-1.398-.126c.28-.805.736-1.423 1.356-1.851.619-.428 1.401-.64 2.34-.64 1.009 0 1.798.238 2.387.717.449.358.673.821.673 1.393 0 .435-.064.935-.19 1.508l-.452 2.019c-.146.641-.213 1.164-.213 1.568 0 .254.054.62.168 1.101h-1.401a4.848 4.848 0 0 1-.152-1.011zm.509-3.104a3.352 3.352 0 0 1-.622.173c-.226.042-.598.086-1.115.131-.808.069-1.372.163-1.711.271-.325.112-.576.288-.749.524a1.383 1.383 0 0 0-.249.794c0 .391.13.707.401.958.271.249.65.373 1.144.373.459 0 .896-.12 1.324-.36.421-.243.758-.58 1.003-1.018.245-.429.436-1.048.574-1.846zM87.113 51.249l1.703-8.126h1.223l-.345 1.664c.417-.629.827-1.093 1.228-1.396.4-.297.806-.446 1.228-.446.277 0 .616.097 1.017.295l-.569 1.289a1.292 1.292 0 0 0-.784-.263c-.485 0-.985.27-1.491.812-.51.541-.91 1.51-1.204 2.915l-.683 3.257h-1.323zM91.966 54.361l2.346-11.238h1.276l-.235 1.135c.475-.493.898-.838 1.271-1.03a2.625 2.625 0 0 1 1.193-.283c.771 0 1.416.282 1.926.843.507.565.766 1.37.766 2.422 0 .845-.144 1.618-.422 2.312-.281.698-.63 1.26-1.033 1.679-.411.426-.825.736-1.238.937a3.018 3.018 0 0 1-1.285.297c-.973 0-1.731-.495-2.268-1.485l-.916 4.414h-1.381zm2.737-6.431c0 .606.045 1.026.127 1.261.13.335.341.602.633.807.285.202.622.302 1.003.302.798 0 1.444-.447 1.932-1.34.488-.896.731-1.809.731-2.74 0-.692-.163-1.223-.491-1.6a1.564 1.564 0 0 0-1.229-.56c-.352 0-.681.092-.982.279-.299.186-.576.465-.835.833-.262.371-.467.821-.641 1.36-.166.531-.248 1.002-.248 1.398zM106.486 51.249l2.345-11.213h4.684c.811 0 1.419.094 1.827.278.406.188.741.506 1.004.956.264.452.397.957.397 1.518 0 .467-.09.938-.282 1.417-.188.48-.428.876-.713 1.187a3.396 3.396 0 0 1-.878.703 3.736 3.736 0 0 1-.944.351 9.56 9.56 0 0 1-2.18.251h-2.81l-.95 4.553h-1.5zm2.717-5.821h2.469c.962 0 1.667-.103 2.116-.311a2.5 2.5 0 0 0 1.075-.94c.269-.426.408-.876.408-1.35 0-.367-.075-.668-.219-.899a1.273 1.273 0 0 0-.601-.511c-.261-.11-.76-.165-1.5-.165h-2.878l-.87 4.176zM117.094 51.249l1.702-8.126h1.222l-.348 1.664c.423-.629.831-1.093 1.233-1.396.396-.297.807-.446 1.228-.446.271 0 .613.097 1.018.295l-.568 1.289a1.31 1.31 0 0 0-.788-.263c-.484 0-.982.27-1.488.812-.509.541-.91 1.51-1.198 2.915l-.696 3.257h-1.317zM122.569 51.249l1.704-8.126h1.375l-1.689 8.126h-1.39zm2.021-9.646l.33-1.566h1.379l-.328 1.566h-1.381zM132.025 48.289l1.385.146c-.35 1.015-.844 1.766-1.479 2.261a3.506 3.506 0 0 1-2.186.737c-.883 0-1.596-.285-2.145-.855-.553-.575-.824-1.37-.824-2.396 0-.884.176-1.759.523-2.615.354-.858.863-1.511 1.518-1.956.656-.443 1.398-.666 2.244-.666.869 0 1.566.245 2.07.737.516.492.766 1.142.766 1.954l-1.357.089c-.008-.516-.16-.915-.451-1.207-.295-.288-.676-.435-1.158-.435-.555 0-1.037.175-1.441.53-.41.347-.73.884-.965 1.597a6.636 6.636 0 0 0-.352 2.07c0 .698.158 1.213.465 1.563.303.347.678.518 1.135.518.443 0 .873-.168 1.283-.512.413-.339.735-.863.969-1.56zM140.533 48.488l1.348.137c-.199.668-.645 1.305-1.338 1.904-.695.604-1.529.903-2.492.903-.6 0-1.152-.14-1.656-.417a2.724 2.724 0 0 1-1.143-1.213c-.266-.531-.4-1.13-.4-1.811 0-.89.211-1.75.619-2.583.41-.834.943-1.452 1.592-1.858a3.94 3.94 0 0 1 2.121-.606c.971 0 1.738.298 2.318.9.582.603.875 1.423.875 2.463 0 .397-.041.805-.107 1.227h-5.982a2.876 2.876 0 0 0-.029.424c0 .762.17 1.342.523 1.742.348.399.771.599 1.275.599.48 0 .943-.153 1.404-.464.459-.31.812-.761 1.072-1.347zm-4.027-2.01h4.561c.002-.144.008-.247.008-.304 0-.698-.174-1.229-.52-1.599-.352-.37-.793-.553-1.34-.553-.59 0-1.129.203-1.621.609-.483.41-.848 1.023-1.088 1.847zM143.719 48.471l1.385-.081c0 .396.061.735.18 1.016.127.282.352.511.68.693.328.173.713.262 1.148.262.615 0 1.076-.12 1.383-.363.307-.247.455-.536.455-.868 0-.236-.094-.464-.271-.681-.193-.213-.652-.475-1.381-.789-.732-.314-1.199-.535-1.408-.663a2.294 2.294 0 0 1-.771-.739 1.837 1.837 0 0 1-.258-.975c0-.641.252-1.192.762-1.65.514-.457 1.227-.688 2.146-.688 1.016 0 1.793.235 2.326.706.537.471.813 1.093.83 1.865l-1.355.09c-.016-.492-.191-.877-.518-1.162-.326-.287-.793-.432-1.385-.432-.48 0-.855.109-1.115.334-.268.214-.398.453-.398.708 0 .256.115.477.344.671.152.135.549.337 1.186.614 1.061.459 1.727.818 2.004 1.085.438.425.656.939.656 1.548 0 .4-.123.793-.371 1.185-.242.387-.625.698-1.133.929-.506.233-1.1.348-1.791.348-.938 0-1.736-.229-2.395-.695s-.972-1.221-.935-2.268zM152.115 51.249l.334-1.567h1.568l-.346 1.567h-1.556zM161.646 47.623l1.471-.136-.02.389c0 .435.1.83.297 1.189.201.358.531.639.986.833.461.2 1.01.296 1.645.296.893 0 1.578-.197 2.047-.59.475-.392.709-.841.709-1.347 0-.352-.123-.673-.371-.96-.256-.291-.951-.677-2.086-1.167-.893-.382-1.484-.674-1.809-.879-.502-.331-.881-.692-1.121-1.082a2.528 2.528 0 0 1-.355-1.337c0-.576.158-1.092.473-1.557.32-.465.779-.819 1.389-1.063.613-.244 1.297-.37 2.064-.37.906 0 1.68.154 2.305.461.633.307 1.088.715 1.365 1.223.287.512.428.998.428 1.462 0 .047-.004.122-.01.231l-1.443.11c0-.313-.027-.561-.086-.736a1.949 1.949 0 0 0-.475-.794c-.213-.209-.508-.383-.879-.512a3.867 3.867 0 0 0-1.262-.198c-.813 0-1.451.187-1.906.554-.346.28-.516.653-.516 1.115 0 .276.072.52.215.738.141.218.4.43.771.64.26.148.895.439 1.887.877.809.359 1.363.641 1.666.844.41.27.725.596.943.981.219.388.328.821.328 1.313 0 .604-.189 1.167-.553 1.679-.369.512-.881.907-1.533 1.186-.652.286-1.4.423-2.244.423-1.266 0-2.303-.275-3.109-.829-.8-.555-1.207-1.55-1.211-2.987zM171.818 51.249l1.697-8.126h1.385l-.285 1.34c.518-.575.98-.97 1.385-1.192a2.778 2.778 0 0 1 1.318-.326c.504 0 .93.131 1.266.399.338.267.563.644.672 1.119.414-.506.846-.89 1.305-1.14a2.934 2.934 0 0 1 1.441-.379c.68 0 1.188.159 1.523.479.34.318.508.774.508 1.354 0 .252-.057.665-.174 1.24l-1.098 5.231h-1.381l1.115-5.37c.098-.437.146-.75.146-.941 0-.264-.086-.475-.252-.628-.17-.151-.406-.227-.713-.227-.408 0-.832.122-1.26.375a2.609 2.609 0 0 0-.996.981c-.238.404-.451 1.03-.625 1.869l-.828 3.94h-1.387l1.152-5.485c.078-.371.117-.635.117-.794 0-.267-.082-.478-.248-.643a.877.877 0 0 0-.645-.244c-.393 0-.805.122-1.234.375a2.94 2.94 0 0 0-1.051 1.043c-.271.445-.5 1.083-.668 1.909l-.803 3.839h-1.382zM190.666 50.24c-.48.411-.945.716-1.383.905-.445.192-.92.287-1.43.287-.744 0-1.354-.22-1.809-.661-.463-.439-.686-1.007-.686-1.694 0-.456.102-.858.307-1.206s.48-.626.826-.838c.338-.213.76-.364 1.252-.457.307-.059.898-.111 1.77-.146.869-.034 1.494-.125 1.873-.275.107-.375.16-.688.16-.94a.918.918 0 0 0-.352-.756c-.324-.256-.793-.384-1.408-.384-.58 0-1.059.128-1.428.387-.373.257-.639.623-.807 1.1l-1.396-.126c.283-.805.732-1.423 1.359-1.851.615-.428 1.396-.64 2.34-.64 1.006 0 1.799.238 2.385.717.449.358.672.821.672 1.393 0 .435-.063.935-.189 1.508l-.451 2.019c-.146.641-.215 1.164-.215 1.568 0 .254.057.62.168 1.101h-1.396a4.779 4.779 0 0 1-.162-1.011zm.512-3.104a3.238 3.238 0 0 1-.627.173c-.219.042-.59.086-1.104.131-.809.069-1.383.163-1.711.271-.33.112-.58.288-.75.524-.17.238-.252.505-.252.794 0 .391.135.707.402.958.27.249.645.373 1.146.373.453 0 .898-.12 1.318-.36.424-.243.762-.58 1.002-1.018.252-.429.433-1.048.576-1.846zM194.217 51.249l1.697-8.126h1.221l-.344 1.664c.418-.629.83-1.093 1.227-1.396.398-.297.809-.446 1.23-.446.271 0 .609.097 1.018.295l-.568 1.289a1.29 1.29 0 0 0-.785-.263c-.49 0-.984.27-1.498.812-.506.541-.904 1.51-1.193 2.915l-.691 3.257h-1.314zM202.98 50.126l-.229 1.132c-.33.085-.656.129-.969.129-.547 0-.984-.134-1.313-.407-.246-.204-.365-.479-.365-.831 0-.179.066-.589.195-1.231l.986-4.719h-1.09l.219-1.075h1.096l.418-1.992 1.582-.959-.619 2.951h1.365l-.232 1.075h-1.352l-.945 4.485c-.117.573-.17.917-.17 1.027 0 .165.047.289.139.376.088.085.248.129.461.129.31 0 .579-.029.823-.09zM212.109 51.249l2.076-9.936h-3.678l.264-1.277h8.826l-.268 1.277h-3.646l-2.07 9.936h-1.504zM217.793 51.249l1.697-8.126h1.221l-.342 1.664c.422-.629.832-1.093 1.229-1.396.4-.297.807-.446 1.232-.446.271 0 .613.097 1.016.295l-.566 1.289a1.318 1.318 0 0 0-.793-.263c-.484 0-.979.27-1.486.812-.51.541-.908 1.51-1.201 2.915l-.689 3.257h-1.318zM228.799 50.24c-.477.411-.943.716-1.383.905-.445.192-.92.287-1.418.287-.754 0-1.361-.22-1.814-.661-.463-.439-.689-1.007-.689-1.694 0-.456.102-.858.307-1.206.209-.348.479-.626.822-.838.342-.213.762-.364 1.256-.457.311-.059.902-.111 1.768-.146.875-.034 1.496-.125 1.873-.275.107-.375.16-.688.16-.94a.913.913 0 0 0-.352-.756c-.324-.256-.793-.384-1.406-.384-.582 0-1.057.128-1.428.387-.371.257-.635.623-.807 1.1l-1.402-.126c.287-.805.74-1.423 1.359-1.851s1.4-.64 2.344-.64c1.002 0 1.799.238 2.385.717.451.358.672.821.672 1.393 0 .435-.061.935-.188 1.508l-.453 2.019c-.139.641-.217 1.164-.217 1.568 0 .254.059.62.17 1.101h-1.395c-.082-.268-.129-.602-.164-1.011zm.512-3.104a3.12 3.12 0 0 1-.623.173c-.219.042-.59.086-1.107.131-.809.069-1.381.163-1.705.271-.336.112-.586.288-.756.524a1.36 1.36 0 0 0-.248.794c0 .391.135.707.4.958.268.249.646.373 1.139.373.465 0 .902-.12 1.324-.36.428-.243.758-.58 1.01-1.018.235-.429.425-1.048.566-1.846zM237.826 50.072c-.791.906-1.615 1.36-2.479 1.36-.77 0-1.412-.281-1.924-.853-.516-.569-.768-1.395-.768-2.472 0-.994.201-1.898.604-2.713.41-.82.916-1.432 1.527-1.84.604-.41 1.217-.611 1.826-.611 1.014 0 1.773.483 2.287 1.459l.92-4.367h1.381l-2.342 11.213h-1.277l.245-1.176zm-3.791-2.225c0 .566.051 1.011.166 1.337.111.327.305.598.572.816.273.215.59.32.975.32.623 0 1.193-.323 1.703-.977.68-.867 1.027-1.937 1.027-3.213 0-.641-.168-1.143-.512-1.506a1.66 1.66 0 0 0-1.27-.542c-.326 0-.629.073-.906.22-.27.15-.541.397-.809.755-.268.354-.494.805-.674 1.35-.184.547-.272 1.027-.272 1.44zM241.32 51.249l1.697-8.126h1.381l-1.693 8.126h-1.385zm2.02-9.646l.328-1.566h1.377l-.328 1.566h-1.377zM245.168 51.249l1.699-8.126h1.252l-.297 1.42c.545-.556 1.055-.964 1.529-1.217a3.022 3.022 0 0 1 1.455-.382c.652 0 1.166.178 1.549.535.373.357.557.83.557 1.429 0 .301-.063.775-.193 1.422l-1.037 4.919h-1.383l1.078-5.147c.105-.499.164-.87.164-1.11a.828.828 0 0 0-.287-.656c-.184-.17-.447-.252-.805-.252-.707 0-1.338.256-1.893.767-.549.508-.961 1.381-1.221 2.622l-.785 3.777h-1.382zM254.115 51.981l1.404.134c-.018.315.023.552.109.711a.852.852 0 0 0 .41.365c.248.114.58.167.975.167.84 0 1.438-.215 1.809-.647.238-.29.457-.927.664-1.899l.137-.655c-.717.729-1.486 1.093-2.293 1.093-.824 0-1.51-.303-2.063-.906-.557-.604-.828-1.462-.828-2.565 0-.913.215-1.752.652-2.519.432-.762.953-1.341 1.553-1.73.604-.39 1.223-.584 1.857-.584 1.07 0 1.887.502 2.465 1.514l.273-1.335h1.271l-1.637 7.842c-.18.863-.41 1.532-.705 2.019a2.938 2.938 0 0 1-1.205 1.12c-.521.264-1.121.396-1.799.396-.65 0-1.215-.082-1.689-.254-.467-.166-.82-.412-1.051-.74a1.858 1.858 0 0 1-.348-1.109c.002-.131.016-.266.039-.418zm1.733-4.328c0 .557.045.976.16 1.256.148.391.367.691.648.896.289.21.598.313.947.313.453 0 .906-.162 1.355-.479.451-.32.809-.813 1.09-1.479.273-.669.416-1.31.416-1.912 0-.67-.182-1.2-.559-1.596a1.777 1.777 0 0 0-1.367-.593c-.338 0-.666.089-.984.272-.309.178-.609.455-.883.825-.27.369-.48.812-.617 1.324-.14.518-.206.909-.206 1.173zM263.602 51.249l.328-1.567h1.566l-.336 1.567h-1.558z"/></g><g fill="#2A3052"><path d="M19.092 33.61s.301 2.251 2.196 3.293l-.504-.94s.964-2.531-1.692-2.353z"/><path d="M43.626 9.504C34.126 0 18.679 0 9.181 9.501c-9.497 9.5-9.497 24.956 0 34.458 9.498 9.5 24.951 9.497 34.445-.002 9.508-9.5 9.508-24.956 0-34.453zm-2.518 31.934a26.62 26.62 0 0 1-.796.757c-5.852 4.769-10.359 2.396-10.41 2.396-3.055-.61-4.571-.62-5.428-1.193-.215-.145-.907-.516-1.065-.426-.624.372-1.481.562-2.364-.141-.08-.064-.152-.135-.221-.2-.971-.969-.641-1.969-.318-2.316.224-.228-.171-.866-.171-.866s-1.146-1.704-1.931-2.73c-.863-1.125-.98-3.358-.991-3.388l-.01-.031c-.873-1.036-.964-1.354-1.265-1.86-.176-.298-.446-.578-.675-.818a4.336 4.336 0 0 1-.406-.446c-.024-.03-.029-.074-.02-.143.079-.483 1.119-1.55 1.343-1.698.275-.179 1.46-.899 1.46-.899s.667-1.047 1.801-1.047c1.022.005 1.646-.057 3.41.519l.734.232c1.23.395 2.313.859 3.175 1.23.731.316 1.315.569 1.764.688 1.521.399 4.206-.831 4.771-1.352.929-.845 1.329-1.411 1.335-1.875.008-.261-.107-.487-.371-.763-.136-.126-.313-.361-.534-.585-.035-.035-.072-.076-.117-.109-2.576-2.735-2.13-4.45-2.127-4.479.109-1.23-.595-2.02-1.353-2.838l-.125-.154c-.04-.036-.088-.099-.088-.099 1.097.18 1.844.621 3.986.859 1.217.132.833.12 1.805.096 1.339-.043 2.401-.16 2.473-.465-.13-.11-.723.033-3.567-1.054-1.316-.506-1.524-.581-2.362-.857-1.076-.363-2.242-.866-2.242-.866 4.641 1.218 6.157 1.694 8.28 1.724a6.665 6.665 0 0 0 1.596-.143c.302-.055 1.239-.268 1.345-.592.032-.056-.898.153-2.62-.414-5.416-1.79-5.876-2.686-8.878-3.853-1.046-.406-1.388-.631-4.55-1.446-1.45-.371-3.641-.158-3.937.028-4.106-.965-5.039-.859-6.244-.6 8.032-5.151 18.88-4.223 25.906 2.805a21.256 21.256 0 0 1 2.535 3.068l.099.15c2.255 3.375 3.458 7.336 3.458 11.484.002 5.557-2.162 10.776-6.09 14.71zm-13.636-23.48c2.039.727 2.692 2.898 2.692 2.898-2.591.591-2.044-2.056-2.044-2.056l-.648-.842z"/></g></svg>